<mxfile host="app.diagrams.net" modified="2020-12-22T19:05:35.196Z" agent="5.0 (Windows NT 10.0; Win64; x64) AppleWebKit/537.36 (KHTML, like Gecko) Chrome/87.0.4280.88 Safari/537.36" etag="MOo-7HQus0Ww0umrMDI_" version="14.1.1" type="github">
  <diagram name="Page-1" id="e7e014a7-5840-1c2e-5031-d8a46d1fe8dd">
    <mxGraphModel dx="1673" dy="934" grid="1" gridSize="10" guides="1" tooltips="1" connect="1" arrows="1" fold="1" page="1" pageScale="1" pageWidth="1169" pageHeight="826" background="#ffffff" math="0" shadow="0">
      <root>
        <mxCell id="0" />
        <mxCell id="1" parent="0" />
        <mxCell id="rr55XMxGJXw-yliVTniT-41" value="&lt;b&gt;Constitution des commandes&lt;/b&gt;" style="verticalAlign=top;align=left;spacingTop=8;spacingLeft=2;spacingRight=12;shape=cube;size=10;direction=south;fontStyle=4;html=1;fillColor=#dae8fc;strokeColor=#6c8ebf;gradientColor=#ffffff;" vertex="1" parent="1">
          <mxGeometry x="220" y="40" width="810" height="700" as="geometry" />
        </mxCell>
        <mxCell id="rr55XMxGJXw-yliVTniT-51" style="rounded=0;orthogonalLoop=1;jettySize=auto;html=1;exitX=0.5;exitY=0;exitDx=0;exitDy=0;entryX=0.5;entryY=1;entryDx=0;entryDy=0;dashed=1;" edge="1" parent="1" source="rr55XMxGJXw-yliVTniT-42" target="rr55XMxGJXw-yliVTniT-47">
          <mxGeometry relative="1" as="geometry" />
        </mxCell>
        <mxCell id="rr55XMxGJXw-yliVTniT-54" value="&amp;lt;&amp;lt;include&amp;gt;&amp;gt;" style="edgeLabel;html=1;align=center;verticalAlign=middle;resizable=0;points=[];" vertex="1" connectable="0" parent="rr55XMxGJXw-yliVTniT-51">
          <mxGeometry x="0.1824" y="-2" relative="1" as="geometry">
            <mxPoint x="4.82" y="3.04" as="offset" />
          </mxGeometry>
        </mxCell>
        <mxCell id="rr55XMxGJXw-yliVTniT-52" style="edgeStyle=none;rounded=0;orthogonalLoop=1;jettySize=auto;html=1;exitX=0.5;exitY=0;exitDx=0;exitDy=0;entryX=0.5;entryY=1;entryDx=0;entryDy=0;dashed=1;" edge="1" parent="1" source="rr55XMxGJXw-yliVTniT-42" target="rr55XMxGJXw-yliVTniT-48">
          <mxGeometry relative="1" as="geometry" />
        </mxCell>
        <mxCell id="rr55XMxGJXw-yliVTniT-55" value="&amp;lt;&amp;lt;include&amp;gt;&amp;gt;" style="edgeLabel;html=1;align=center;verticalAlign=middle;resizable=0;points=[];" vertex="1" connectable="0" parent="rr55XMxGJXw-yliVTniT-52">
          <mxGeometry x="0.1927" y="-1" relative="1" as="geometry">
            <mxPoint as="offset" />
          </mxGeometry>
        </mxCell>
        <mxCell id="rr55XMxGJXw-yliVTniT-42" value="Passer une commande" style="ellipse;whiteSpace=wrap;html=1;gradientColor=#ffffff;" vertex="1" parent="1">
          <mxGeometry x="420" y="250" width="150" height="50" as="geometry" />
        </mxCell>
        <mxCell id="rr55XMxGJXw-yliVTniT-61" style="edgeStyle=none;rounded=0;orthogonalLoop=1;jettySize=auto;html=1;exitX=0;exitY=0.5;exitDx=0;exitDy=0;endArrow=none;endFill=0;strokeWidth=1;" edge="1" parent="1" source="rr55XMxGJXw-yliVTniT-42">
          <mxGeometry relative="1" as="geometry">
            <mxPoint x="120" y="280" as="targetPoint" />
          </mxGeometry>
        </mxCell>
        <mxCell id="rr55XMxGJXw-yliVTniT-47" value="Constitution du panier" style="ellipse;whiteSpace=wrap;html=1;gradientColor=#ffffff;" vertex="1" parent="1">
          <mxGeometry x="300" y="130" width="150" height="50" as="geometry" />
        </mxCell>
        <mxCell id="rr55XMxGJXw-yliVTniT-48" value="Choix du point de livraison" style="ellipse;whiteSpace=wrap;html=1;gradientColor=#ffffff;" vertex="1" parent="1">
          <mxGeometry x="540" y="130" width="150" height="50" as="geometry" />
        </mxCell>
        <mxCell id="rr55XMxGJXw-yliVTniT-57" value="&lt;b&gt;Mikael&lt;br&gt;&lt;/b&gt;" style="text;html=1;align=center;verticalAlign=middle;resizable=0;points=[];autosize=1;" vertex="1" parent="1">
          <mxGeometry x="44.73000000000002" y="255" width="50" height="20" as="geometry" />
        </mxCell>
        <mxCell id="rr55XMxGJXw-yliVTniT-58" value="" style="shape=image;imageAspect=0;aspect=fixed;verticalLabelPosition=bottom;verticalAlign=top;image=data:image/png,iVBORw0KGgoAAAANSUhEUgAAAhAAAAIwCAYAAADXrFK/AAAgAElEQVR4XuydB3wTV9LAZ7XqkjvGprfQuyluGJseSCGVJJdePpKQHtLrpV56D0m4JJd6KZcGJCR0G2Mbg8GY3gkdG9zVpV19vydjMLYlraRdaXc1e+efTfzevJn/PFmjV2YowAcJIAEkgASQABJAAgESoAJsj82RABJAAkgACSABJAAYQOAkQAJIAAkgASSABAImgAFEwMiwAxJAAkgACSABJIABBM4BJIAEkAASQAJIIGACGEAEjAw7IAEkgASQABJAAhhA4BxAAkgACSABJIAEAiaAAUTAyLADEkACSAAJIAEkgAEEzgEkgASQABJAAkggYAIYQASMDDsgASSABJAAEkACGEDgHEACSAAJIAEkgAQCJoABRMDIsAMSQAJIAAkgASSAAQTOASSABJAAEkACSCBgAhhABIwMOyABJIAEkAASQAIYQOAcQAJIAAkgASSABAImgAFEwMiwAxJAAkgACSABJIABBM4BJIAEkAASQAJIIGACGEAEjAw7IAEkgASQABJAAhhA4BxAAkgACSABJIAEAiaAAUTAyLADEkACSAAJIAEkgAEEzgEkEASB9PT0WK1WO4pysMMVCujvdrl7URTThWKZDrSb1YPbraTATQOwNOV2Kyi3myJfZCiWotygULAsKFigKBf5YimF1Q1UPUtR1aCgq4BVHGUU1EEFpSjIL8pfG4SKku+Sl52XwbrZXJp19wAF2wVYpqPC7U6iwB2ncLM6wph8KYBVAMsqFKf5NpH2fLEACsYNFEMYM5TC4lbQp9xu+iilpA6wLOxyqxUVNpttQ2lpaYPkgaEBSCDMBDCACDNwHE6aBHLH5V6kYFyXK1gmU8k4etCMQxMuS9yUws0o1SaGUh5mFcptbqCKQUN/k5+ffypcOgg5TlbW1I5qt/UfFLizFKxrMO12daNdDiPlZsP294mh1XYXrT7IKugSllb+XLCmYJGQNqNsJCAHAmF7gcoBFtoQPQTyxuXdRbmcV9CMY4iKsSeF882MK2UXrTG7aNVeVqEsYxWKZauLVv/AtW8k2+Vm5V6vcDPTFaxrlIJ1dlO57LpI6tPe2CRoc9KaaoZWb3XTqm/zi/I/FZuOqA8SiDQBDCAi7QEcXxQEyJsazTpnKVjXGKXL1lERxk+/fAFgaJXDSWu2sLTyu/ziNW/yJZcPOXlZ4+YqGNc1KsY+lGacaj5khlOGJ6BQag8ztLrIpVT+UliY/1M4x8exkIAYCWAAIUavoE5hIZCbkfMADa7rlU7bYCUrvTc1X5BcSo3VSWs2uGn1l5H69JyXnXcbxThuVDH2UUoRrjKEMsnIlodTqdnOgPLrgrWFb4ciC/siAakSwABCqp5DvYMiMD57/FU065qtctnTlS67ISghEuvkUmkbnbSmhFHRn6xevfoXIdUfP378ZbSTuV3F2DOVTluMkGOJRbZLqTE7lZpSRqGcL5VtJLGwQz2kTQADCGn7D7XnQCBnVE4npdr9ppKxT1U5rUkcusi2iVOlq3HS6gIW6BdWl6wu58PQvKysEeCmnlExjlyV05rIh0ypynCqdNUuWrPU5aDmFm4oPC5VO1BvJMCFAAYQXChhG0kSGJ81carSbXtK5bRm0oxTKUkjBFKapWjWrjYUK1T0XSsKCzcHM8yU8eP7uhyujzQuS56CcdHByJBrH4ZWuZwqXYmL0r64unjlUrnaiXZFNwEMIKLb/7K0Pjcr914lY5ujdlj7U8DK0ka+jGIo2u1Q60rtCv11xcUr93GRO3HixC5um22+xm4+X8EyCi59orWNGxTgUOt2uWjtvILigveilQPaLU8CGEDI069RaRU5FKlk7Y9onJbUqAQQgtHkloFdpd9oo2NnFBcvrWpP1LTMaYkOqvFzjc10sRRvqYSAh5eudpX+hEuheQ0PXfKCE4WIgAAGECJwAqoQGoFxmXnna1jbmxqHaVBokrC3GyiwaQxrG5zJkzZsWGQhRPLy8rSU1fGb1mmaRrlxRSfUWWJXG7fbFdq5a0ry/wpVFvZHApEkgAFEJOnj2CERyMnJ6aR0Md9o7KYJ+Ik4JJTtdrZqY1dTbmC09sYJAG7+B4hiiSxZ8dEYV7mU9HWFhXjYMoqngqRNxwBC0u6LXuUnZI37TO2wXBvOlNLRSxstF4oAySfhUOu/XVW85lahxkC5SEAoAhhACEUW5QpCIC8z7xKasbyrcVq6CzIACkUCESBgV+kPMbT+vvyS/N8iMDwOiQSCIoABRFDYsFMkCEzIylmgsTdcpGAZnLeRcACOKSgBVkG77ZrYRauKC2cKOhAKRwI8EcA/xDyBRDHCEcjNyr1H7bI8G+1JoIQjjJLFRIAko3Io9c8VFBe8Lya9UBck0JoABhA4J0RNgKw66Ky1F4taSVQOCQhAwKpLWIirEQKARZG8EcAAgjeUKIhPAllZE/voGPOfGoe5L59yURYSkBIBu9qwx0obpnNN8iUl21BX6RPAAEL6PpSdBWTLQuM0/Stail3JzoFoEK8ESLEuu8r4OG5p8IoVhfFAAAMIHiCiCP4I5GWM+05nr7+awrwD/EFFSZInQBJ8WTVx3+evXXON5I1BA2RDAAMI2bhS+oZMzMxarbU15EjfErQACQhDwKaNKVlZUpIljHSUigQCI4ABRGC8sLVABCZmZhZrbY2ZAolHsUhANgTs6pgtK0pLhsnGIDREsgQwgJCs6+Sj+MTMzHVaW+MY+ViEliABYQnYVYb9K9aV9hF2FJSOBHwTwAACZ0hECUzMyNyotTeOjKgSODgSkCABh0p3Yvm69Z0kqDqqLBMCGEDIxJFSNGNSevpOjcPcX4q6o85IQAwEnGpd7bLS9Yli0AV1iD4CGEBEn89FYfHksWOOq53WVFEog0ogAQkTINc8l67fYJSwCai6RAlgACFRx0lZ7aljRzconbYYKduAuiMBMRFgaJVjSVm5Rkw6oS7yJ4ABhPx9LCoLp45OcygZh0pUSqEySEAGBFiKZv/aWEHLwBQ0QSIEMICQiKPkoOb5acNYhZvFOScHZ6INoiTgpij4c+MWfI2J0jvyUwonmvx8KkqLpqcNYykMHkTpG1RKXgQYinYv2VihkJdVaI0YCWAAIUavyEynyWPHnlA7LSkyMwvNQQKiJeDQGPYuX1uKhehE6yF5KIYBhDz8KForJmSO+11nq7tAtAqiYkhApgSs+oTXVxUVPiJT89AsERDAAEIETpCrCnnZebfpLaf+LVf70C4kIHYCjcaEyYWFhSvErifqJ00CGEBI02+S0Hp62nCGcjO4FysJb6GSciTA0CrXkrJyvPUkR+eKwCYMIETgBDmqMGXsmFMqpzVJjrahTUhASgRsamPFytK1I6SkM+oqDQIYQEjDT5LSckJGRonObsqQlNKoLBKQMQGzNv7rgpI1N8jYRDQtAgQwgIgAdDkPOSEr5z2dtfYeOduItiEBKRIw65LuLSgueF+KuqPO4iSAAYQ4/SJJrXJycibpLaa/aNaplKQBqDQSkDEBp1JjdbpjxuaX5W+VsZloWhgJYAARRthyHwoLZMndw2if1AnYVfpDK9at6yF1O1B/cRDAAEIcfpC8FhMyslfp7PV5kjcEDUACMidg1cTlr1pbNEHmZqJ5YSCAAUQYIMt9iAlZEy7Q2qoXYapquXsa7ZMDATelcNu0SRetKl71hxzsQRsiRwADiMixl83Ik9IztmscpoGyMQgNQQIyJ2BXG3esKF07SOZmonkCE8AAQmDAchefl533kN5y6nW524n2IQG5EbDoOzycX5T/htzsQnvCRwADiPCxluVIWChLlm5Fo6KAgEOlr1y+bl1qFJiKJgpEAAMIgcBGg9i87HEf6y11t0eDrWgjEpAjAYs+/pP8ojV3yNE2tEl4AhhACM9YliPk5eUZ1abGSiVj18vSQDQKCUQBARetsTiMMSn5+fmmKDAXTeSZAAYQPAONFnETM7MXa23106PFXrQTCciVgE0b9+fKkqIZcrUP7RKOAAYQwrGVreTs7MnjYqwnCxRYaVO2PkbDoocAS9Fsoy45t6ho+ZrosRot5YMABhB8UIwyGRPTMzZpHabhUWY2mosEZEsAK3bK1rWCGoYBhKB45Sd8fOb42422mo/lZxlahASim4BJm3jH6pLVn0Q3BbQ+EAIYQARCC9vClPT0wyqHuSuiQAJIQF4EnGrDkWWlpd3kZRVaIyQBDCCEpCsz2bnjxs0xmOs+lJlZaA4SQAKnCVj0iQ/nF63G5FI4IzgRwACCEyZsRAhMTM8o0zpMo5AGEkAC8iRgVxt3ryhd21+e1qFVfBPAAIJvojKVl56eHpvgtNYp3CzOGZn6GM1CAm6KAlbTOWlJyZIapIEE/BHANwN/hPD3HgJ5WePe0Vvr7kMcSAAJyJuAVRe7eFVx8QXythKt44MABhB8UIwCGVNGj2pUMXZjFJiKJiKBqCbA0Gr7krKN2qiGgMZzIoABBCdM0d1oQvb4GTpLzR/RTQGtRwLRQ6DRmHBlYWHhT9FjMVoaDAEMIIKhFgV9cnLyrqBZ12QFy6TRjKu3ymlNigKz0UQkgAQAwKnSVTMK5UG3gq5wg3JlfnH+NwgGCbQmgAEEzgkYnz3+MpplZypY1wiaZXrSjD2GwsOSODOQABI4TcBNKcClUJtYWnnYTdMbnKD4qbC4cAECim4CGEBEqf9zMnMeV7POq5WMfRDNOJVRigHNRgJIIEgCDK1yOFXaDSyt+TZ/TT7mhwmSo5S7YQAhZe8FoHtW1sQ+GnDeR7OO6bTL0YtmnHQA3bEpEkACSMArAUahcrmU2l2MUvknS+vmrV699ADikj8BDCBk7mNSu0LpdtypcVqHUiyjkLm5aB4SQAIRJuBW0KxdpdviotQfYW2NCDtD4OExgBAYcCTEk6RPOkr5poq1z1Q5bcmR0AHHRAJIAAk4VdqTToVmgdXtmltaWtqARORFAAMIGfkzLzPvEsrtmKt2WdNpxqmSkWloChJAAhImwNAqp0OpK3VT6jfzS/J/k7ApqHoLAhhAyGA6jB8//jKV3fm8xtE4WAbmoAlIAAnImIBdHbPNqVE9s3r16l9kbGZUmIYBhITdnJudO4VmHK9o7eY0AFbClqDqSAAJRBcBBdg0ho0MrX6soKhgWXTZLh9rMYCQoC/zsvMyKMbxttZhSsd8DRJ0IKqMBJCAh4CbUrhtamOpm1Y/kF+UvxaxSIsABhAS8hc5HKmnlAs0TtN4Bd6okJDnUFUkgAR8EWA9NzeMqy1u10w8bCmduYIBhER8NSE75zWVwzJH6bIbJKIyqokEkAASCIiAS6kxO9X6eauKCh8JqCM2jggBDCAigp37oOScg8pl+0DtMPfj3gtbIgEkgASkS8ChNux2KrV34/kIcfsQAwgR+2diZtavaof5YtyuELGTUDUkgAQEIUC2NRxqw8KVJcWXCjIACg2ZAAYQISPkX8CEceNvUTqsr6uc1kT+paNEJIAEkIB0CDhVuhqXWvfwqjWrP5eO1tGhKQYQIvNzXva4j7XWhtkKrIYpMs+gOkgACUSKAEtua+hi5+cXrbkjUjrguG0JYAAholkxISOrUGdvGCcilVAVJIAEkIBoCFg1sWtWrS3OEY1CUa4IBhAimAB5WVkjlC7XQrXT0k0E6qAKSAAJIAHREnCo9IddSuXF+cXFm0SrZJQohgFEhB2dm5V7r8ZpekXpsusirAoOjwSQABKQBAGXUmO1q4yPFRQXvCcJhWWqJAYQEXRsbkbOPL2j7k7K7Y6gFjg0EkACSEB6BNwUBTZt3H9WFa+5RXray0NjDCAi5McJmdk/6Gz1syI0PA6LBJAAEpAFAas2dvWqkuJcWRgjMSMwgIiAw/Iyspbq7Q1TIjA0DokEkAASkB0Bu8a4b8XatefJzjCRG4QBRJgdNCk9fbfGYe4b5mFxOCSABJCArAk4ldq6ZevLEmRtpMiMwwAijA6ZOmaUBQ9LhhE4DoUEkEBUEWBolWtJWbkqqoyOoLEYQIQJ/oyRQ/CkZJhY4zBIAAlEN4HF5VvxvS0MUwAhhwHy+WnDGYWbUYRhKBwCCSABJBD1BFy02rm0bKM66kEIDAADCIEB47aFwIBRPBJAAkigHQIOtb5qeem6FIQjHAEMIIRjC1PGjq5SOW3JAg6BopEAEkACSMALAZvaWLGydO0IBCQMAQwghOEKeNtCILAoFgkgASQQAAGbJqZ05dqSjAC6YFOOBDCA4AgqkGYTMzOLtbbGzED6YFskgASQABIQhgAmmxKGKwYQPHOdkJn9hc5WfyPPYlEcEkACSAAJhEDAqo37clVJ0U0hiMCurQhgAMHjlMgbN/4unaXuA8rN8igVRSEBJIAEkECoBNyUAqz6+Lvz16z+MFRZ2L+JAAYQPM2EvNF5Q1RU4zoVVtXkiSiKQQJIAAnwS8Cp1Fid7pix+WX5W/mVHJ3SMIDgye+Txo49qHFauvMkDsUgASSABJCAAATsKv2hFevW9RBAdNSJxACCB5dPyMwq0NkaxvMgCkUgASSABJCAwATwUCU/gDGACJFjbkbOPIO99s4QxWB3JIAEkAASCCMBsybho4K1hXPCOKTshsIAIgSX5mXnZWjs9YU041SGIAa7IgEkgASQQJgJkMJbdk1cTn5R/towDy2b4TCACMGVk9LTd2oc5v4hiMCuSAAJIAEkECECdrVh14rS0gERGl7yw2IAEaQL8zJz3tfbau8Osjt2QwJIAAkgAREQsGgTPsgvKbxHBKpITgUMIIJwWU56ziA9Y95IMw5NEN2xCxJAAkgACYiEAEOr7RbakFZYWrhdJCpJRg0MIIJw1aT0zM0aR+PQILpiFySABJAAEhAZAbs6ZsuK0pJhIlNL9OpgABGgiyaOG/eK1lz3aIDdsDkSQAJIAAmImIDNEP/qyjVrHhOxiqJTDQOIAFySB3lK9ejGeiVj1wfQDZsiASSABJCAyAm4aI3FURYTlw/5LpGrKhr1MIAIwBUTMrN/0NnqZwXQBZsiASSABJCARAhYtXE/riopukoi6kZcTQwgOLpg2rRpiVB98hgenOQIDJshASSABCRGgByohKTkzkuWLKmRmOoRURcDCI7YJ2TlLNBZay/m2BybIQEkgASQgAQJWHUJC1cVF86UoOphVxkDCA7Ix4+f2ktnObmLZpwqDs2xCRJAAkgACUiUAEOrnFZ9cv/Vq5cekKgJYVMbAwgOqPMyspbq7Q1TODTFJkgACSABJCBxAhZN7LL8tcVTJW6G4OpjAOEH8aScnGEqa+NGBeOiBfcGDoAEkAASQAIRJ8DSSsapi0lbUVi4OeLKiFgBDCD8OGdCRtZynb1hkoh9iKohASSABJAAzwSsmtgVq9YWT+ZZrKzEYQDhw505OTmd9BbTQZrFsw+ymvVoDBJAAkjADwFGoXJa9MYehYWFxxFW+wQwgPAxMyZmjvuf1lZ3BU4eJIAEkAASiD4CNm38TytL1lwZfZZzsxgDCB+cpo4eZcask9wmErZCAkgACciNAMlOubRsg0FudvFlDwYQXkjmZo77xGCrm80XaJSDBJAAEkAC0iNg1sbPLyhZc7v0NBdeYwwgvDCekj6mRuWwJgjvAhwBCSABJIAExErAqdbVLitdnyhW/SKpFwYQ7dDPzcx92WCrfjySjsGxkQASQAJIQBwEzNqkfxWUFDwhDm3EowUGEO34YtLY9H0ap7m3eNyEmiABJBAJAm6gQKHTQWyMEeqrqiKhAo4pAgJ2lWH/inWlfUSgiqhUwACilTtI0SzqZOVJhdulEJWnUBnBCbgVNIwdPRCOnqqHmloTWE0WoJx2wcfFAcRAgAJKqwWdQQ/JCTHQs1McDO6ZAEkx2jPKvffzRqivxCBCDN4Ktw4spWTdySnJWGTrXPIYQLSaiXlZ417UW+ueDPcExfEiT6BLr+5wy/RBbRQ5UGWGfcfq4FhVA5yqM4PFZAa3zRp5hVGD4AioNaAzGCAhwQBdk2OgX7ck6NXR/0H7/ZWN8O3PRcGNib0kT8Cii38pv3jNU5I3hEcDMIBoBXNiRsYmrd00nEfGKEoiBB66dQroNNwzlrcMLKrrTWA22cDtcAIwDolYLE813QolKDRq0Gg1YDRoIc6og6Q4PXRPMcLArvEhGf3yF2uAsZhCkoGdpUnApjFWrFy7doQ0tRdGawwgWnGdOmqkXck61cLgRqliJaBNSICHr0nnTb0jpyxQWWeCylor1DTYoNFiB7PZDnabDVinE4B8gZu38aJHEAWgVAGt0YJOrwKjQQcJsTroGKeHTkl66JZsAK1KKRiOP8sOQdm67YLJR8HiJeBSqBxLN5RrxKth+DXDAKIF89ys3HsN1up3w+8GHDHSBCZPGAmZA1PCqkZljRWO1Vqgqo4EGRZotDjA7nCC08mAy+kEl4sFlnGB28UAy7KgYF1h1S8cg5FzJxT5UipBqWr6UqtVoNWoQKdRgkGrAqNeDQlGLXRO0kOXJP9bDULr/cLHywBYRuhhUL4ICZh1SfcVFBe8J0LVIqISBhAtsE/IyCrU2RvGRcQTOGjECFA6Azx1c07Exg9kYJPNBfVmOzRaXZ6Aw2RzgNnmArPNCXabC2wuF7AMAy6XG1iGBYZlgXW7PQGI54tp+u52u8HNki8WwM0CsABAuQFYFijyb7I+QlEAFDlLTAEoFEApKHInAYCmQKFo+p3nfzQARX5WKECpJN9poEkzpQJoBe0JBGL0GtBrVRBnUEOcQQOJMSpIMGiBpqX3J2j+4i1Q+ffRQNyGbWVCwKqJXbNqbbE0/liEgbn0Xr0CQpk6dnSD0mmLEXAIFC1CAn0H9oGrJ/QVoWaokhgJbD5YDQv+WC9G1VAngQk4lNrG5evLYgUeRjLiMYA47aqsrIl94q1VeyXjOVSUFwJupQqemY3V2nmBKUMhZBFGQ7ZU1Eqoazx78+a1b0vAXl8vQ4vRJH8E7Inx/VesWLPbX7to+D0GEKe9PCEr9xGdtfrVaHA62niWQEqPrjD7giGe/0ArKEhJigW7wwUOpwvsTsbzHR/5EyCBglqlBA05g6FSegIGjVoJtOJsOpiq2sYzQcTCtX9Dxcad8geDFrYhYNUnPL+qqPBZROPZ3MSHEJiQlfWHztowA2lEDwGyx3/VRRnQv2ucx+gO8UZIjNW3AeB0kUCCAbuzObBo+u7GSxSSnCxNgQLdFDCQQEGlBJXS//VdMg8OHKv22Gy1M/DGVwUATryyK8lJEILSVm3s6lUlxbkhiJBNVwwgTrty0pj0oxqXubNsPIuG+CUQl9IR7r087Uy7vt2SgSIfRTk+rQMLh4sBhmGB/Hd8IkdASZPDnDSoaIUnMKBPfyc/k2AhlOdwVS1YbeQKLsD8P7ZC5cEjoYjDvhIk4FDqTy1fvy5ZgqrzrjL3v5a8Dy0ugdPThjOUm8H01eJyi6DazJgyCkb1bfo7QG4JdOrQtBLBx+NiWHC5GHCxTQFFc2BB/k2uZ7oYBlcwggBN4rum4ICG1oFCc9AQSBAYqApmqwOOnqzzdCOJxL7+pRgovNIZKEZJt2co2r1kYwW+VzTdz8InLzPvfL3t1J9IInoIGJOT4IErx5wxuEdqomc5O5wPCTI8gQW5dkkCDob1XK1svnrp+c6SK5inr2GSq5cy2zYh504UtAIUFOU5b0D+TVYMyJVQz8+e700/kwCBBA2RfvYfPeXxFXk+WlgBp44cj7RKOH6YCVi0HS7NL8n/LczDim44DCA85x/Gfa6z1t0sOu+gQoIRaJk4iiQt6p6SINhYfApuyunQFGSQYIP8uznQYE7/m0QZJNBwk/+dbk/iDk/uhzP/venfpD9JiNn0O9Kj6WfykE/y5A+E57snJwT5P/m56b+RN/3mn8+2a+7Xol2rQIAEDM3BAZ9swiWLJP06VdeUznrHkTr436JSoOQW2YULpkTHsWrjv1pVsuZGiarPm9oYQADApPSMCo3DNIw3qihI1AT0SUkw96qzqw+pSbEQazhbdVHUyqNyESdAVh/IKkTz895PG7HUd8S9El4F7Grj5hWla6O+ZhIGEAAwZeyYapXTmhjeKYijRYrAxNwRkD041TM8OVjXq3NSpFTBcSVKoLKmAepNNo/2G/adgsVLyiRqCaodDAGnSlezbN36qP/DgQEEAJw/eoRLwbj83+MKZqZhH1ERaF00KzHOAB3iIl9fQVSQUBm/BCw2BxypajpMSZ63fiwD86mzqxJ+BWADSRNgaSXzV9mm8B6aEiGxqA8g0tMnpSQ5Kk+I0DeokgAEsrOHwcThTbd1yf59r84dRHEwTwBTUaTABA5V1oLN3nSlc82OE7Bq1SaBR0TxYiJQrU5JLS1dUSkmncKtS9QHELlZudcbrNVfhRs8jhd+Atq4eHj42owzA8cZtZCSiGntw+8JeYxYZ7JCVU3jGWNe/64UbLW18jAOrfBLwKxLuqGguOBrvw1l3CDqA4iJmTkfaW21d8jYx2jaaQKZWUNh8oguZ3h07RgPeq0a+SCBoAiQw5R/H6/23Iohz4pNx6C4eHNQsrCT9AjYtAkfrywpvFN6mvOncdQHEFjCm7/JJGZJrc8+GHRq6JIcL2aVUTcJEGhZH4Oo+/p/S8FWh6sQEnBdyCpiaW9MJAVT0tMPqxzmriHPJhQgagLnTx4FY/qdzT6LVzdF7S7JKGe1O+Fw5dmAAW9kSMZ1ISvqVBuOLCst7RayIAkLiPoViKljxtQrXVbcCJfwJPanemKnTnDXpWevbEspcZQ/2/D3kSdw7FQ9mCz2M4p8vKgCTh7G7JSR94ywGriUuoal69fzl/9eWHUFkY4BxJhRJqXLjvf4BJleIhCqVMFNl2VCtw5nq2zi6oMI/CIjFVpf6axqsMLHP6wFynk2qJCRuWjKaQIupca8dP0GYzQDwQBiTJpV6XJgGkKZvgp69u8J108acMY6PPsgU0dH2KyWiaWIKj8W7IVd2/ZGWCscXq8RzxkAACAASURBVEgCLqXatnT9Rp2QY4hddtQHENNGj3TQjFMldkehfoEToHQGeOrmnHM64s2LwDliD/8E7A4XHKqsOafY2StfF4OzscF/Z2whSQIMrXIuKSuP6mtcUR9AYBZKSb52OSmdNnogXDC2x5m2pN4F2b7ABwkIQeBkrQlqGy1nRK+sOAZFRXitUwjWYpCJ2SjxFgZMTxvOUG4m8jWCxfCKkJEOra9tkqyT3VPCX7JbRkjRFD8EHC4GDp+oAVIVtfnBQlvynTZuimb/3FgR1SUQon4FYnraMJZys1HPQW4v89bXNhNi9JCcENXnneTmYlHaU11vBvLV/Ow5VgffLSwDinWJUl9UKngCbkrh/nPj5qj+8Bn1b5wzRg45+3Eh+LmEPUVEoFPPbnDbjMFnNFLSCuiWkuCpvIkPEhCSAMOyQGpkOJ3MmWH+u3I37Nu5X8hhUXaECCwu3xrV76FRbTyZcxhAROiVJ9CwtCEGnrgx+xzpSXEGIF/4IIFwECDnIMh5iJbPG9+vB2tNdTiGxzHCSAADiDDCFuNQ56cNYxW4hSFG1wSl08TcEZA9OPVMX7VKCd1TE0BBDkHggwTCQMDtdntWIcjNjOZnf2UjfLNgHVCupuqd+EifAEsp3H/hFob0HRmKBdNHDWcoFg9RhsJQLH1bb10QvVISYyDOGNVXtcXinqjSo95khcoWlTqJ8QvX/g0VG3dGFQc5G+tW0OyfG/AQpZx97Ne2aaNHOmnGqfTbEBuImkB7Wxc6rQq6dUwQtd6onHwJHKmqA5KlsuXz3i/lUH+iUr5GR5FlDK1yLSkrj+ocQlG/rjt11Ei7knVGdTIQObzmW29dEJs6J8eBUaeRg3logwQJmKx2OHay/hzNa80O+PCHEnDbrBK0CFVuScClUDmWbiiP6j8wGECMGWVRuuy4xi3hvw3tbV3EGbWQkohJoyTsVlmo3jrFNTFq+aajUFK8RRb2RbMRLqXGunT9hrNFdqIQRtQHEJPHjG5Qu2wxUeh7WZjc3taFSkVD1+R4vLYpCw9L2wgXwwLZynA4z80D8cnvW6Dq0FFpGxfl2juU2sbl68ui+lNK1AcQU8aOrlI5bclR/lqQpvm0EmZMHgGj+nQ4R3+stilNd8pV6/a2Moitr3xdBM7GRrmaLXu7nCrtyWXryjrK3lAfBkZ9ADExI2OT1m4aHs2TQKq2jxo9EGa0qHVB7MCtC6l6U956n6ozQU3D2ToZxNq9Jxrgu0VlAM5zD1rKm4R8rLNpjBUr164dIR+LArcEA4jMcf/T2uquCBwd9ogkge59e8KNU86W6Sa6kK0LcuuCZJ7EBwmIiQDJDXG4qg5s9nPzQKzYdAyKi7Hglph8xVUXmzb+p5Ula67k2l6O7aI+gMjNzH3aYKt+Xo7OlatN8Z1S4J5LR7Yxr1OHWIjRa+VqNtolcQLkSic5D9H6wVTX0nSsWZv0TEFJwQvS1J4fraM+gMjJyZkUY6pdzg9OlCI0AXVcPDx6bUabYeJjdNAxAc/CCs0f5YdGoHWxrWZp7/9aDnXHMT9EaHTD27vRmDC5sLBwRXhHFddoUR9AEHdgPQxxTUqv2mh0cNPM0dCtw7l1LUi66m4p8UArgtu6qKwzw+6jtbDraA3UmexQb3FAvdkG9WYH1Jntnp9JxbVYvQbi9BqI1aubvgzk32roEKOF1DgtAOsCk8UOpKyz08V4Tt57fnYy4GLZc8zSa9WQHG+ExFg9dIgzemp1YL0ObvPwVL0ZaurNcLLOBJ66E3WmNgmblAqFZ0tLraSBzA9SSI38bNRrgAEaKhtsUHPa1w1mOzRYHJ6vegv52Q7kD2OcQQvxxMcGtedn4ut4owYGdesAfTvHQ3JccDf4jp6sA7O17bkHPFTJzf9iaRXtdTCIHzCAAIBpo0c6aMYZ1RnFxPKi9KaHW0HDlNxhkDkwpU2TQBJGkTeHjfuqPAHDnmO1nu8kgODjUSspiFErIEZDgUGlAKOaAloR2EssMc4AKQkxnuqh5KtHamLUJsMitxf+Pl4DR6pq4dCJGqgiBxFblMrm4jOGdYPJ4YZGO+v5bnKw4GD4KcDbKcEAg7onQZ9O8XBepwQY0TvZE2T6e0iNDGIT0a3lg4cq/ZETz+8ZWuVcUlYe9QkIA/vrJh7/8arJ5LFjT6idlrbvTLyOgsJCITBy9EC4sNWNCyIvIUYPyQlGn6JJ0FC88zis3XHU8538OxwPqR6eqKUhUU9DglYBwdbzGtgzFS4ZP9yvneGwKRxjkORLCwu3wI6/TwQ1nNsNUGtjocbCQI2NAdfZytpByePaiQQPWQM6QcbALp7vvoKJOpMVqlrVyiDj4KFKrrQj286h0lcuX7fubNW+yKoTsdExgACACRnZa3T2+nNrQEfMJThwawJDRvSHS7N6tQGjUSuha0fvWxd/bfw77EGDN+/pVBQkeIIJBcRqAt9q0WnUcM+VuUByXMj5IYcMP/x5NdgdgVetbLCToIGFWhsDVic/qwzBsm4ZTJyf1rNdMSeqG6DBbGvzu58K98KOLXuDHRr7hYGAVRNXtGpt0bgwDCXqITCAIAFEZs5bOlvtA6L2VJQqN3DoeXBFznntWu9t62Lx+v3wc/Ee2HbolCipGTUKSDHQkGKkA9IvrX83uO78sQH1kVrjzxaVwLb9xwJSu8rMwAkTAyb7uedMAhIiYOPB3TvA5Vl9YcaY3ueMQs7JHDlZ5zkj0/r5cukOOLT3oIBaoehQCFi1CW+vKil8MBQZcuiLAQQAjM+aONVorVoiB4fKyYa+A/vA1RP6tmtSx8QYiG9Vpnt5xUH4pWgPbNwnjdPsMRoFpMYoIVnPbUWC2PvMrTPk5OI2tjz1yaI2ByK9GVxrZeFYgwvqRRo4tNY7rU8KXJbdFyYP73HmV96yVJIG8xZWQPWR47L2t1SNM+k6TltdvHKpVPXnS28MIE6TnD5yqJvynLXHRwwEOvfuBreeP7hdVchBww5xZ29iFG47Ar8U74WSndKsLRCnVUAno9KzveHrIXY/ddP5YnCPYDo8/9liIOcDfD1kq+J4IwPVljAdbuDZ2swBXeCyrPMgZ3BXj2RvVzvJ797+sQxMp8S5ksYzFsmIcwMFf5ZvwfdOvIVxds5Oy8py0tYGpWRmsYwVjUlOhvuvHNWuhS3zPZBCRZ/8VQFfr9wuCxokgOgRpwSdqv1AIndkX5g5fpgsbPVmxK8FFVC4qf39f3J74lC9C6pM0gwcWtt8/cRBcPv5wz2ZU4+fqodGL4d7X/92Ldjq2yagkvVEELFxjC7WtaS4GG/tYQDRNEu/2G6+4IfHb/udOoQldiP9ulUaY+DxG9o/z0pyJ5BDk+TZdKAKPv6jwvM91EepADCoKCDv2+TmhEpBAU25Qa2gQKmgQEU3rUw5GQpcrBscrBsYNwVO1u054e9yU2B1Adhdoe/Bq2kKesQrIdlw7vkIcnjy3ivzQKuR998tq90J7/ywCk7WnltkqsbKwsE6F1idoTNWKSkwKClQUu6g/E1UsDjB4/9QnxG9OsIdFwyHId07tFu1s1n+K18Xg7OxIdThsD8PBNzdh8JV//r0wpsGGf7gQZykReAyDAA8V+44Wf79vA6OpZ9K2plSV14TlwCPXJverhkkn0LPzkmeZFFkxYGsPJAViGAfEizEasjNCJK7gfvLgKYV0CM1AXp2SoLuKYmeRFCxhqb02TsO10DJzuNQvOs4nKz3vQzvT+9h3eJhUGcDJMXo4bxuyTB6QPeoKU9Okm+t334Q9h45CeSMwK5KK6zbF9oyfqJRC6PO6wg5g7vA8J5N1VvJDQhS4Orv49Vw8EQNHKqsBSaAOWV2uKHO7oZauxvaOQfpz8Vnfk9WIMhKxOVZ57Wb6rq5Ia5EcEYqaEPVpJsh7dp7Tj07Uh31VZy5/+UU1CWRE/7BVsvCCrPuIldtJVQ+PjlyikT5yHEdO8K9V6R5pdCjUyK4GDe8+MNaWLX5UFC0NDQFMRqAWDUFcRruU79zhzgY3LuTJ2jokhzHaeyKA6dgw74qKNtTCUdrTJz6tG5EkhTNmTECRveNzuvm2w9Vw7zFm6BsT3D5IFLjDTCyTzKM6tMRxvTllublcGUd/H2iGrbuOwaV7eRp8ObIBrsbGhxuaLAD2INMVJU3tBvcOX0Y2O3eq3PO/2MrVB48EtR8wk78EEh+cQmoO3SG4QbroruH6C/mR6o0pXD/KypN+3xq/Z9d5kuK6/S/Njc6/NgUUNQF98dKhnjCZlJKj64w+4IhXscjGRnrLA548fsS2LA38BsWsWqADnpFQEFDnFEHw8/rAiP6doXEIFMWNxu0fk8lLN7wtycDZjDPU1dnwoWtrgAGI0dKfQq2HIbnvisBS6vqlVxsSOvTEWaM6sk5aPAmk6TILt99BLbsOwaN7eRr8Nav3u6GUxYWGoKo0t07JQ7uu3gkJOi9b1X9UrQftlXs5oIC2/BMgDV2gG5vrDojNSvecunN/Q2/8TyMZMRFdQBBti6OOFRN65kAcOKzx4FZ/7tknCd1Rd0UBQMH94Erx7ef54HYR7JMVtZbYfYHy8AR4DoxSSXdQU9BAofVBoWCAoqiYEjvzpA9rDf069YRKAUFCupsOmqSeph1u8FNzkCwrOdn9vTPLhf5t+8tlaKdx4Ekt9p8IPDl+HsuGgnX5g2Suss56U9u0zzw73xObVs2GtarA5CkTdkDOvnsq6AUoFQqPNthxO9NPlb49Pf2A8dhdcVe2HP4JJDS3MTv/h6ytXHK0pRKO5CHbGk8cukoGNCl6bxPe89fZUdg/bqtgYjFtnwQGJwHXe55/4ykrmpnVG9lRG0A8f4W88+bLfrLWs6pxvKV0PDJfXxMM5Thh4BbqYasMf1h8sguXluSswU7j9XDY1+sDoinUQWQpFdAotb39CZvGjRNgUalhNEDe8DEUf2gQ7zvtNi+FCF79ySDIql1QAIMb0/+1qPw54YDsPNIbUB23TZtKNw2Vd63MEgOjznzAiuOO6BrAkwf1QvyhnifSyRoUKtozyFU4u9gH3JbYuWG3VC+67DnDA7xM/ki6bO9PTU2N1STQCLA7Jj/N3UI5Az0Hgyt3noC8tdsAYqVx62UYH0Szn7GW16BuLEXnDPkML3ll3uGGi4Ppx5iGSsqA4jPdzTmrmsw5DPt1BI7/EA2KKx42lnICaqOi4MLxvWHIT0SvQ6j06pg5dZj8NEfmzirkhyrBR3YIUnX/jVIUotCQYIGcsvidOXO7GF9YFrGQN4LVtlJJU6ny2cwsWzTIVi07gAcPMl9vsk5iNh28BTc+h73fG49OsbCRWN6wZQR3dudI8THpBInCRhI2nM+H5KrYnHxNijb0ZQt0rMidXo1ylswUW1lwU5pPStqXJ+bJg6CiUO9B0Yb9pyEP/K3AuUMT30XrnrLsR2rNUK3d0ramEaDG8bGmvNuGRhTIEe7fdkUlQHEyxX2wwds6qYsLq2ew6/fBIp9G6JtHoTN3s69usGt09tPENWsBAketh6ug+f+W8xZr6HdEwFs9aBsZ0aTZWqyLNyy3Hefrslw5cSR0DEhhvMYwTYkKxIWu8MTULR+Kuss8MEfFbD5b+7bGnIMIioOnITbP+Ce2C97YGe4dcpgSIppugHT8iFBg16j5j1oaPfvRVUt/LSiHA5XnV1NIsEEWZ1ob5uDXAG1K42w53g95+n08nVZ0DXp3BL2LTsfqDTBz6t2gLWmmrNMbBg4AXfvNOj6yJftduyldRx5YrimW+BSpd0j6gKIj7aZ52006e/05raaFf8F6//+JW2vilB7t0oDOen9YMIw75+miNokeDjZ6AhoGXvayO5QdaxtFkqyt928130mONGo4arJaTDsPN96CIGQBBJmmwOcrraBxBu/bYTCbdwzaX714Azo1yWBFzWP15hhx5FqOFZtghO1JjhabYbjtSY4VmOCWJ0GuibFQJcORuiUaIDUBCOkxut5vRly6GQDzHplEWdbrsjuB9fn9W/TXqVUgkEbnsCh9eDrth+En1aVg6tF6U9PIOE5G3Pu/gYJZsGQCORwLdfn/dl5EKfznQPk25W7YN+ug0D5OYvDdUxsdy4B3ZWPQ+Kkf3jFkma0fHTnYMOcaOIWVQHEj9vqE9daDFWNLO2zihFuY/D7EjAmJ8HN04dDvFHtUzAJHihaCbPfXwY1jdyWeWdPHQzbdu0/p36CJ3AgKw7kD3WLJyUxFv5vZrYnd0MkH5vd6QkkXMy5e9efLtsGi9bt56zaypdngT6ExFLFO47BioqDsKLiENgcbYMaX4oM750MU0f2hGlpvcCoDS251YQnfgCrndv49104AiYOP/eDnpKmPYFDpJNskfMR/15Q1CYVN8kt4VmRaBFIGHQaMCQkw5JybgWzuifHwovXZQL4OFtD/LX1UA0syt8BLtO5ibg4Typs2C4BVhcL3d4u8kknRsEwGXpzx1mD42qiBWNUBRBvbrZt3GnVjPTn3KPvzQHYXuivGf6eA4F+g86Dq/K837JoFkGyTJICWffPX8n5uuOrN+XAngNHYMPOprwQ5IwDeTPxfMJr9QzsmQo3zEgP6QAdB3MDakKyLpJAgmkRSKzedhTe/G0jJzmThneHl27I4dS2uZHNycBPa3Z7Aocdh0Nf8k5N0MO0kb1gSlpPOK+T91sD3pSc/f4Szts3xN8tbybQpwMHXQhBVEDwODS22Bww/7ciOFTZ9j2EBBEkaGyOI8YO6gHGuHjO/s4a2BkevWw01PupFULU/Pyv7XB0f3D5UjiYGX1NBuVAl3vn+bV7gM5ePneY1ntCG78SpNUgagKIT7c13l5qMn7MxT0NZUuh8dO5XJpiGz8Enp7jv/iTUa8Bkqzp3QUb4LvVOzkx/ebBaRCjU8Pr3yz3vAmTg5EqJe25itn6GTWgO1w7bQwnueFuRJa56022c7Y1SBbL2z7gdhNh9vnD4JYpQzmpvfNINbzz20Ze0n+3N2CgZzNe+2kd/FKyh5Puzf5ubqxRqyBGrznnXAsnQWFqNP+3NbDzYNstCnIFlFxHJqsR5JbRg9dM9GQt5ervWTkDYPa0IXDspP8zFOSA5eJleJ6LD5fH3PYmxI6eyklUutF0x22DYz7h1FjijaImgPjnJmfNUbuS86bxoUcnAV0fXOIfic+JkNVnNEZQJ6VAtw4GuH5cZ5/yEmL0nlwPRTuOwtxPud39//TuyZAcp/PI/ddXSz3ph0nw0N5zXtdkmHP5+JBtailAmdAVlHGdoNLkhrUVu2Hb7v1w+OgxqKtvuk0RHxcL3bp0hsH9ekPG8H6QYqTAVX8cXLXeMwiSU/3kCmjz02h1wHVvcbuR8M9rsz35D3w95NpoIIdSgwVGSla/evN4T3Dn6yGBAwkguDwt/U3ak+V/o07jtasQ/uGiZ8s25BbOhz8VeE1NTQ7UajVqePjaSZ5ugfj75RvHe3JdHKmqBZKbxNfz86Za2LnvOLhOHgMFy22bKFBb5d6eiesI3V9dwdnMLhpX7T9HqLxfMeMsSfwNoyKA+HCL5etNFt11gbgDk0oFQguAUevAkNoVhvfvBJP6GYHmcJCLBA4kgCD5E2599y/Yc8x/xcG5l6TB+MFnD0D+ml8Buw+3H+iRnA5zr5nEy2l8depAUKf0BVWH3nDsRBV89913UFDA7dZWbm4uXHPNNdA5tSM4T+0HR+UecJzY0QZwo8V2zlmOnUfr4NEv/G+lde1ghC8emOH1LMLDnxcAKXkezue1m3Nh/JB2LzrB8Vqzx981jTa/KrX2d5xB1+5Zh3D4x6+yrRqQ7Yy3v18F1fXtpzIn22oX55xdPeLq754psfDVAzM8W3Yk3TYZx99zvN4Oizceh6N/HwMKr6n7w3XO7+kxF0LqrYEdrB+ht35z11D99QENJMHGsg8gvtrb2HFjnf64mTl98Z+jk2yHd8PJV68Ghevsp0KOXaOqGaNUQ0L3XvB/MwaBnuV28FGloiE53njmU+R7CzfCfwvavqG2BnnR2N5w25SzV0ATYg1QVdMIH/68+pxP76Qf+YR6/9UTQzowqdAYQdN9JGi7DgdK1bTisWTJEpg3bx6wfg6ztdad5J+YM2cOTJs2zfMrt9MKtiMVYD9UDqz97BsMOWBZbz7LcWXFYXj3d/+5MK4c1x/mXjq6zdwb/9j3AWfw5GsCP3jJKCBL7q2fdxdugO8K/G9VtedvdYuVpkj4J1A21fVmePv7lW3e5MmZn7uvyIV4oy4of1+a2RcevWKsZyuEvAZIYTCuz+8bK2HLrqPgqsUVVn/MWKUKkh/9HrTd+vlres7vDTTLpsVbOt1wXoysIcs+gHhzs3X9Tqu27V9WDtPh6DuzAXa2TRzCoavsmzQHDpdndIau8d6Xk1uDIPu+SXGGM1sOa3ceh/v/vdIvL1JF8aFLzp5NSk6I8aQgJg/5I718/U7Ytv846LRqGNAjBSaN7n+mSqZf4a0aUAolaPtkgq5Xxjm/+fHHH+Hrr78OVNw57a+//nqYNWvWOf/NemAt2PaVgPv0EjM5F3Gq7mxQ8XX+LvipyH/tg28euuCcg4xXvfo7HKzyv1cekkF+On927zQY3ONMtnjYebgGbnrnT79D+vJ3pP3jV/lWDcj2FJmfuw5WeQJdUpht8pgBntcBeYL195u35UH2wKbVOPIaIF+BPBWH6mHFlkowHzxAQtpAukZP2wGZ0OX++UHZO0BnK5s7TCfOw1dBWdS2k6wDiM+3NV5RYjL+L1hWln3lUPPmzZgqtgVAu5uCOpUeQNFUDjmUJ8GgAaNeDYdP+r5yNqxnB3jh2swzQ5GtiZZJoULRoXVfshSu75cLCu25CabIysMHH3zAy1B33333mZWIZoGsrREsuwvObG2QT5Yna89yee2XDVC045jP8Uf06ggf3z3F0+aBf6+Ckp2+27cUZtCoYFD3REjrnQL9usRDvEEN8QYt2F0M1JsdUG+xw6b9VVC88zgc8uOv1kp+89AMOK9T0/Gjx78s9FtN1Ze/xeIfXiZCCyHB+JtsXVnsLk5bQb70JYeYKbsDYoABgwIDiWZWbgUNiXP/A/o+fi/uecWbaTRdecvgmJ/4ni9ikSfrAOKlctvRvx0a36f4/HjiyGs3A7W/TCz+iqge1SwFNUz7aaKFUqxHciw8OWsMpMQ35W7wtgfOx/iGQVNB03V4G1FHjx71bD8Eum3hTSeynUG2Qbp0aZvMyn6kAszbmzIykrMhtQ1NnyqrG23w3PelcLDKd9rr12/JhZIdxzjfbkiI0cC0ET1g2siekEhqnXN41u2phJ+L98LOI9yuu4/snQJPXpUB+ytr4ZHPfdc18eVvsfmHA6qAmgTj74AG4NA4kWYhCYMIDyl379HQ9ZH/cKDmvUlPtf3YkyO14c9aF5LW3DvLNoCYv8383HqT/hnuKNpvadq6Buo+nAOUr2o5oQ4igf5mloJjYQ4eCJa7Lxh+ptYB2TeO0bdNXRwqPoU+HoxDLgBlfPux5htvvMH5wCRXXcjByoceeqjd5q66Y2Da+gewljpoeSaC1M4gaa99PTqNknNSJnJz46px/TgHDq3H/aVkH3xbsNOTJMnfQ8Y6UNUAu/wEHe35W8z+8Wd3oL8P1N+ByufSvruSBQ0V3SsRpFJw/F3zwDhkHBdkPtuMMVqenz3Y8GzIgkQoQLYBxFPlzsZKhzL40ootnHXkX9cCdXCzCN0XPpVOKvVQZw1vwR5SZfHVG5tewOTePzlwxvejjEsF4/BL2mxZNI9DVh/uuOMOvof1yPv444/bXYUgvyNbGqaK38BVfwJMVjuYT7N/9Ms1AVfxbE/5q3P6wTXj26aDDtTQsr1V8MHiTVDbGPrcaM/fUvBPoMz8tRfC3/7GbPn7xNg4SLJyW10KRK6U2rp7DIOuj3/Li8opapfpxZEq4Yvu8KJtYEJkGUDM22r+stysvyEwFN5bN25cAQ3z7+dLnPTkxHeEBqcFKuu43bLgy8AHZqZ5SjSTGgdCpJ8mb04xaVecuWHRnt58HJz0xqO9A5Ut25KbGo0bf/IEEc15Ikgp8LcXcMtU6W3c1rcbSDuSgIvk0iCVK8l3UoCMHFIln0NJUSiyR09yF5CU1y0zZzaP8dhXRbDjcGhvOq39LSX/8DXnm+Xw6e9AdesQq4MEpQqgMbBy84GOI+b2sbPfgZi0phwdfDwjDZav5gwx3MiHLDHJkGUAMbfM5WxgaF7r9x55/Wag9kXfWQhWqYFZF42Fz5eWhzWAGNarA7zwj0wg6YoTYnS8H5oky+Kxo6/2uvLQ/CJ9+umnYdMm/9cog3lRjxgxAl544QWfXclKREPZ9+A01UBto9Xz5v30f0tg8wHu1TtbDnBZZh+4ceKgM/9JQSk8BczI9lDzrRZ/tpCiYORTcutaHiSbIsmqGMzT2t8qY6Kk/EO2m/h8yM0MPvwdjE4kgPjndTnw7r9JIjP/21PBjCHmPu4+o6Hrw6GdfWhtXyzNuN4cTaIyeT2yCyDe22L+a4tF33TZnsfHsm8z1Lx1E1BMdOWFGDBqKFyZ3gVIoafV27mf6g8V/SOXj/Zk24s16ECIWgexY6/1euahpe433ngj1NSE9snaG4vExET48sv2ywO37EPORDSs+xZI7YwGsxWKdh6H134OPJidNKwb3HvRiDOidRo1kBP4XAOH1naYrQ4wWc/exNlysBqe+oZ7CfaW8lr7W4r+CXXOt+4fqr+D1Ye87m6fNgT+3HIKygoDn2fBjiuGfm5aBYkPfgH6PsN4V2eo3rLk3qEG/7n9eR9ZOIGyCiA+31LdbaMt4aCdbacgAg8Mj354L8CWVTxIkoYIfWpXmHvZEI+y5ErgR0u2hUXxtD4d4dmr0z2FsZrvyvM5sLfT/O2NMXPmTN5uX7SWT25jLFiwgJNpzbczyF1/8smf3MjYuI97jpqOcXp46bos6BjfdI7EXzpoTkoBAEnZ3GCyAXs637CkDgAAIABJREFU8+j8JVvhjzKSV4D709rfUvYPd6u5tQzW39ykt9/qsUvTYFD3JM8v3/9zD9Qd2BeKOGn1HToButz1niA6axRud5q2tsctQ5MOCzJABITKKoB4a7OlaIdVlyUUR2fNCTj+3Eyg7RahhhCNXHIHetaFY2FA1ziPTmabHf4qPwwL1gX25hCMQU/NGgtj+qYIcmWT5BEwDruQs1piCSCIwqbNv0PDwc2ezIXr91TCiz9yqyVB+t4+bRjMGN3DY7cQt1lqGiyegmDHay3w0H8KwWT1n1652Qkt/R3bY5ik/dNeinLOk62dhs23MgL1d7BjzhjVHaYN7+ZJMU8ecgbmuc8LgbYFlqQq2PEj2Y/R6KHTswtAlZgqmBoDddbiB4fpswUbIMyCZRNAfLvbNGJ1naHcT22ZkPGe+M/TwJT+FrIcsQtI7N0XnrxyCKhVSs8bToPJ6smYt/d4PSwuOwBkubqqnv9AqkuiEebdOUGQg5Mkg2HcuNv8nnto6RsxbGE060POQ9Sv+RSq6xo8b9a3f7gSTtT5/8Mep1fD+7dPAPJdiOChWT+SPZPMke9W74LvC/1nziT9Wvo7KT5WFv5pzijK12u8OTjj6u9Ax+2UoIdhPZM9QTv5IodmSUZXUmPD6WJg3tJ9cGy7/1TzgY4rtvZ0+iWQerPvM0mh6qygAMbHm0de288ozMGqUBUMsL9sAog3N9s27LRqwlKH/dAjk4FuaFuqN0D2om3uBgU8OuciGNq9afWBPCTrpNXO/VOlN+NmvrTIp90z0/vALZMHQbxRz0sRrJaD6frmtElP7c8JkT5E2Vo/kva6btsqqDNZ4OO/tsCfG/72ZwLMGN0Tbp82FLRqFcQJcBW2WYHmREjkaucLP5T61Ys0aOnv+METZOEf6x7/BdA4wTndiBxa5ervBU9eFIjodtu2nidHa23w6Fu/AuWU7/kvV2wy9HjNf0r9kOECwACdfePcYdpRfMiKtAxZBBDf7LFkFNTowla0oq54IZi+ehoomZ5Q1qV0hvkPTD5nbjb/EQtlwpburoSX/+d72f35f2TCmH6pZ5ZQQxmvZV9SeCk+986AxUXyGqc3ZesKPoLqU1VQtP0op22Mey8cAVNH9oCEWD3vt1la60gCzUaLHWa99offUtOkb7O/kzp0lJV/WhZIC3jStdOhttHCyd/k5hK50RLKkxh7tlZNs5y7PiqEBk/NDPk9JGmU8eqnIT73yrAZl5tozbyur35t2AYUaCBZBBBvbLZt2mXVtM1BLBA0IvbYp4+Cu2yxgCNETnTulHFw26TebRRomeAmGO3eW7QJVmz2fn4oOU4Hn949WTSrD8TGSCWS8sW35SrEze8ugxqT75okb9ycA2nnpXq2L4R+SFbKmgYzPPl1kWeby9fT0t/BrD6I2T9CrUL48/cV2X3h+ry2FVC5+t3b4dovVx+C5YvzuYqRVrvBedDlnvfDqnN/nb3ioWHas1eiwjo6f4NJPoAI9+pDS/SHnrwQ6OqD/HlDBJJYpRq+fukfoDh9qr61SmRPtHlvlOx3B/LcO78ADp70Xsth5tje8H/ThgIplsX3kzDhbp8Jo3yNF+5U1v5sJwmmald94KnY+e6iciAprn09Pz56AXRNjgv6uqY/fVr/ngSar/+8HpaU+35ttPS3HP0TKDd/7bn4u1/nBHj95sDSL5PCdOSsE0kiplG3nz6HpRRwwxPfyu4aO5PYGbq/TPJdhP+RwyqE5AOINzfbNu60aoIvlxbCvGko+R3qv3kWFEzoZwNCUIPXrooOXeDLh/jLwNZSuYy5vlPDvnJDNozqm8p7vYtAb160BhrOYlpcnUluZJzaVw5rdx2DZ771vXv37UPToU+nRK6iQ25HrnZ+uXwrfL7c97XfZn8n9R4Z0M0LqfiH7xsZZHuIi7/XvnltyD5sT8BNb64E5uQRQWRHQqhbqQLDrCchYfzlkRienIUonztMG5Zze0IZKOkAgty8yK81lAsFh4vc4589Buz6P7g0lUSbziPS4NWrm3I/8PmU76+EOz9c7lUkKe39xf1TIT5G7/kkxOdjHH4xqFNCq/sgdDnvQO11VO6C6vW/eA7XXf/2EmiweA9i37w1F7IHdQ10iKDbu91uWLx+n8+DlC39nTT6Mln6x1SxMGiG7XVsPofkz99fPHA+DOjalMeBz2fuV5ugart8agJRo2dA59te5RNRwLLyEqR9I0PSAcRbm60lO6zajIC9xlMH87ZiqPn3XFDYTDxJjLyYqZdfCNeP4f/T6ncFO+Ddhd5rOJDrY89enSHM9sWk+4GiQ88iy8eBSn/1L7jOADfjhNoV78DJWhM8/8NaT14Ib8/cS0fDleNCC6C46tXc7o91e30GEC39nSBj/wTKzV97Lv6+f+YouHp88OcgvOnw/vJDsG65fM5BsCodxN/4EsSMnuIPu2C/H6izrX1wmC5TsAEEFizZAIJknSyzJhxyuiNjgid4+PheUDhDr0IosI8DEn/9LZfA1H6xAfXh0pgEDySI8PZMHdEDHr58NO/bF8qErhA75houKnJqQ1Yi5s2bF3B2SpJ1cs6cOTBtGn9Z1hvWfwfVh/fAm79ugKWbvJ83IG8m5E0lnM9/87fDe4u8Lw42+zuhy3my9o+rlt8l/3qT1a+/r8kdCPddzP/K+O9ba+CHb34P5zQSfKxIb2OoKDeM1tV2l2p2ysi8+/IwLd7dbF621ao/964hD3K5iCDBQ+2Hc4BiGS7NJdXmsQdmweAULe86v/h9Cfy+fr9XubPG9YO7L0oDtZLmdWxtzzGg75fHq0xyJuK7776DgoICTnJzc3Phmmuu8Vq6m5OQdhpZdudD/Z4S+PD3cvhxjffETRn9O8E7sycGO0xQ/eYtLoevVmz36+/Y8zJk7R/b3+uD4uetEzlf4s/fF47pDU9dzf+H2vIjFnjrg594tUcMwiJxjbOl3UN0luX3DTNEbhkkBCdINoC4f72LMbO0IgTbg+pKgoe6928Pqq8UOn34z+sgVss/1oc+y4c12496RXDH+cPgpilDeUdkGDIDNJ0H8y6XCCSBRFFREWzZsgUOHToEdXVNFRnj4+Ohe/fuMHToUMjOzuY9cGg2xn5sG5i3LoYvlm2Bj//yvjc9sFsS/Of+8Nbw+dePpbCgdK9ff0eDf/iefP78PW5QF3jjVn6DZmJDrYWBe5/3fRCab1vDKc9wzTNhzQXRbJtBwbDvjOH5k1OYwEkygJi31fJduVl3dZgYnRlG7sEDMfTrV24QBOvs95fC5r9PepX95JVj4aKMvryPzbWqI+8Dh0Fgc5XORWv3wEs+EnT1TImF7x8JPUNhICY99Hk+rNnmPWBs9nc0+CcQblza+vM3SUs9/56pXEQF3Ob6x74KuI+UOkQqiBhpsH4/Z4iev73WMEGXZADx2Aantdql5H+d3Qd00+bVUD/vrjC5JXLDCBVAXPPq73Cgqt6rYW/fmgeZg7rwbnj8+DsCqn3BuwICCiS1MepWfwwl24/CA595P9zWMU4HC5+5TEBN2oq+7b2/YKuPRFLN/o4G//AN3p+/e3WMg+8e5V4wLhD95B5AEBaRCCKSlC7bK6NUTaVyJfRILoCYv93yyvpG3aPhZFxX+AuYv302nENGbCyhAogZz/7sM2Pilw9Mh/5d+b/9wdcJ/4g5xMfAzTcxdh2pgRvf/tNryxidGpa9GL40vUSRy15aAMdqvN9OavZ3NPiH77njz9+JRi0sfk6Y3AbREEBEKogYE2N9dfYg/WN8zxch5UkugHiu3HHyiEMVWrL3AIjaj+6BUy+E99NbAOrx3lSoAGL8o9+Bw+U9c+XiZy+FxNimEsJ8PolTH+ZTnOhk1Sx9HUi1xhnP/epVNxWtgMLXwrs6mvf4D2BzuLzq1OzvaPAP35PGn7/VSgWsflUYf0dLAEF8lvKv5aBMSOHbfV7ldVU7q58dqQ7bexsfhkkqgPh8h+nGkgbDF3wYzlXG4TkjQCHD2xbe7BcqgMh55DtwMt4DiD//eRkkxPC/ghcNb1C1jVaY/s9fRBVAcPV3NPiH698aru0i6e9oCiAYpQa6f1DG1S28tMuMNd90y0Djl7wIC4MQSQUQr1XYduyxafjPkOIF9KGHcoE21YTBDeIZQqgAYspTP0Kj1Xs54O8evhB6pZ4tH84XkWhYIj9woh6ued37/fwYnQqWvTiLL6Sc5Ex9+n8+s2M2+zsa/MMJWACNIunvaAogiEvY1D7Q7Z+/BeCd0Jr21dp3PjJcOzA0KeHrLZkA4tvt9X0LGmN3u8PE5vCLs0BxxHviozCpEfZhhAogLn7+V6iqt3i1Z96dkyHtPP6XC6PhkN7GvZUw5yPvacI7xulh4TOXhnUucfV3NPiHb/CR9He0BRDEd3T6JZB68wt8u7FdeeQNOTemod+1g+L2hGXAEAeRTADx/hbrH5st2hkh2sup+/FPHwO2TD71LTgZfbqRUAHE1a8ugr+rvFfifOn6cTBpRI9AVOXUNhquCa7YdBCe/HqNVx49O8bC94+G9xonV39Hg384TdQAGkXS39EYQBDXaC68BzpcODsALwXfdJjetvieoboLgpcQvp6SCSAeKXPaaxmlWmg01Uu+BNuvbwg9jGjlCxVA3PjWYth1tNar3ULVaxAyUVGkndicSOp/a3bBm79636vt3yUBvnwwLLH3GSRc/R0N/uF7nkTS39EaQBAfxt72VljqZiTQLsdro1UavueNEPIkEUDM32Z+br1J/4wQAFrKtP69FareuhWUDu9L7ULrEGn5QgUQcz9dBUU7jnk178bJg+HO6SN4N1+IVNa8KxmkQJLKmqRK/ujPTfClj9LZ2QM7w5u3TQhylOC6cfV3NPgnOILee0XS39EcQLgM8ZD68NegSe3Jt0vbyBtjtDw/e7BB9LkDJBFAvLjJduSgXcN/lqFWbjv05IVAV3svSiT4rBHBAEIFEG//th5+KPRer+GisX3gyav4L6zKdzEtEbjojAqkmBYp1vTSD2th0bp9XlW7KqcfPHDJmLCqztXf0eAfvsFH0t/RHEAQP7LJPaHbC4v4dmkbeT009qNPjdB2FXygEAcQfQDx1W5LemGtbm2Idvrtfnz+I8Bu9J6Mx68AmTQQKoD435qdniqC3p6sgZ3hLYE+JcvxpH9zEinC88FPV0Gxj9WduZeOgivHhe3yksfFgfhb7v7h+09DJP0d7QEE8aUibTp0mv0a325tIy8nwZpxQz99qeADhTCA6AOIcFTdrCv6FUzfPAuUO1x3PELwmMBdhQog1u06CvfO955uOcGohT8Fyp5nHH4xqFP6C0wuvOIdlbvAVLHQM+i0Z/4H9WaHVwXem50HY/sLvoB3zviB+Fvu/uF7ZkTS3xhAAHiqd173HMRnC3uzSQpVOkUfQAh9eNLNuODw41OBbvBe6InvPwBilidUAFFZa4KZLy7wafond02F4b2TecejTh0IxmHC1AbgXVmOAk2bfwfHiR2wfs8JuOfjFT57LXhqJqQkGDlK5qdZIP6Ws3/4oXlWSqT9jQFEky+Y2GTo9q+lQNFKvl18Rp4UDlOKOoCYv9X06Hqz4RXBPAQAR976P6B2C75DIqQJvMoWKoAwWe1w10crYddR74m5rhk/AO6bOYpXe5qFJUy4Gyjp1appl4XbaYXaVR94fvfyj6Ww0EfZ7D6pcfDJ3VPAqAvvoe5A/S1X//A9mSPtbwwgznrU3S8Duj74b75dfI68MQbzY7OHGF8VdJAQhIs6gHhlk23PPrvmvBDs89n11J+fgn3Bu0KJl6RcoQIIm90J/16yGb4t2OmVS2qCAX576hJBuOn65oCuF/+HNAVR1o9Q64G1YN1T6Gl10fO/wkkfCbouy+wD9140CrQaVVhVDdTfcvUP39Aj7W8MIM71qGbmfdBh+m18u/mMvD4a+97HRmj7CjZAiIJFG0D8uK0+caUpppoBYVR0njoMx1+4Cmh7Y4gI5dVdqADC6WKgcOsheOLrYp/APrhjEozum8o7VIXGCPG5d/IuNxIC6wo+AtZugsJtR+Dhzwt8qvDPazJg0oieoFLSYVU1UH/L0T98AxeDvzGAONerjCYGOj39A6g6dOPb3R55NLhhorExadbgOFHWVBDm3ZkHlB9ts3620aS9hQdR7Yo48vI/gDq0RSjxkpUrVADhdrvheHUD3Pr+Mqg12b3yuSZ3INx3cZog/OTwKbfl6sPrP6+Hn4u9X41NMGjgs/umQqfEGKCo8L7Ug/G33PzD9yQWg78xgGjrVXf3odD1if/y7e4z8tKMts/vHKy7VbABQhAc3r8qASj6XLnj1BGHKimALpybVn3/Kjjzv+HcPpoaChVAEIbV9WZ47ef1ULDtqFek3ZNj4cfHhEm7TCmUEDfuNlBoYyTpUtbWCPVrPgU321Qm+/KXF8DRapNXW3IHd4FHLh8DSXGGiNgbqL/l5h++oYvB3xhAtO9VVd510PHqR/l2uUeemMt8izKA+HqHJWt1g65ICG+wDiscfXQyKKze6zIIMa5UZAoZQJitDvhj/T54a8FGnzhevyUXcgYLk0NFyif+m29eEHhclrMfnJkG00f3ghi9NiLTLxh/y8U/fAMXi78xgGjfs6wuFrq8uhwUah3frvfIGx9rzb5+oN73/q8gI/sWKsoA4oOtloUVZp0gH0NPfPY4MOu9lz6OgA9ENaSQAYTDxcDhyjq4/aOVYLJ6z1uQOaAzvP1/wqVeNgyaCpquw0XF3Z8y9iMVYN6+9EyzB/69Ckp2ek8NbtSp4ZM7J0LXjnGgUQl31cyX3sH6Ww7+8efPQH8vFn9jAOHdc/SYCyH11n8F6lpO7YcbrIvuHqK/mFPjMDYSZQDxdLmz8YRDyfvFdWfNCTjxz4tB4bCGEbG0hhIygCAkTtaa4I1fy3xuY5B2L984HiYOE+ZgEpEvpSqQrrpj0LDu2zMTaeXmw/DEl6t9TiyyffHQpaMhOcz5H1orFay/pewfvl/xYvI3BhDevcuqdZD6z4WgSuT/EHiq2mV6YaRKdHuvogsgvthuvqCoUS/IEsGxj+4Hd4XvpDt8v/ilJk/oAKLeZIUlG//2u40xqm8qfHjHJMHwKfTxEDv6atGfhyDnHhrKvgfWUneGxV0fr4ANe074ZEO2L6al9YQ4ozBLqlwdE6y/pewfrmy4thOTvzGA8LOkP3wSdL7zHa6uDahddozlwpsGGf4IqJPAjUUXQAiVutp6aCecevVaUDDel84FZi0J8UIHECQ/QE2jBR74bDUcrPJ9DuXZf2TB9FG9BOOmjEuFmLQrRJtgiiSMatz4E7jqzwYLf244AM/91/dWaI+OsfD2reMhMUYf9vwPrZ0Vir+l6B++J6vY/I0BhG8Ps7QaOjz6Lei68197RoyprUUXQDy50Wmucir1fL8Qj74zG2BnCd9iZSdP6ACCdbvhVJ0JFpTuh8+WbfXJb1jPDjD/nmmCMiZvUsbhl4huJYKsPJgqfjsneCAgZr+/BDb/fconk1unDIGZ6b2hQ7wRFGG+vtlasVD9LTX/8D1ZxeZvDCA4eHhAJnS5fz6HhoE16ahyWV5KU0XmSpUXVUUVQAi1fWHesQ5q358NFMsE5rEobC10AEGQkmXt6kYrPPBpAVTWWXxSfmJWOlycLlgyUs/YZLncOOQCUMZ3FoXHyZkH09Y/ztm2IIqRlNUklbGvJyVeD2/flgtJMbqIb1806xmqv6XiH74njxj9jQGEfy+7FTQk3DMfDAPH+m8cYAuxbWOIKoB4b4v5ry0WPe8fOY+8dgNQ+8sDdFV0Nn/3yVmQGCPstT+yrF1vtsKPa/b4TG1NPNAnNR5evzUXOifyfqa2jYPFcPq/9W2LZiVJuuoH/p0Pe4/X+pyY1+YOgFnj+kKcQRfx7YtmRfnyt5j9w/dfCzH6u6bRBve99CPfpspSnrv3SOj6yFe82zZUb1ly71DD+bwLDlKgqAKIpzY4Gipd/J40bdy4Ahrm3x8knujrdu8t02BMvxTBDT9Vb4YGix2e/LoIDlT6PgtBUluTFNfheEgeAn2/3LBvaZAtC8vuAk+FzfaeJ74qhJUVh3wi6JUSCy9dnw2xeg10iFDyKG8K8uVvsfqH77kpRn+v310J732+hG9TZSsvdvY7EJPG79+tFKWz8cVR6lixQBNNACFU8qgjb90K1O51YuEtej0uuTALLh8n7JYBgWCxOaDRYoPS3ZXw8v/8+2dqWk94/trssPAjGRG1fTLDVnyLpKe27Ss5k2GytZEf/VkBXy73fV6E9HniyrGQ3i/FkzhKr1WHhRXXQfj0t9j8w5UB13Zi9ffPa/bCb7+LLpcRV6xhb+fuNxa6PvgZ7+OKKamUaAKID7dZvt9k0l3FJ21XQzUcf+J8ULhsfIqVtazRmSPgvpnDBLeR1EogqY4ZloXPlm2Dhev2+x3zqvED4AGByn23Nzgp8KTpPhK0XYfzflOD3LCwHakA+6FyT2Esb8/i9fvh+e/9H/69eGxvuHXKYKAVCk/q6nDXvvDnPCH8LQb/+LM70N+L2d/vLtgMZSWbAjUpatuzSi10evkvUMbyW5FhhNH6w12D9VeLAaxoAojnNzkqD9tVHfmEUvXfl8C5+ns+RcpeVvcB/eGlm9LDYidJdWyy2sBsd3HayiBKkVUIshoR7ocsnatT+oKqQ2+g6OBKY7sZJzhP/T97ZwEfxbX98d/urO9GCUmAEFxDgOBQgxrtqwv1lkLl1dt/aaFCCxQq8EpflTqUyqsL1BWo4A4JbhHiui4z8//MpqEpjazMHdm9+z79wCP3Hvmeu7snd+495yB85ftafVTR3K8dR6pw0/Ptbxk3PbqwGnWwmU2wmpW1+9DkE8l4yxEfsdeg0uP98FvrULh7j9hux7Q8/clXIP2qh0X1savRX/HoUAP558whWK2IBEJo3f2TI7GaD8HgcIYUPXAGtHVtF9wJR148jNUnpmDxQ0SqiP8Dn3DFr6bBBZZlsflAJeZ8sDYkxF/MvBCZKfLdZtKlZEGX1AmMrSMYS0rwvIRGbzqWWAiJAu/3QDjXwLpqwToqEagvRaC2OCT/hEH1Ti8mPvpJSONnXTEGw3p1BMMwSE20yH51szWjpYq3FPEJKTBhDFJDvKfMW4aAoz4Mr+hQLjkTXZ/6UVQQwpf26bYGRbT4VkQC8VqB66kNdrOorczq/lgG5zszRQ1cfAjT4tU5l8NijOy37HAZeX0B1Dkar3J+snof3lmxOyQR3z92KZKsxpDGqm1QWa0TF877IiSzr53QH5eO6xMcm2yzwGiQp+9FSMYCoPH+Jyk1xNvp8ePfcz6Ahhf717xQV456x1mvnYfkEy4Q1YGRCe75Nw+0PCCq0AiEKSKBWLDdU7DPbRwQgf2tTimefx00h+jVzUiYXnrBibhgbM9IpkY0RzhMKRyyE14LPtuEP3a13iSquYLX75qI3G5pEelU6qQfNh/Go++F1oj2hAGdMf3i4UFXhEOTcnXdDJcljfdfxNQS7w9X7cVX34a2Qxjueoj18XyPPGTNEPdKZx+zd9f0waaBcrNTRAIxbWPA38Ayov3q5K8qRtms86Fl/XLzVaX+nv16Yc4UaW48CICab22X1bow+/01KK1tu8BUE9hHrxiLf42ULtkhGdD/LtuED38NbQemSwcbHr18NDJTLIp/dHE8MxrvRiJqivesJX/g4J4DJJd/zMrmGD0y5yyHPi1LNB8TGTawcIROmm3iNqyWPYFYnG+/dI3D9rFoZAGULZ0Nds2nYoqML1laHR7491nI6ZYqmd9efwB19sakYeP+Csz9sO2Ki80Nm3z6INx6trracx8PVth1EH4bDfX19JST0KdzcnB4coJFtpbdodp7/Dgab/XEO/9IDZ569TuAC0Qa7rifx4y9BJmTZ4vKYazNMWlqTkJoB6VE1fyXMNkTiBd2upZtd5pF7XN+ZPqp0DVUEkIWH2I7d++K+bdMkNTZplP6gtIftxbixa+3haz/1CHZwSueHZNEb6MSsg2RDDxa4wiWp97YTnfN5rLnXj0Og7s3Xg1T8q2L9njQeLdHqPHncsd7xisrcPRwUWjG0lEtEggkdkS3Bb+ISmew1b38zkEWcQ9XhGmh7AnE3K2+ikKvvmOYdrc63LHjV9S/dLtY4uJWDq/R4LZrT8e4gZ0kZVDncMPra3z09NmaA1j6S0HI+nt3SsFlJ/Ul3jsjZIPaGSj0Ovjw1z04UPZXq+72ZN913lCcNrhrcJjRoEeyzO2627O3vZ/TeLdNSO54ry4oxaJ3fqKHJ9tbyCH8PPHWF5AwZHwII0Mbkm30Vz4y1CBq6YPQNP81StYEYjbPa8s38GyAF8+MsqWzwK75LFwOdHwLBFIyM/D8PaK3JmmTtVBYqla42slxwXE/by/C81+GV7xG6OJ50bi+RFuBR7NghBbNn6/e225XzeN1TD51IC4e2yv4z8KVzZQEc7BwlJpfNN6tR08J8b7r2e9RW1au5iWmGNu1o89HpymPi2aPTsMjY6SGma3RNH5YyvAS75s7AuNfz3dMW++wPh3B1FanFM66CEz5fjFFxrWsvOEDce+kEZIyaP58XFC8/XA1Hnkv/BK6w/tk4pJxfXHqn7+xS+pEC8p+2V6ET1fvxaYwHlc0ibnjnCE4Y2j2MampiVbodYzcLomin8b7nxiVEO9nPt6ILZtC3wEUZTHEsBC2QzdkP/6VqB6OsjnvuynHtlBUoWEIkzWBeHaHe1W+y3RyGPa2OZTnOJTcOQIaevtCLKQQWtNOvexknDq0cds83JdQwjiSsspurx8NTvcxdfuO1uG/y7egpLr1ss+t2Ta2f2dcPK4PTsoR7xR0OBx+yy/GZ6v3Yc3u0K6nNpfdKcWCG8/MxYjef+1UpiRaYfgzedhXVAG1Xs3XaIA+XRv9ovFujHp78Q5n3UX63hN0/LK1CIs/+hUajg1HJR3bBgHGWBeJAAAgAElEQVRWq0PXFzdBI+KuYY7F8+s9ueZT5AIvawIxa4u/9qhP13iUXIRX3W+fwfneLBEkURHNCRgTk/DGQ5Gd1RG2qCPdZm9+yE6wR7ji+faKXSHXiTg+isLVxzH9OmNM/07EkwnhUKRQz+KPghIUVrbdbbS11SbUebhuwoDgVc2mV6LVDHOzIl+HSqvh96vzQ16vZ9Cj0199Ami82493OJ9M0bz3bnxiGbwNtOpkOLxDGWu6dAY6nH5NKENDGtPZEKibk6dPCWkwgUGyJRAfVfC2nw7BLmZds6Mv3w1+m7gnXQkwV6VIW1oHvHzfOWHbHmA56JjIn9Mf/5upYEA4FStbM1i4rSHsTJyR1w0j+2SG7VdLE7YdrMTKHYVYsaMIQnXBaF7NK0w2yWnpxkVpVT3sLm80qmSbm2AxolNa0t/003j/hSPaGzaRvvduffprOKqqZVsXsayY7zsGWfe+LpqLwbLWPZBwWbom/K1ZEayQLYF4I99x3zqH9T8i+HBMROH9E8DYq8QUSWU1IxBJEuELsMe22yOFKciobfj7F7LQO+PtFQU4VB7Zb/fNbUm2GTEoOw0dEs1ITTChQ4IZqbbGP4V/65BgCg6vtntQ3eBGtd2NGoen8c8//62gqDr492hfQmOs6yYMDPa2aP46fueh6Wf1DjfKa+zRqpVlfkZqApJauEVC4w20Fu9wAhXJe48mD+EQDn8sa01G9sLfwp/YxozRNuf9N+bYRD1LGKqBsiUQz+1w/7LTZRKt0ICv6igqZ0p7YyBUyLE0Tkgi5t58GtISG79U23sJB+SM+uiLjPoDLOqdnmDjraaX0MXzg1/3hNQKvD07lfBzoSX3FSf3g9BVs+klPP5JsJpaZShUdTxQXKm6cxDC+YdeWR1bbfxF4x39eyac915VgwePvPYz3XmQ4IMgfd430KdFdqasJfMGWTwr7s41nyqB6f9QIVsCMWeLr6rYpxetUXrV8kXwfvOyHAzjTqfWZMG5E4Zg0imNTZzaenm8fphEaswlPNMVtuub6kQ06V23txzv/7pblN2I9vwh8XNh1+HKk/tjdN+/d+gV6jwI2/ztnSGpqnMEu5qq6SV0DU1LtrVpMo13dBEN9b338ap9+GrFNnAeda2h6OjIN9twxg3oeMk9ohmQZfBXz8ozyNIUSLYE4vYNHOfjhN9DxHkVPX45tEX0ypE4NEOT0r1vd8yd2vYlGuGZdvNDf6FJbnvU8YfthNHCbsTXGw7hp22FKK9TxwdhRrIFpw/Jxjkje/xt10HwJ5zn38Jp+8NlNao5TCkcnuyemRry7Rwa78jeNaG89x5Z/CsO7w29hHpkltBZzQnwWQOQNfMj0aAYtDz/0kgRr3aEYZloX+Bh6MSSfMdVqx3W98KZ097YonvGQuuR5RxJe6bF9M81RjP698vCFRMGomenvx+IC36xu32wmg2iMxC2Z4XdiOaPNJoSiZ+3FQUTiSMV0Z+PEN1wAN3SE4OJw2lDuv4jcRAKRAm7DuE+9hG6mRZXhF7RkoRfocrMSk8Odg8N50XjHQ6txrGtvfcOltbjgxUF2L2nGLz3r6vS4WugMyIhwJls6PrsmkimtjpnnM159ZQc2/9EFRqCMFkSiEU7Xe9vcZqvCMG+kIYI9R+O3qbuZkohOarkQVodOnXNxJmje+PEQV1gMjQWOXK4vbCZjUQsF57/O93eY63AmythOR6/FxzFpv3l2HSwEg53Y7twuV42swHDe3bE8N4ZOHFgZzDaf771hC9Vq9nY6rmA9mxXw4HK1g5Otueb8HMa71Ao/TWm+XvP42Px+84S/LBuP0qLymhjrPBQij6686JtotaDyLO6P7htkOVK0Q1tR6AsCcRTWz37DniNvcVylva/EIukSHJ0etiSE9EpPRk9OqXg2jPItq33+gKwu/+5G9HkjcPtx6YDFcFkYvvhKtQ6pbn2mGIzYnC3tGDSMLxXOmzmlrvvBncdzEYYDdEfnFNyEhFN8tB8ZdJ4h/Y+fefHfOwvrkNpRQ1cdic0AXmT6NCsjo9RSbe/BFuuaDUU0cvo3f/AUFP7h9JExitLAjFjk99TE9CJ9mtp5afPwvfjmyKjoeLEINCxa2c8c/vpYohqU4bw26nb44fb6zvWR6OlCSwPbD9Uie2HK7HtUBUOlIlbLKdfl9Rg1cic7FT0z0ptcaehyS7hcKTZaIDZpI9416ElH4XHGeW1dsWciRDOPGSkJIT92KKtgNN4t/+WmvbST6goCr/6afuS6YhoCYh9kDJVF/DOH64P7WpctMY3my95ArF4R3XXNa7UQhF9QPFzt0Kz63cxRVJZIhGwpHXEq/edLZK09sUIBwqFw2Mur/8f5yNamu3xcyiptqO4yoHiakewVHZVgxtePwuXNwC3zw+3r/HqqNnAwGzQw2LUwahnkJZohlDdMkv4L82GLh0SYNK3XzRL2HGwGPXBw6WRlPlun0Ljdn9lrR31juhrU4Sir7UxSTYTOqYkiJogNddF4916dP698Hu4KmkjrGjWL6m5/IATkXW3uLcGx1pqsqfmdpC077rkCQSJBlpFD58NbXUxqVhTuVEQ0NqSsXTm+VFIiHyqcI1NOHwn/Cd80cj5EhIF4WCk8J9Y11pD8UfYjRCueAp/SvkSznN0SLKKfgOnLR9ovP9OZ/ITX4FrqJEy7FRXiAS4Dlno+vi3IY4ObZgcjbUkTyBe3Olavs1pPi80JKGNKrprFLQ+epo4NFrSjuL1Rrw793JplR6nTfht3OdrTCR8fhYcL033W61GC4OeCSYNBoOO2G/hocAVTuTXO91wEC57LdwgEapLhnvLIhQfQh1D491I6ppHP4aGfi6GumwkHccZzOj6/HpRdQ6xur+8Y5BF0t/WJE8gntzqOXTQa+wuFjnW7UDZ/40VSxyVIzIBXqPBu09eK7LU6MQ1JhKNyUSgWWXL6KQ2ztYxDEwGPYTn/k0dM8WQK5YMocKjcDpfSCjE2JXQajXBZMFqMsAWQtErsfwIR068xvuaB9+FRqJkOZx40LGNBDL/uwaMue1iauGw6mn0Hn5wqKlHOHOiHSt5AiH2AUr7xh/R8Ma90XKg8wkSmPt/F6J7RiJBDZGLFh5tCE2HWJZDgOOO/T34wIPng2cJmh5/CI8htELtM40GwhuHYbTBRmE6rfbY30mdaYjcw9ZnCn55fAF4fP5gQuUPcPCzLDiBB/fXIx/BZSExEpIFvY6BnmGCOytCoiTGzRESvrUmM17iXVTtwEP/+UxKtFRXmAQSb3wGCSPOCHNW68PlOEgpaQKxZEtt8mpfcq1oxABUfDAf/pXviimSyhKZwPXXTsRpOX8v0yyyCiqOEqAEmhFYVVCBN97+jjJRMAH9+GuQfsUMUS0cZ6hLmZKXIllFOUkTiMW7HVPW1FsXi0ms5PnbgAJxu5uJaR+VBZx8xgm46bReFAUlQAlIROD1nw/g1x//kEgbVRMRgYEnoctdiyKa2tqksUnOqVP725aIKrQNYZImEK/kuxdvcpimiOlc8X+mQHNgo5giqSyRCWT064enp4wWWSoVRwlQAq0RuG/JOpTv2UMBKZgA32sEsu4X97t+uM2z5JYc81Sp3JY0gVi43bNpt9s4TEznip+4EprCnWKKpLJEJsCkpOGtGf8SWSoVRwlQAq0RuH7+N2BrqyggBRPgswch66H3RbWwv9m7edpg03BRhSplB0LsFt6CX4WzLgJTvl8qXlRPBAR4Rod3H78qgpl0CiVACURC4JqH/wcNG4hkKp0jEQE2ozey53wuqjapW3tLugNx74ZAwM4xjV2WRHoVPnQ2mBpaREoknMTETL/lXOR2TyUmnwqmBCiBRgI7DtdgwStfURwKJ8CmZiH7CXGLSSVoWfaZkbrom+qEyE6yBIJECevgDsSM08DUV4ToLh0mF4ETTh2NW87sJ5d6qpcSiBsCr/ywB3/8si5u/FWro2xSOrLn/yy6+VKWtJYugSBwAyOYQEw7CYxTslsrogc7XgSm9e6D/95IC37FS7ypn/IR+L831qBq/z75DKCaQyLAWpORvVD8G4RS3sSQLIFYlO98eYvDcktIZMMYVHTPWGg9jjBm0KGyEEhIwTsPi1rBXBY3qFJKQOkErn38S8AuarkdpbusSvs4kw1dn10juu15Ntcrt+VYbxVdcAsCJUsgnt3hXpXvMonXAP1PZ4ruGAltQN6Og1IEKhZ0vP3ktcS6T8YCH+oDJRAtAaHS5nUPvhOtGDpfAgKczoSuL24QXVOOxfPrPbnmU0QXLGcC8eQ276GDHoNoPTCafCm6PQ9aetpYirUStY6rLp2As0d0jVoOFUAJUAItE/h8zSF8tkz8bXHKW3wCHKND15e2iC64p8l3+MEhRkl6Yki2A/HwJp+jIqC3ik2r+NbB0Mjcqllsn2JVXo8hg/DYlaKWAYlVVNQvSiAiAg+8tR4lu3dHNJdOkpaA0Ggw6+XtoitN1/mdjw83iNelqw0LJUsg7t7IsS5WoxWbFk0gxCZKTp62QyaW3n8mOQVUMiUQ5wSuf/JbsPWVcU5BHe6TSiAsDM89N0IrarmE1ohKkkCQusIpOFV8+zBoWL86VkycW8kzerw974rGjpb0RQlQAqISEDrHXvPw+2A4WkBKVLCEhAmfh1kvbSYiXaqrnJJ8ki/Jt09a7bB9RIJU0Z0jofXTQ5Qk2JKQecmkibhwOO3MSYItlRnfBD7ZUIpln/4Y3xBU5D2nN6HrC+IfohQQjLM5LpuSk/AxaRySJBCvFTjnbrBbZpJwpvDucWC8dhKiqUwCBLrm5eGJy3MJSKYiKYH4JvDQBztRtJXMb7TxTZaM96wxAdnPrSYifGSCa97NA62PEBHeTKgkCcSLO1wfbnOZLyPhTNH946G1V5MQTWUSIKBJ7oi3HzibgGQqkhKIbwLXPfUt+Dp6/kEtq4BL6ICu/1lJxNwhFvdHd+RaLiciXOoE4pnt7jW73KYxJJwpfGAimLqjJERTmYQI3DD5bIwf0JGQdCqWEog/Ait3VeLNpeL2VYg/itJ6zCZ3RvZT3xNROsDsWXvvYDPx0r+S7EA8tdVz8ICXzL3UwkfPA1NxmEgQqFAyBDoPyMH8yZJ1nCXjRIxI9bEaVAfM8DIJgCUZRlsqUjOyYLLaYLUlBL10OuzwOB2oKS+G11EDuOpg4uxIZdwwMHyMkFC3GzOWbsLRXfnqdiLOrGfTuyP7sS+JeN3L6D30wFBTTyLCpd6BmL3VX1Pi1aWQcKZ43mXQFO8iIZrKJESAsyTivUcvJCSdim2LQL1fh1okg0nOQlpWT3Tp1isqYCVHDqCq+CDY+mKkcLVIMrBRyaOTIyNw9WNfQOtqiGwynSULAT5rALJmErlbgC7GQO3soXri7Y8l2YGYvtHvrWV1BhJRKl4wGZqD9OAQCbYkZV540am4ZHQWSRVU9p8Eav061Ju6I71XLrK69ybKpfjwfpQf2I5kzxGk6Ol1QqKw/xT+6bpifPH5L1KoojpEJMD3HIas6UtFlPiXqBQm4FswQm8kIlzqHYg7NnCclyNz+b/kuVuBXb+T5kTli0wgtVcfPHcT8Ud0IlutLnFC4mBPGoihJ06UxfCtv3+PhPoCmkgQpn/362tQc4B23ySMWXzxA05El7tfFl8uAKOW518cqRW9cOPxxhLfgfgovz71R0cisWsSFR88Bf/K94gEgQolR4A3mPHuY5PIKYhjyV5Wg1JzXwwbf74iKGxeuRyd3HthpOcliMTjmkc/hsbnJiKbCiVHQD/+aqRf8QAxBWfYGjpclpNUQ0wBAOIJxNL8hhN/dyQQ6+7SsOYr2Jc+SJIRlU2IwJgJY3D7xL6EpMen2ENsBoaffZ0ind/07dvowZQr0ja1GvXS93uxdsVatZof13YnTH4SiWPPJcbgRJv9pMk5iUS354knEIt3OSavabC+RYqSv6YMFQ+dQUo8lUuQgCE1E29Op70xxEBc4TVC220c+g4eIYY4YjL2bN8AFK5GR4OPmI54EnzDgh/gqymLJ5djxtf0J36EPjWTmD9jE53XTx1gI3PI4k+riScQrxc4H1lvtzxGjBKAotuHQUv7YZBETEz2TZPPwskD0onJjwfBh/guGD7xKlW5uvn799FdU6wqm5Vm7K+7KvD60u+UZha1JwQCHKNHV0J9MJrUj0pwPXrTQOvcEMyJeAjxBGJRvvPlLQ7LLRFbGMLEI9NPha6BVmALAZXihqT36YeFN4xWnF1qMMgV0KA+fQxyRpyoBnP/YWP+xt+RVLkOFoZTpf1yGz3tzXWo2LdHbjOo/ggIBBI7otsCsjdn8myuV27Lsd4agXkhTyGeQLyww/npdpfl4pAtimBg8RNXQVO4I4KZdIrcBHidCa/MvAg2k15uU1Slv+BQGV75/DfknXAGxpw0Hn36D0Jaejq00nTxjZoVx7GoqqjAzk1rkFC7Hb3SrVHLjCcBDo8ft8z7HJoAbSSoxrjz2bnIeuh/RE0fbHF9dmeu9RKSSognEM/ucK/Id5nGk3SidPFD4NaTqehF0m4qu5HA0BNHYdq5/SmOEAls2l2Ihf/7OcTR6hg27arTMLx/tjqMVYCVC7/aja2/r1eAJdSESAhoR52HTlOfiGRqyHNyLJ6V9+SaJ4Q8IYKBxBOIhds9m3e7jXkR2BbylJqf34X74/khj6cDlUVAm5qOpdPPUpZRCrVm465CPPN+bCUPTahpEhH6opu84DtwNRWhT6AjFUXAPGkGUk+7hqhN/c3eLdMGm4aRVEI8gZi/zbN3v8fYh6QTniMFqH6SeOMxki7Evexzzj8FV4zrFvcc2gKw82Apnngrtg/NPXT9WRjUsxNdB20Q+GD1EXy9fBVlpGICHR78EKZuA4l60Nvk3TdjiInoPXniCcS8rZ7iI15jF6KkhJsYtw2FlqN1+ElzJiXfmJ6FN+49lZR41cstqazDY29+C7srtp95J1hMePSGs9GlY7LqY0bKgRuf+QXeCnqDhRRf0nJ5LYOsRVtJq0E3o7dk5lAT0X4BxBOIOVt8VcU+fQfStIpmngNtVSFpNVQ+QQJXXzkRZw3JIKhBnaI5nsejr32FgyVV6nQgTKt7dknDYzefCy2Z6vdhWqOs4d9tK8d775NpAa0sT2PXGjY1C9lPkG+9nmXwV8/KM6SRJEk8gXh0s7++1K9LJOmEILvszQfBbviKtBoqnyCBhOxeWHTbCQQ1qFP0a1/8jpWb46vXwfhhfXDzheq8nkpyld226A/YCw+QVEFlEyagHTYRnW5+mrAWoJM+0PDYMH0SSUXEE4gHN/ldVQGdmaQTguyGTT/A/vo00mqofIIEhK29O24+F2O6E13zBD0QX/SqLfvw6udEq9GKb7RIEv990Yk4JY/o8SmRLJVGzNrD9Xjxta+goY9qpQFOSIv12nlIPuECQtL/EpumC7ifHK63kFREPIGYvingrQ0wRFp5Hw+GnoMguVSkkZ3SLwfPTxkujTKFa6l3uHHfC5/D6fYq3FIy5lnNRjx950VIshH//YOMAyJLvWvJJtTuyRdZKhUnJQGpzj8IPqXoWN+C4TqiLb2JJxDTNrL+BlarkyJI9ByEFJTJ6uAZPe68+RyM7kb8qRdZR0SQHo+PLo7HRh9lNBJZd6QBL7z2NTS0ZL8I7yz5RLDJnZD91A+SGJDIcIGFIxiiFfqIJxD3bGRZJ0u+L7kQkaOv3Qd+Mz1gJMnqJKjEmt0Lr8T5WYjdR8rx2JvfEKSsHtGPTD0bA7qTazqkBhK3LPoDTnr2QQ2hatvGnPHocucLkvhhZTju2REMQ1IZ8QTijvUs5+W1xPUIkOpWfQzn+0T7dpGMBZXdjMBZ55+Kq8cRvYGkaN4L3v0RW/fSq3pCkIb0ycKMa+O34+57q4vx3XKyfRMU/WaIIeMsl05HyunXSuKRUcPxL45itCSVEf9iv20dy/tB1IdjfFhnPY7efwqtB0FyxUgkW5OSjrdnxGd1yvxDpXh8SWwXjAp3GcVzganr5n8HvpZWnQx3zShtvHD+IXP+CugSUiQxTQ8Oi0YzRL/jiQoXKN2yjuNZEFdzLCCFD00EU3NUkgBRJWQJDBo3BjPOJ1pIjawDEUp/9oMVWF9wOMLZf00zarTIM6RioCEZPfUJ6MSYkao1wKRp3NX08CxqOB9KWTcO+u0o8NVhi68GXr7l7phiywvHwVEDu+OeK4iW9Q/HHMnGzl++FztXr5VMH1VEjgCb2hnZT0j3iJ0Bj1dGk939J/7N/u/1PM/x5IJyvOSyd+eB/f1D6RRSTcQIcCYrnpl2HjISJLnEQ8yPcASX1zTg/579NJwp/xg7xpiG08ydcaKpIzRhJu88ePzuqcTP7qNY620sXCW2vEide+buS5DZIX4O15bbfbh34ZfQepyRIqPzFESAOfFyZF4zUzKLhNTh1VFkq7ERTyBuXsfzEuYP8FUUonzOBdCyAckCRRWRI5DePxcLryfai42c8RFI/mTFFny2IrIytxPMmbjU2g29dAkRaP7nlHLWHfzHDEaca5QHAnZ84jyCFe6yiOy7eMJQXDohftbCtLe2oGL3johY0UnKIsAxOmTMWgZDunQdZ4Uv99dGqzyBuGmdpPlDcNUUz7sMmuJdylpB1JqICPAaDSZddgYuyIuPU/j3v/A5hL4X4by66224MaEPRhiIV4wPx6xWx270VeMN+z4c9jvCktc5LQlP33VxWHPUOnjZljJ8/NGP0Ej/8alWZIq2m88agKyZH0lu4+s0gQifedW3b8C77LnwJ9IZiiSgTc3A4vvOACPNbWDZGBw6Wo2HX1kelv5/mbvgzqT+YT+qaFWJ8IUV3JckuzkpPCp5oX43vnGXhOXv47ecjx6d1ZEoheVYs8Esx2Hq0z+CqymPVASdpzACxgvuRtrZN0puleoTCKkfYTRFqOiesdB6wvsNR/LoUoUhE+g9agxmXRzbByo/X7UNH/+8OWQmUxN64zJr95DHK3HgR87DWGzfH7Jpk04bhotOGRLyeDUOnPPZXuxfTw9OqjF2LdnMmWzo+uwayd2JiUcYUh+ibIpS8XO3QrMrPnsISL5SJVDI6Uy459/nYWRXcZ7HS2By2CrmLvkWuw6Fdj7g9sR+OM/SNWwdSpzwpasILzXsCcm0AT0y8ciUs0Maq8ZBG4rcePbVL6ENxHbbdjXGJlKb+QEnIuvulyOdHvG8mDhEKfU1zibatLlWxOtOsRONWX3w6m2jY/JRhtCy+9o5SxHKlaVY2Hk4fpGFuhOh0WrwzqzJMdnqW3h08e9F6+Atjq/Oq4r9wBHJsISbFiJx+JkiSQtdTExc45SykNTxaAtnnA6mnj5HDH3JKX/k0NNPw7TTuyjf0DAt3FdUgVmvf93uLOHMw11JA9odF/KA4JkHsucdQrXl+fpdIZ2JmHPTOejTNT1UsaoZt/CnEmz96WfV2EsNbZ8Am5SB7Pk/tT+QwIiYKCQlZSnr42NQ/u5cBH6X/uQrgbVARf5JQHiUcf01E3FG/9hq+f3j+t1Y8lXbz0mF2xYvdxgt3oHJIFPhkrUyEgjhYOWt1evavZ0x5dyxOGNU/5h6T/y4ux5vvfs9fXQRU1EFdCdehoxrHpHFq5goZS1lM63jo8T53CiZfio9TCnL8iWoNKkjXr7vX7DppawwQtAfAEu+Xosf17V99Xheap5qrmpGSku44jmzZkub088YPQBTzhkTqQrFzXP4Nbj16W+A+krF2UYNipyAcHiyy4JfoDXIc24rJpppSdnOu6VQH31jBviNtKth5G8DZc60dO+LV2+JnS+RJ5Z+j50HWi/BLhSJmpE0SJnBENmq+fU72yw2NahXZzw0eaLIWuUT9+9X1sJ1eK98BlDNRAhoRvwLnW+cT0R2KEJjop339E0Bb22Aka0Wsa/qKMpnX0C3BkNZcSob03P4KMyZFBtb2S99+iv+2Hag1Qi8lDZatAqTSg+zULHy9qp1rZoZSwnErI934+Cm9UoPCbUvTALCo9aM2ctgSOsc5kzxhqfoWN+C4TqjeBL/KYn4w88HN/ldVQGdPHs4f/pb8sKdQP5KkhypbBkICFUqJ55/Gq4dK9+bVCy31xccwbMftNyyWehFMTtlqFiqVCFndu3WY704jjf4lotOwsl5vVXhR1tGvrPmKL5f/jOtNqn6SLbgQM54dLnzBVk9S9MF3E8O11tIGkE8gXh0s7++1K+TtQOO50gBKhdcTftjkFxJMslmTVbcPeV0jO6m/kOVT7/3EzbvKfoHyYeTB+MkU+zdOmhryfzmqcDjddv/MSSnZ2c8fL36H19sPerEgle/B+Olxe5k+uggplboe9Fx+nswdRtITEcogjvpAw2PDdMT/WAknkDM2eKrKvbpZa89W7JwKrBvQyjc6Ri1EbCmYumjF0DLs2qz/B/2fr9uF75ZnY/KWnvwZ0IL7S8yJsTszYvWAibcyLiwfMWx1uJJNjNOH9kfl0xQ/04Mp2EwZcF34KpLVb9eqQMtEOgzEl2mLZYdTZbBXz0rz5BG0hDiCcS8rZ7iI16j7Bf3nfmrUfviLXS7kORqklG2LiUdS2acJaMFVDUlEBqBW19eA8cRWiwqNFrqGiU8Vk254xVYc8bJbng3o7dk5lBTFklDiCcQ87d59u73GPuQdCJU2cVPXAVNIW2PGyovtY0zpXfG6/eerjazqb1xROChD3agaGvb11TjCEfMucpn5yLrof8pwq/eJu++GUNMRBsIEU8gFm73bN7tNuYpgahz3ybUPHsTtKxfCeZQGwgQyMrJwZPXDicgmYqkBKIj8J+v9mP776ujE0JnK5YAx+iRes/rsPZRxudPf7N3y7TBpmEkgRFPIJ7d4V6R7zKNJ+lEOLLLljwCdt0X4UyhY1VG4NR/jceUk7NVZjU1N5YJvLO6BD8sp2WqYznGzOgLkTllrmJczLF4Vt6Ta55A0iDiCcQLO5yfbndZLibpRDFcmQwAACAASURBVLiyCx86E0wNPcAULjc1jT/3/FNx+Tiij//UhIPaKiOBD1cX46vlLV/RldEsqlpEAmxqJ2Q/8YOIEqMXNdji+uzOXOsl0UtqXQLxBGJRvvPlLQ7LLSSdCFd2/R+fw/HOo+FOo+NVRuDCC07BJWO7qcxqam4sEfh0zRF8sWxVLLlEfWmBgO3ax5B0wkWKYpNnc71yW471VpJGEU8gXi9wPrLebnmMpBORyC559mZgd9vNiyKRS+coi8DFF56Mi8Z0V5ZR1Jq4IPD52sP47Itf48LXuHay/1h0uec1xSEYleB69KaBVqLPVIgnEIt3OSavabC+pTS6AXstSh89F1p3g9JMo/aITODSC0/CBWN6iCyViqMEWiewbO0hfPLFbxRRjBPgzIno9NhX0CWkKM7TsYnO66cOsC0laRjxBGJpfsOJvzsSFPlOqvriRXi/e5UkXypbIQQmXXAizh/bUyHWUDNimcDyNQfx8bLfY9lF6tufBIxn/RtpF96hSB4n2uwnTc5JJLoQiScQH+XXp/7oSKxWJGEARXMnQVuyW6nmUbtEJDBx4hhcM4HotWgRraWi1EjguS+2YuPaf5bgVqMv1Oa2CXBd+qPrIx8rFtMZtoYOl+Uk1ZA0kHgCIRh/xwaO83IaSXSFC8tbdhgV86+mjzLCBafS8SNPHo27/tVPpdZTs5VM4P7Xf0fZgYNKNpHaJhIB4dFF+oz3YMxU5vkqo5bnXxyp1YrkbqtiJPlSn77R761ldbK19G4PYu3KD+H6YF57w+jPY4RA16F5eOKK3BjxhrqhBAK3v7gKDcVHlGAKtUECApYrZiJl/OUSaIpMRQoT8C0YoSfayluwTJIEYvZWf02JV6e8UybNYlP25oNgN3wVWbToLNURSO7VFy/cNEZ1dlODlUfg5udWwF36zy6qyrOUWiQGAWbkuci84UkxRBGT0cUYqJ09VJ9KTMGfgiVJIJ7a6jl4wGtU/DH4onmXQ1tcQJo5la8QAob0LMy7fhQ6pdoUYhE1Q00ESmsceHjJGvgraVE6NcUtGlu5rIHoOvPDaERIMreX0XvogaEm4qfGJUkgntnuXrPLbVL8r3uB2nKUzLsUOmedJEGmShRAwJqIS88ejgtGdFWAMdQEtRBYtrEIn3y7CXDSa+BqiVm0dgasyegy8xPoUjKiFUV8/gCzZ+29g81jSSuSJIF4cYfrw20u82WknRFDvlCl0v7uLNr2WwyYKpHBaxkMHjUU0y/MUYnF1Ew5CSz4Ih/b12+FhmPlNIPqlpCA0KY74Zo5iqs22RqCIRb3R3fkWogf0pAkgXitwDl3g90yU8J4R6WqbOlssGs+jUoGnaw+Aqk9e+O5m8epz3BqsWQE7n5tNWoO7pdMH1WkDALM2EuQOXm2MowJwYqRCa55Nw+0PhLC0KiGSJJALMm3T1rtsH0UlaUSTy5eMBmag5sl1krVyU2ASc3AbZcMw6heHeU2hepXEIH1Byqx6NPNYGvKFWQVNUUSAn3HoMu9r0uiSiwl42yOy6bkJBAvUiFJArF4R3XXNa7UQrHgSCWn6OGzoa0ulkod1aMQApzOhBNOGYbbzuitEIuoGXISWPTjfvyxajO0AY+cZlDdMhBQy6HJ49GMtdRkT83tQPxqkCQJhODc3Rs51sVqiBe2EHuNFf7fCWBovwyxsapCXoe+/bFwyggw6lu2quCrdCNZnsO0JRtRvZdWqlV6rEjYx6Z2RvYT35MQTVSmheG550ZoGaJK/hQuWQLx8CafoyKgt0rhlJg6vMX7UPnEJHpgSkyoKpKlScnAlIvGYELfJBVZTU2NlsCKvfVY8vla8LX0kUW0LNU4n9PpkfnYN9CnZqrO/HSd3/n4cIMkd9MlSyCe3OY9dNBjUGbdz3aWSMP6b2BfPEN1C4kaLA4BVmdE7piRmP6v7mDIV4cVx2gqJSICLMdhwTeHsWPtBjABb0Qy6CT1E0ie9hasfYar0pGeJt/hB4dIU3dJsgTi2R3uVfku08mqjAiAqmUvwfvtK2o1n9otAgFLdl/ccN4QjOpqFkEaFaE0AuuL3Hjzy21wFe5VmmnUHgkJJEydj8RR/5JQo7iqciyeX+/JNZ8irtSWpUmWQCzKd768xWG5RQqnSOkofeMBcBu/JiWeylUBAY4xokfeEDxy8QAYtbwKLKYmtkfAy2kw97NdOLRlG7Qs3XVoj1cs/1x30uXIuFo1FQdaDEWezfXKbTnWW6WIk2QJxOLdjilr6q2LpXCKpI7y9+Yh8JvyS5mSZEBlA0jqiPGnDMMN45RflY7Gq3UCb64ux8pVm4H6SoopzgloR5yDTjc+pXoKY5OcU6f2ty2RwhHpEgiVXuVsKQj0TIQUS1MdOoTHGjdfMBTDu5jUYTC1MkhgU4kHry3bSh9X0PUQJGA8+xakXXB7TNCQ6gqnAEuyBEJQdu+GQMDOMZJcLyG9Epz7NqHmuZugDfhJq6LyFU6AYwxI69kbt5+Xg77p9HyEksN1qNaLF5fvRum+3fSQpJIDJZFtQhn7xOufUPWZh+aoErQs+8xInU4ifNImEHO2+KqKffoOUjlHWo+/pgylT08GU3OUtCoqXwUEOC2DDt174KErRiAz0aACi+PHxAp7AP9dXoCignxoWJr0x0/kW/eUNSciY9pbMGb1iRkcWQZ/9aw8Q5pUDkm6A7Fwu2fTbrdxmFTOSaWHtgGXirQ69PDQomOf3njsqhFIMEv2y4A64EhspdMTwGMf7UDJrp20QZ7E7JWsjuuQha6Pf6tkEyOyrb/Zu3naYJNk908lTSBeyXcv3uQwTYmIjMInlTxzE7B3rcKtpOZJTeDFmZNgNhlg0MXEkzup8UWszxdg4fb4cMc84u0AIraRTpSHAN9zGLKmL5VHOWGtw22eJbfkmKcSVnNMvKQJRKzcxGgtOEIXz8Daz+hvOlKtXhXo+c/9FwatNBn1MBv1MOrpjgTJsHn9Abi9fni8jY8p7v/PFyTVUdkqIiC05NaNuVhVXTXDxSvlDQzBNkkTiCVbapNX+5Jrw4WipvH1f3yOus+egc5Zpyazqa2ECDQlEE3ijQYdTAY9hD+1GknffoQ8lF8sx/Pw+gLw+PzBP5u/aAIhf3yUYEHAmozki+9F0gkXKcEcYjaMM9SlTMlLkezLR/JPsBmb/J6agM5IjKACBAdqy1H60l3QFhcowBpqgpwEjk8gmmzRajXB3YimZEJOG9Wq+1jS4A+A41ou6kUTCLVGVzy7hY6anW5/HrqU2K7ZkqoLeOcP10t6n1zyBOLJrZ5DB71GVfbECHdJl735INgNX4U7jY6PIQKtJRDNXdQx2uCOhNGgp2cl2om9cLbB++dOQ4Dl2l0pNIFoF1FMD2BGnovMG56MaR+bnOtp9B5+cKiph5TOSp5AvLjTtXyb03yelE7Kqat25YdwLHseWtoSXM4wyKY7lASiuXF6HXNsV0JILOgLEBKFpt0Gf4ANCwlNIMLCFTODOXMibBfchZTxl8eMT+05MsTq/vKOQZbz2xsn5s8lTyBez3dMW++wPi2mE0qX5S07jIrX74e2ZLfSTaX2iUwg3ATi+GTCoGegZxgY4ujMhHCmwecLwM+y8PlZhJs0NGdIEwiRF7QKxHFd+iP9pv/AmBkXG93HIjLK5rzvphzbQilDJHkCsTiGSlqHG6iqL16Ee9X7dDciXHAqHh9NAnG828LuhJBQGHS64J+aGDmEyQsJg5+FLxCIOmE4nhlNIFT85gnTdGHXwXzKlUi78I4wZ8bGcClLWDcRkzyBEBTHw0HK1pZkwF6L8jdnALvXxMaqpV60SUDMBKKlhEI4O2HQ6yA87lDLrQ5hh0F4LOHzB4KPJqLZYWhv+dEEoj1CMfLz/mORccN86BJSYsSh8NyQ4wClYKEsCcRTWz37DniNvcNDFFujheue9V+/DKamNLYco978jQDJBOJ41MLNDkarDSYTOoZp/FOnDf6bHC+W4xAIcMFkIcCywT+Ff2vtxgQJG2kCQYKqcmSyqZ2QdM6tMX89sz3ivYze/Q8MNUlek1uWBGLRTtf7W5zmK9qDEg8/L1vyCPwbv4aW1uePyXBLmUC0BlB40sE0JRSMFhrhfxoEH4EEdy3+/LvwYSD8W9PPmj4chAuSwmMGnv/zzz//P3hA2E049jM07iwEEwWWDY6X+0UTCLkjQEY/x+ihH3EOMqfMJaNAZVLzrO4PbhtkuVJqs2VJIJbkO65a7bC+J7WzStUndPas/XghUETr9Ss1RpHapYQEIlLbY2EeTSBiIYp/+SBUk0TXQUiZNA3WPpK1fFA8xHE259VTcmz/k9pQWRIIwcnbN3Ccj4uRU2AiRc2Zvxp1370B7uAWaNm/V9QTSQUVIzEBmkBIDPw4dTSBkJe/WNo5Rgdtzzwkn3UjrDnjxBIbE3IMWp5/aaQ8zyllSyBirbW3mCvRc6QA1ctfBrdnLbQBj5iiqSyJCdAEQmLgNIGQF7jI2jmdCdp+Y9Dh/Fth6jZQZOmxIU7qFt7NqcmWQDy3w/3LTpdpQmyEkIwXvqqjqPriObA7f4XW4yCjhEolSoAmEETxtiuc7kC0i0iRAziTDcygk5F24d0wpHVWpI1KMWqQxbPi7lzzqXLYI1sC8Ua+4751Dut/5HBabTo5nxuVHz0N745VYOrL1WZ+XNtLEwh5w08TCHn5h6udTcqAMfcUdLzsPmgN5nCnx+X40Tbn/Tfm2GQpzihbAvFRBW/76RDsCjiorapF17DpBzT8/jn4Q1vproQKIvfanCvh8viI1jpQAQbJTRSKbllMBtw8633JdVOF4REQdhs0PYYi8cSLkDj8zPAmx/lo4Qv89B5IuCxdI8sWtWwJhBD3WVv8tUd9uuQ4XwMRu1/17RvwbPoBfOk+eugyYopkJ77z1HVBBR6vHy6vP1g8ib7IERCKalmMepiM+qCSax94m5wyKjliAsKhSE2nPjANPxNpZ98YsZx4n9jZEKibk6eXrXqWrAnEszvcq/JdppPjfRFE67+vohA1P7wNX8Fv0NaVQ8OF13AoWv10fusEmhKIphFefyCYTAh/SllQKZZjdKw1ulEfbJHe/EUTCOVEntMy4JMzYBh4ElLPvA6G9GzlGKdSS3Isnl/vyTWfIpf5siYQ8dhYi3SghVLZ9nVfwbVrPdiSPdA2VKg6oWATM6DrMRgJI88Oomt4417SCEWVf3wC0SRcKMDU1GFS+JO+wicglPE2GfTBVuitlfFWWwJhu/4paHUG2Dd8i8Ch7WAa1HvmSUgYkNoFTPYAWPqNRsKIM8FYk8IPNJ3RKgE5Gmg1N0bWBGI2z2vLN/BsgJfVjJhfnnV/LIM7/zf4D+dDW1eq4IRCA9aaBKZzH1iGTEDyqVdBI3wINXv5a8pQOvcSMCppj95aAtHcp2jaVcf84j3OwXDbnaslgeD0JmQ89AEMnXr9zWOeY1H3y//g2rYC7NF9YJz1Qh1QRYa9KWHQ9xgMy9AJ9DwD4SjpNDwyRmqY2RoNR1hVq+Jl/+aeu9VXUejVd5QLQDzqFepMuPZvhvdIAdiyw2DryqB11klaTlsoRcsnpIFJ7wZ99kBYB4wOq0BM0dxLoS3Zo/jwhZJANHfCF2Dh9fmDuxNCYkFfCPb0EHYZjAY9DLq/J5Tt8VFDAiHcPMie/1N7rhz7uVBwzrlrHfyFBWArjkBjr5L8vctZk8EkZ4LJ7A5jt4Gw9B5G6zSEHEFxBmYb/ZWPDDWkiyMtMimyJxAv7HQt2+40nx+Z+XSWmASE3+7dezbCc2Qn/OVHwHtdgM8N4RopfD5oWC944U/O37iLwQWgEfojaLXB/6DRAkJioGGgYXTgDWZoE1KhTU4Dk9I5+MzTkNkDxqze0CWmRW16yQt3Avkro5ZDUkC4CcTxyYTfz8LPssHDl/FyZkI40yAchtQzDPTB9uXhJQ3NGSo9geCzc5H1UPQViAMNVfAW74ev7BCEM1Fs7VFwdVXg7DXQ+NzgWeG9ygJCzx2eg4Zr/C+4+avVgRfOJ2j10BgM4BkjYDA0XqM0mKExWqDP6AZTt0Ew9xsBfWomybcMlR0igcFW9/I7B1kuCHE4kWGyJxCL8+2XrnHYPibiHRUa8wTKls4Gu+ZTxfoZTQJxvFPC7oSQUPgCgWBCoYRmVWKAFwraCwmDQaeLOmE43h4lJxDaYWeh0820FI4YaygeZYy1OSZNzUn4RE7fZU8gBOenbQz4G1jm78en5aRCdauKQNVXr8H90xJF1sUQM4FoKaEQEgmfX2iVzapmh0LYYRDajRuE3YVg4hD5DkN7C1WJCYRQ98B8+hSknXtze+bTn1MCLRJIZNjAwhG6xrvKMr4UkUAs2O4p2Oc2DpCRA1WtcgK+0gOoePNBaIp3KcoTkgnE8Y4KNzsaW2kLLbWFpKLp7/KcpRDOLjCMNniGQUgYmv7e2o0JEoFTWgLBZw1A+g1P/uOwJAnfqczYJdDH7N01fbBJ9uYgikggXitwPbXBbp4Ru+GmnklFoOzdeQis+Qwa4VmvAl5SJhCtucs3TyyE5948H3z8EfwTCO5cNP1d+EHwZ8L//nxGotFoEPyf8GkR/LvwhwbCTkLT34WfCf+m0/6VNAj/X+6XUhIIntFDN/ZiZF4zU24kVH8MEBiZ4J5/80DLA3K7Iv87HMBH+fWpPzkSq5V5OUnuEFH94RJw7PgVNe8/CaamONypoo9XQgIhulMqEqiEBIJNzULqlQ/Clktr5qlo6SjW1GD5altDh8tykmrkNlIRCYQA4bGtvvIir17WKylyB4PqF5dAyaJ7gO0/iys0TGk0gQgTmMjDZU8gBp+GLrc9K7JXVFw8E+hq9Fc8OtSQoQQGikkgXsp3fbDVYb5cCVCoDbFDQCii1fD1K7LtRtAEQt61JFcCIew6JJ5zC5JPkPWWnbzwqXYiBIba3B/enmO5gojwMIUqJoF4Z5dr3K8N5j/CtJ8OpwRCIiCcjfCvWw6t3x3SeLEG0QRCLJKRyZE6geD0ZuhHn0/POkQWLjorBAInJ7pPuHaAZXUIQ4kPUUwCIXg6c5OvoTygTyDuNVUQlwSEmxrl786F9sAmyfynCYRkqFtUJGUCwfUajoxrHqE3LOQNeUxrz9D57fOGGxKV4qSiEojndzi/2+GyTFQKHGpHbBKoXfEBHN+/CW1dGXEHaQJBHHGbCqRIILjkTNgm3oCUCYrYVZYXONVOlECuxfX9XbnWs4gqCUO4ohKItwqc5/xht3wVhv10KCUQMYGyt2fBv+Fboo81aAIRcXhEmUgygWBNNhiGnYXM62aJYisVQgm0R+CEBNe51w+0ft3eOKl+rqgEQnD64c1+Z4VfZ5EKANUT3wQCDdUoe+MBYN86aAjUhqYJhLzri0QCwUMDZthZSL/6YdqeWt7wxpX2dH3A9fgwvVVJTisugXhuu/PHnW7L6UqCRG2JfQJCh9KKJTPBlO0T1VmaQIiKM2xhoicQfceg45UPwdCpR9i20AmUQDQEBpldP9092HpGNDLEnqu4BII+xhA7xFReOATs21aiVihCVXc0nGmtjqUJhCgYIxYiVgLBduiGtMmzYOk7MmJb6ERKIBoCSnt8IfiiuARCMOqRLX57mU9niwY2nUsJhEIgmytDF64cZt4DE+eFCR6YeT82/LYWFr0GVqMOZh1gNgBWgzb4n1mngdWggc3IQK8NRQsdo1QCfg5weFk4fTzcAR5OHxf8z+0D3AHA6Q3A5ecx8qQxcGv08AgrRGuEW2NCiTYDhVra2lqpsY0luzINAcfcPOXdUFRkAvHiTtfybU7zebG0AKgv8hCwMhySNF4keUohJAsZbCXSuDokcA6YWDc0wW4Q9EUJREZAOA/hYcywa22o0iajnOkYTCrspkxUcya4OZphRkaWzmpOYIjV/eUdgyznK42KIhMIWlRKactEHfZ0QANOtlSgh4mHzWgAE+x2qwFTfxi6wt/V4QS1MiYIBLpPAJvQBUJbsoDfi3q3Fwc9DNZ4M1ANxVzjjwnW8eCEkopHNeetyARCMHDOFl9VsU/fIR4WB/UxMgKjjBUYaapFqlELnc4EMLoWBWlYHwwFH0WmhM6iBCIg4B10JaBhWp7J+uD3OFHhBdZ7O2BrQBFtDSLwkk6RgkCWwV89K8+QJoWucHUoNoF4Od/95maHaWq4DtHxsUtgrKkSI831SDbpwOgMYR3hMe54N3bBUM8UR8Cbe03oNvEs2IAfdV4WG9xJWOPpGPpcOjLmCQyzeRbfmmO+QYmOKjaBEFp8/+JIqGaVec5TibGMOZs6cZU4w1KOLAsDo9kGaFveYQjFcX3RamjrDoYylI6hBKIiEOiYAzYzL3IZXABetwPFLhY/ujJQqqUJReQw1T2TAY9TbXZFtO5uiaRiEwjB2Ke2evYd8Bp7q3sJUOvDITCe244RNg9stiRoDDZAI84hNK29BPrDK8IxhY6lBCIi4O99FjizSDvOPAfe54DDUY+NDhNWagdHZBOdpE4CvYze/Q8MNfVRqvWKTiBe2+mYscFpfUqp8Khd4hAYrz2AEVYHbFYbNDozoBF/WWoCHhh2fSKOwVQKJdAGAe+ASYDOKD4jngcfcMPhdGCj04aVXC/xdVCJiiIw0up84OZBtvmKMqqZMeJ/Uovs6fSNfm8tG3zgTV8xRGAgSjAxqR5JFgs0YZ5niBSDcd/XgKc20ul0HiXQPgFTErx9zg3rfE77QlsaISQTPtS7XPi+PgkFEG580FcsEUhhAr4FI/QEMlHxKCk+gaClrcULttyS0tCA84z70TXRAsaYSGSnoS0ftbUHoC9eIzcGqj+GCfizTwGX1FVaD3kerLcBRQ0ufOntjSp6TVRa/oS0KbF09fGuKj6BeHuva/Rvtea1hGJExRImoAOLM9jNyEthYLSlAoyMCTXrg5Fe5yQc8fgW7825IqrDvlHTY73wOmqwpZbFj8wwBNDKVdKoFVEBpAmclOIec11fyzrSeqKRr/gEQnBu3lZP8RGvke7RRRNpiecKNygmWQ6gQ2ISNMZkxdR7ZCp2QFe+TWIaVF08EAhkDAWbPkgRrgof7Ly3DtUN9fjY1Yve5FBEVEI3opvRWzJzqCkr9BnyjFRFAvFavnPOBoflUXkQUa3hEMjVluHspCpYzQkAo8CjK34XjLs/C8clOpYSCImAr//F4PWWkMZKOoj1wem249v6NOzgaO8OSdlHqGykzfXYzTnWWRFOl2yaKhIIgQY9TCnZmohI0XDdUUxMtsNkTlTMbkNrjuiK14Kp3R+Rn3QSJdASATYxG4FuJysajvBh73E34Pu6BGwKdFa0rfFsnBoOTzbFRzUJxAs73F9vd5n+Fc8LS4m+j9KV4PRg4pCk+MTh2KL31MIg3MigL0pAJAL+XmeBs4hU+0Ekm1oT05hI1OOnugSsD9Anw4Rxhy1+sMXzzZ255nPCnijDBNUkEO8V1PdZZU/cS3snyrBKWlA5VleEU5OcMFrUkzg0d8Nw6CdoHGXKgEmtUDUBzpoJf8/TJLi6KS4m4cPf66rHL/VWrAlIfHNEXFdiRpoQk1MSGvpePTBpnxqcUk0CIcBcsM2za5/H2F8NYGPVxhN0hzE+2QOjinYcWoqF1lkO/cEfYzVM1C8JCfj6ngfemCShRnFVBRMJdz1W1pnwR6C7uMKptLAI9DF5d08fYhoQ1iQZB6sqgVi8yzF5TYP1LRl5xa3qkbqS4BkHg8oTh+YBZMq2QFeZH7cxpY5HTyDqvhfRmyCaBOHLwOeuD56R2EAfbYjGNRxBYxOd108dYFsazhw5x6oqgRBAzdniqyz26dXxsFHOyIqk24QA/q/jYZhNVtWccQjZdS4A454vgIAn5Cl0ICXQnIBv4CTwctY2IRAO4UvB7XHiv5Xd4UHkDewImBbTIrP0vupZw4yq+m5TXQLxWoHrqQ1284yYXkkKcW5qwh5kJ1qgiaILpkJcadUMjbsGhv3fKN1Map8CCfi7ngAuuYcCLRPHJJ4LoLDBhcX2fuIIpFLaJDAywT3/5oGWB9SESXUJhAD3gU1+d3VAZ1ITaDXZOpYpxOkdvNAZbWoyO2JbdVW7wJRuing+nRh/BDhjIgJ9zwUPcbrFKplgwOvAT9VGrGGzlWymqm3roAt4nhquN6vNCVUmEIt2ut7f4jRfoTbYSrfXAD/uStqDhIQU0dpoK93noH08B+OB7wB3jSrMpUbKT0DtByfDJshzsNtr8Xx9P/igD3s6ndA2gTyr+4PbBlmuVBsnVSYQAuR7NgRYJ8fEfvov0Yq6xrgdvVP/bKctkU4lqdF47TDsXaYkk6gtCiXg73YKuMT4vPYotBPfX+PAu97BCo2O+syyalnu2ZE6VTYtUW0CQbt0ivNGGcQewEUdPdBZU8URqGIpWkcZ9Id+UrEH1HTSBALpuWAzhpBWo3j5AWcNPq80YSfTS/G2Kt1ANXTdbI2hahOIxTuqu250pxT6edW6IPu6vtuyER1S0sFr6ZZkUzC09hLoD6+QPTbUAOUR4G2Z8PU4XXmGyWSRhvOjurYCz7lGyGSB+tXqNTxGmGuzp+Z2KFKjN6r+9n1mu3vNLrdpjBrBy2lzJ74KN3asgs6s3uI3JPlp6wuhL/yVpAoqW4UEvIOuBjSq/sgkQj3grscblWko1ajqBiIRFuEKHWD2rL13sHlsuPOUMl7V74b39jqGrqy1blEKTDXYcZFhF4Z2tABaBXbKVBBAXeVOMGVbFWQRNUVOAt6cKwGtKh9TS4ON82FrpQuf+1RTRFEaLu1oGZ/izLu6r021HzSqTiCE2Czc7tm8223MU8RqULgR9yTuREpiKv0tKsQ46Y+shLahOMTRdFisEvANuhK8hiYP7caX51HbUINnGwa1O5QOAPqbvVumDTYNUzML1ScQ7+5zjVlVY16j5iCQtt3MezAt/Qj0pkTSqmJOvqngY/CsN+b8og6FRsCbe7XqmmSF5hm55L6EZwAAHulJREFUUX5PAxZWdINbQ0v1tEX5lFT32Gv6WNaSiwR5yapPIARET2/3bN3jNtKj0S2sl7NMhzAmVQsNQx9ZRPp20u9ZBq3PHul0Ok+FBITmWEKtB/qKjADP+rC2hsN3ntit1BkZmcZZ/czebfcNNg2NRoYS5sZEAkF3IVpeSrcn7kZ6YiJ9ZCHCO01fuAraelUelBbB+/gSwSV1hz/7xPhymoS3PI+Khga81EAbKB+PNxZ2HwSfYiKBEBxZuN2zabfbqOrnSWK+hx9K2wujOUFMkXEvS1e2FUzlzrjnEMsA2MyhCHSkz/DFjLHXbccTVX3FFKlqWf3N3s3TBpuGq9qJP42PmQRCuJHxa511C8fHQlgi9+FkYylOTfNDQ2s7RA6xjZlMzX7oSlT92JIIl1gQGsg+EWxS91hwRXE+8JwfK6r1WOXppDjbpDRIqwFOTlb3zYvmvGImgRCcema7649dbvM4KReEknRdbN6PIWlCPxZa4ZtkXDT2ozAc/oWkCipbYgL+XmeCs6RLrDXO1PEcdtV58YGjZ5w5/pe7A8zu1fcOtpwQKwBiKoEQqlNu9qQc8XLxV+1liqUA3Tskx9JTKUW/x7SeWuj3fa1oG6lxoRHw9bsAvIE+7guNVvSjSusb8EpD/LUIN2p5fpiptptaq062FPmYSiAEB5/f4fxuh8syMfplrh4JdyTsRMfkDuoxOFYs9btg3P1ZrHgTl374Bl4Gnt5Qkjz2DU47FtbE17mIXIvr+7tyrWdJDpugwphLIARW0zYG/A0soyPITTGi70vcjoSkjoqxJ94MEfoBGPI/jDe3Y8Jf76Cr4qttvcKi5vE48WRlb4VZRcacRIYNLByhi7mmQzGZQCza6Vy6xWm5jsxSUI7Uh1MLYLCmKMegeLWE52Dc+b949V6VftO+FsoIGxvw4rHS2D+4mmd1vX3bIOtkZVAXz4qYTCAEPDO3+O3lPp1NPFTKkjQrYz+0BquyjIpza2jBKeUvAM7cAf7eZyvf0DiykGf9mH00O2Y9zjAEHPPy9DF5yCZmE4jX8p1zNjgsj8biqpzduRAaJuZ2w2IiVPqDP0HrLIsJX2LNiUBKb7BZtHmvIuPKsZhVkqVI06I1aqTN9djNOdZZ0cpR4vyYTSAE2I9v8ZQc9hk7KxF8pDbN6XqU3rSIFJ5E8/Qla6Gt2S+RNqomFAJsp+EIpNFOkaGwknPMrKLYqhPR3eA9+nCeqYucTEnqjukEYnG+/dI1DtvHJAFKKXtO11Ip1VFdURBgKvOhK6Od5qNAKNpUf7dTwCV2FU0eFUSWQCwlEWNtjklTcxI+IUtMPukxnUAIWBdud2/Y7TaNkA+xOJpp8iAORymlMPVHoCv8TUqVVNdxBHy9zgZvoVecVbUweA6zitX/S3t/s2fjtMHmkapiH6axMZ9AvL3fnr65zlLqZLWqLc84J6uEXjcLc2ErZbjWWQH9wR+UYk5c2eHrfzF4vSWufI4ZZwM+zCrtplp3rAzHDUt2dbqud0KFap0IwfCYTyAEBi/tcL2z1WW+JgQeihtCkwfFhSRsgzTeBhj2Lg97Hp0QOQHvwMsAWiAqcoAKmMn7nJhdrs46EUMt7ndvz7VcqwCMRE2IiwRCIDh7q7+mxKtTVdGE2V2KoNHGRT0sootcEcIDHhh3xeyjUEUgbjLCN+hK8BpGUTZRYyIj4HfVYV61ug6/djEGamcP1adG5rG6ZsVNAvFGvv3f6xy2V9QSnkc7F4GJj2KaaglJ1HZqeBa6go+h5QJRy6ICWiCgNcA78FL6uC/GFofLWY/5Nf1V49Vom+OWG3MSXlWNwVEYGjcJhMBo4XbP5t1uY14UvCSZ+lCnIzDqDJLookokJsDzMB74BnDXSqw4ttVx1kz4e54e207GsXd1jgb8t1b5Dbj6m71bpg02DYuXUMVVAvFRfn3qWpe1ws4xit3fnJFxGBaDMV7WX9z6qT+yEtqG4rj1X0zH2bQBCHQaLqZIKkuBBCrtdrxYp9wGXAlalh1jcaZflpNUo0B8REyKqwRCIPhyvnPRZoflViI0oxQ6Lf0IEo105yFKjKqZritZD6Zmr2rsVaKhgc6jwHZQ7peKEpmp2aaSegdea+ijSBeG2Vwv35pjvU2RxhEyKu4SCIHjE9u8RYc8BkXVTb019TAyrXTngdA6V6xYpmIndOVbFWufkg3zdT8VfEJMFZpVMm7F2La31oX3HL0UY49gSA+Tr/ihIca4q1YWlwnE4l32U9Y3WFeyUIb7l1iPYHAq3XlQ1CeChMYIZa+F8tf0FToBX59zwJtUdakqdOfoyLYJ8Bx+K/Php0APRZBiwGNUonP81AEJqxRhkIRGKOMbVEKHm1S9sMP56XaX5WIZVP9N5XBdGc7PDAD02pncoZBVv9ZeAv3hFbLaoBblvn4XgjfEbKNdtYRBVjt51ou3io04rJW/d8Zgi+uzO3Otl8gKRCblcZtACLznbPFVFvv0aTKxD6qdnXkIGr1JThOoboUQ0LirYdj/rUKsUaYZ3gGXAjr6flFmdKS1ivPUY06lvNc7swz+qll5ho7Seq4cbXGdQCzZ47xwdZ3lc7nC8VDaHhjNiXKpp3oVSEDjd8KwW7YlqUAif5nky7kcvJa2sVd0kCQ2zm2vwlN1uRJr/UvduGTXRVP6Wb+QzQCZFcd1AiGwf3Gna/k2p/k8qeNwa8IuZCYnS62W6lMDAdYHo1D6OuBRg7XEbRQeV/j6nkcf8xEnrUYFPIqqqvGGW/okYojV/eUdgyznq5GaWDbHfQIhgJT6UcZE4yGMSxduXFD8Yi3kmJPDczAc/AEaV1XMuRaOQ1xSN/i7ngho6HslHG5xNZZn8UuZF6sC0t3MiPdHF03ri74rAbxV4DxnjcPyFceTf9tZ4MH0zuXQ0EY/5GGrXgMPXeHvENqCx+OLTc9FIGNIPLpOfQ6XAOvFUyWZcGvIn4/RaoCxNte51w+0fh2umbE2niYQf0b0xR2uD7e5zJeRDvAjHfdBZ6InyElzjiX5utJNYKp2xZJL7foSyBoHNqVnu+PoAEqgiYDf3YB5VeTLXQ+xuD+6I9dyOSVP99D/tgZIF5i6J7kAKQn07jp944VPQFe1C0zppvAnqnCGv/tp4BLkv56nQnRxb3Kdoxb/rR1IjEO8FoxqDSjdgWhG5n+7HYPXO8xbnKxWK/YKvEi/C0Mz6aFJsbnGkzxt3SHoi/6IaZf9vc8GZ+4Q0z5S58gS2FpWh8/94rcAtzIcN8rmzruqv207WQ/UI50mEMfF6tWdjmc2Oq3/J2YIO/FVuKWznd5fFxNqnMrS2I/CcPiXmPTe1/d88EZ6rTkmgyulUwEPXjmagFKNuCV+Rlid//33INu9UrqidF00gWghQmK3/X4keSt0CRlKXwvUPpUQEG5mGA58pxJrQzPT1/9i8HpLaIPpKEqgHQIBeznm1g0VjVO8tekOFRxNIFoh9cgWv73Mp4v6tONtzG/I6Nw71HjQcZRASAQ0PjsMe5aFNFbpg3wDLwNPbyUpPUyqs6/86H4sYk+K2u5MQ8AxN0+fELWgGBRAE4hWgrp0j+vyP+rMH0RzszMncACXd9WA15ljcOlQl+QmoAl4oNv/LbR+p9ymRKbfnApvzzMBrS6y+XQWJdAGAU3AjQ+LeOTrIq8PIXxBnpDsvmJyP8uHFPY/CdAEoo1V8dIO1ztbXeZrIl04M1O2QW9Lj3Q6nUcJtE+AC0B/ZAW0jvL2xypoBJfSE/4uYwCN6OeVFeQlNUVuAn5HBebVRl5LZKjF/e7tuZZr5fZDqfppAtFOZBZs9xTscxvDPtJ7pX4b+mfS5EGpCz+27OKhL14Dbe1BVbgVSB8CNkP60sOqgEONFJ3A7rIKvO8PP4noY/bumj7YRO5OqOieSi+QJhAhMJ+52e8o9+usIQwNDjHAj4c7FdNbF6ECo+NEIaAr2wqmcqcoskgJCWSNAZtCzwSR4kvltkAg4MHjpVnwIfRGbBn6gHPeMH3UZ+BiPR40gQghwovz7Zeud1g/ZkPsXXF/SgFsNlowKgS0dIjIBLRVe6Av3SCyVHHE+bNPAZfUVRxhVAolEAYBh6MW/wmxwBQDHqNszklTcxI+CUNFXA6lCUSIYV+U73x5i8NyS3vDzzQV4oSOoWe67cmjP6cEwiXA1BdCV/hruNOIjvf3PAOclV5lJgqZCm+TwB+VfvzgyW6XUp7N9cptOdZb2x1IB4T4KzUFFSTwzHb3ml1u05i2cMzqdBhandBpk74oAfkIaJ1l0B/8ST4Dmmn29TkHvInuyCkiGHFsBBfwYk5p9zYJDDB71t472Dw2jjGF5TrdgQgLFzB3m7e00GPIbGnav5P2onMivS4cJlI6nBABjbsGhv3fEJIemlhfvwvAG+h7IjRadBRpAkcb7Hi1vm+LarJNvrJHhhhpE5YwgkATiDBgCUPf2lHXa5fPVlAT+HvlGy04zOpSQu+0h8mTDidLQCg4pd/7FTQ8S1bRcdI5rQ6BfheC15FvryypY1SZuglwAcwp6QIOf78+nKpjfQMMjoHX5yYfULeD0lpPE4gIeL+xs+HG9c6E15sXmbovOR8JCakRSKNTKAHCBAIeGA/9CHjqCStqFC+cdfB3Gw8w9CyQJMCpkrAI2O01eLou59gc4UtwlNV+042DEt8ISxAdTM9ARLoGmh+qHIRiTMrS0KI4kcKk84gT0HCB4MFKrf0oUV1cco/GAlFahqgeKpwSiJgAz+HjYh47kRUUQQ9NRkySJhCRowOe2+H+ZafLNOHhDgUwWOghsWhY0rkSEOA56I5uAFOzj4iyQNpAsJ3yAPqxQoQvFSoeAZ+rFo9XD8Qgi2fF3bnmU8WTHF+S6COMKOP9yY6io+NStZ2goSijREmnS0RAV7kTTNlWUbWxnYYjkBZ2wVZRbaDCKIGQCfA8VtdwpZfmdu0c8hw68B8E6LeeCIti65EKf7o+QDsCicCSipCGAFO7H7ritaIo83cdBy65pyiyqBBKQAoCFX5dYGi3dHpIJ0rYNIGIEqAw/eu9VaP7WNg1Ni1LeYrAk4qQhoC2oRj6IyujUhbofirYBPpLXFQQ6WRJCTg4ht/nYsae0zdtnaSKY1AZ/cITKajfH6j9vxyT+xktJSoSUSpGCgIaZwUMB3+ISJW/10Rwlo4RzaWTKAE5CHA8kO8x3zuxV8p/5dAfazrp152IEf3+QO2buWb3VBFFUlGUAHECGk8tDPu+DkuPr8+54E3JYc2hgykBuQnscJsXT+yVcoPcdsSKfppAiBzJn/bX/jzQ4qanekXmSsWRJaDxu6ArWdvuNU8uoTMCXcaA11vIGkSlUwIiEyhwmX85vXfKaSKLjWtxNIEgEP4VB2p29DN7BhEQTUVSAgQJ8NA0HIXhyIoWdfi6TQCfKJx3oB8bBINARRMgsMdt2jmhV2ouAdFxLZJ+EhAK/8oDVUV9zb7GSiX0RQmoigAPofAU/C6A58DrrX9WlaQfF6oKIzU2SGCv21A8vlca7SNPYD3QTwQCUJtE/nGopqqH0dOBoAoqmhKgBCgBSqAVAoe8puoTeqSmUUBkCNAEggzXY1JXH6yydzf5bITVUPGUACVACVACzQgc9hgc43qm0VawBFcFTSAIwm0SveFIlbuL3kfbEkrAmqqgBCgBSqDEb/CM7JZmpiTIEqAJBFm+x6RvOVzpyzD4aeUziXhTNZQAJRCfBMp9en9e946G+PReWq9pAiER7yVbapNHpfmrUpgAbVMoEXOqhhKgBOKLQC2rY9dX6dOm5KXUxZfn8nhLEwgJub+7z5U1ymw/YtOyWgnVUlWUACVACcQ8AQfHcL/X6rpPze1QFPPOKsRBmkBIHIj3Cur7nJDk3mPQcJS9xOypOkqAEvj/9u40Ro7iigN4VXV1z+w965ldn5u9fYEVINhgg8EXOBwBghIUKQoIAohDOCQiUqQgoiAiRQpKiJEBATGCfIlIRIBwxOBjwWCDTYDI4Gtv1ufuzO7sPdNd3RXNIqyAAXuGmZ7u6j8fmA9013vv9wr7abqnW00BUzL59nDJvB8vrCrMu+rVZPvGVeEvsW9MmP0CTx0Ymb+2Ymxf9mfiDAhAAAIQ+KLAptHyBTfOq9wPGXcFMEC4630iWmaIWFk+sRffRBSpAQgLAQj4XiDzzcO2sdKFGB6K00oMEMVxn4qauZyxuDK1H/dEFLEJCA0BCPhSIHPPw+6R8Hxctihe+zBAFM9+KvLGPYm68yJ2N36dUeRGIDwEIOAbgcyvLd5Nao24YbK4LcMAUVz/qeiZn3ieVS368ZwIDzQDKUAAAp4WyDzn4cMhXoufaha/TRggit+DExngiZUeagZSgQAEPCeAJ0x6qyUYILzVD4J3Z3isIUgHAhDwhADebeGJNnwuCQwQ3usJwVs8PdgUpAQBCBRNAG/VLBr91wbGAOHNvpC2znjf3BJzjkfTQ1oQgAAEXBE4OGkcWtEcq3MlGIJkJYABIisudw9+rXPogzNLJs9yNyqiQQACEPCGwEeTJR9e2lx9tjeyQRZfFMAA4fE98fzB4ReWlI9f5fE0kR4EIACBvArsGit78Zq5VVfndVEsllcBDBB55SzMYs8fHF5/btn4XQzdKgwwVoUABDwj4EhC3hsve/iauVXrPJMUEvlSAfyV5JON8cLB5G2NofQjMd1Gz3zSM6QJAQhkJxC3NNmdDt1x9dzIY9mdiaOLIYC/jIqhnmPMF9uT50Q1sbMxbBo5LoHTIAABCHhSoDtlmAmbL72qNfK+JxNEUicJYIDw4abY0Z1INoTSVT5MHSlDAAIQOEmgJx0aXtYYjYDGXwIYIPzVrxPZvt2V6G0Mp7/l0/SRNgQgAIEpge5U6JMLmqL14PCfAAYI//XsRMY7ehI7Goz0Uh+XgNQhAIEAC/SYoZ3LGqLLAkzg69IxQPi6fYS80Zn40zRd/CzKcXOlz1uJ9CEQGIGE0OSgxf98cXP054EpWsFCMUAo0NS29sRSg8utDSEzrEA5KAECEFBYoCdtpExBV61oje5UuMxAlIYBQqE2b+5IfLKwNI1HvirUU5QCAZUE9k6E+ta0RHHvliJNxQChSCM/K+PfHclXZhvmZVEuFKsM5UAAAn4VSAhODpvGq99tiVzu1xqQ98kCGCAU3BUv7R+8PWLI9U3hNFewPJQEAQj4SKArFRJJk667cv60R32UNlI9DQEMEKeB5NdDtnQO9S8omazxa/7IGwIQ8LfAvsmSgdXN1bX+rgLZf5UABgjF98ar7UNtc0LWxbikoXijUR4EPCSQuWRxKK2/cVlr9QoPpYVU8iyAASLPoF5c7uX24TsrNfFQMy5peLE9yAkCSgl0pkJixOZ3X9FatUGpwlDMSQIYIAK0KV7vHDq0IDw5G2/1DFDTUSoEXBLIvEVzX6rk8CXN1XNcCokwRRbAAFHkBrgd/tX25N9rdfMHMw38SsNte8SDgKoCR01O+i3jH5e1Rn6oao2o62QBDBAB3BWbekaWhR3rtdZwuiyA5aNkCEAgjwLtqdB4iumXrm2o3JHHZbGUDwQwQPigSYVKcXNnYndjyDq3hDmFCoF1IQABRQUmHUa60/p7a5qjixUtEWWdQgADRMC3SFv30LoKKh6caVh6wClQPgQgcJoCR03dGpX8nhWN1etP8xQcpqAABggFm5pLSW91J/bVh8z5GpG5nI5zIACBAAjYhJLetLH/wsboggCUixLxDQT2wOkKtPUkf1lKxANzDNM43XNwHAQgEAyBQ6ZhThB+74qGyB+CUTGqPJUAvoE4lVAA//vWzsSHdYb17TIN90YEsP0oGQKfExi3Gekz9f+uao6eBRoI/L8ABgjshy8V2NI19JMSaj/WEDJLQQQBCARToCdtTExK7bbVTdV/DaYAqv46AQwQ2B9fK7C1M7Flui5WVXMbUhCAQEAEhoRGjlt866rm6OqAlIwycxDAAJEDWtBO2XMkvmA4Jd9sCluxoNWOeiEQNIGulB6vCtOLFs2K7Qta7ag3OwEMENl5Bfro7V3xDaWavHWmbuE14YHeCSheRYGjli4mbPr48qbYnSrWh5ryL4ABIv+myq/Y1pnYVatbiyMcN1kq32wUqLxAUjDSb+m7VzRHlyhfLArMqwAGiLxyBmexXb2JM1I22dwUSs/Ay7mC03dUqo5A5uVXXenQsbBG1iypj36sTmWoxC0BDBBuSSsaZ0t7/FelnNxXHzJLFC0RZUFAOYHetDE5Icj9q1tjv1euOBTkmgAGCNeo1Q7U1jX0bBUX107nlqZ2pagOAv4VOC50e1jw51Y0VV/n3yqQuVcEMEB4pROK5LG9K767VhfnVuAhVIp0FGWoIDBqZ+5z4O8tb4rhxVcqNNQjNWCA8EgjVEpjYGBg5oFR7c1aw2opZ3h+hEq9RS3+EhhzNNJv6h3zKuyLampqjvore2TrdQEMEF7vkI/z29478B1bsH/OCok6DBI+biRS951AZnA4kuZ9Gne+v7y+5j++KwAJ+0IAA4Qv2uTvJLf1JtcQ23lmlm7NrNDwjYS/u4nsvSwwamvkiKUfJRq7fmV9ZLOXc0Vu/hfAAOH/Hvqmgk2dI1fqVDwxW7dmYJDwTduQqA8EMoPDYUs/Zkl+y9rmypd8kDJSVEAAA4QCTfRbCZlBwqDicXwj4bfOIV+vCXz2jYMp+a0YHLzWHfXzwQChfo89W2Hm0ga1nY213KqL4GVdnu0TEvOeQFJopF/ofVJjN+FShff6E5SMMEAEpdMernPT3mNn8pD+XA0XrTEd90h4uFVIrcgCcUsjA4K3i7R17dqFMz4qcjoIH3ABDBAB3wBeKr+9vT10WIu9Vc3FOTXcYl7KDblAoJgCA0J3hgR/f7Ydv7C1tTVdzFwQGwKfCWCAwF7wpMCb3YMvVzD7kum6pXsyQSQFARcEjlu6Nepor1/UOO0KF8IhBASyEsAAkRUXDnZb4J2e+IYQdW6Yrosyt2MjHgSKJXDc4uNpyZ4+vwGv1i5WDxD31AIYIE5thCM8ILC3b+DmCYf8JqqJOSEmPZARUoBAfgXSDiUJmx8qZeS3C+tqnszv6lgNAvkXwACRf1OsWECBzGOyO8bIX0qYXFWri1ABQ2FpCLgi0G/x9KRDt7aUk5/icdOukCNIngQwQOQJEsu4L7CrN3GLsOW9Md2uK9ds7GX3W4CIOQqM2ZqMW1of1+gDS+qjT+S4DE6DQFEF8IduUfkRPB8Cx44dK+uY0DaGGblilmHhXol8oGKNgggcMfXxlENebim1b5oxY8Z4QYJgUQi4JIABwiVohHFH4EBv/4VJydaHqbOoRhfcnaiIAoGvFhiwuEhJtidCnXXz6mvfghUEVBHAAKFKJ1HHSQLv9iRvFtK+p4w5LbW6pYEIAm4J9Fu6Pe6wDk61B89riOCGSLfgEcdVAQwQrnIjWLEEtncmfiEpubNCsxum6wIPqSpWIxSOe9zizqit9VBJNixvjv5R4VJRGgSmBDBAYCMETiAzTFBKby/TRON0XeCbicDtgPwVfNzi9rjNu6WUj2JoyJ8rVvKHAAYIf/QJWRZIIHOZw5T2XWVMzq/lpsHwf0SBpNVY1pGE9AvDHHfofoNqD+PyhBp9RRW5CeCPy9zccJaCAnuOxBcMpdmDBnEuqOaiqkJzFKwSJWUrMGozMiT4sEnY29Uh555Fs2L7sl0Dx0NARQEMECp2FTXlRWBbR/zXOiPXV3KnKcbxi468oPpkkbjgYkSwLsshz6xsif3OJ2kjTQi4KoABwlVuBPOrQPvRozXHU/pDBpWryjRZU63h3gm/9vLL8h6yM/cy0AFT0q3Tw9bdrTNnDqhUH2qBQCEEMEAUQhVrKi+w7chITIyL+zVGLw1Tu26abhuVmq183SoUOGJrZNDSzJTU+mxHvsbL+H0rZ1XGVagNNUDATQEMEG5qI5bSAs8fGL4jpDk/Mqg8s0Jzqmq4xfDir+K2PPOCqgGhO6M2GzYl/Shts79dM6/qkeJmhegQUEMAA4QafUQVHhTYuCdRN83Q7ghp5BKdOC3lmlMxjQtWjpszC9KtMZuRQcGdMZuNWoR1pG3y+qBpP3LTomhfQQJiUQgEXAADRMA3AMp3V+CpD4YiVeXsxhIqL9eJs7CMObEqLowIxy8+sulEUjAyLLg57rC4RdjeSUlfGR5znrrx7OpkNuvgWAhAIHcBDBC52+FMCORNYHNvYiEX9AbJyGJNkiZGnGiYyZIy5mhVPJj3VgwLjYw7zE45dNIhLGFT0kUdsltw+fSa+ujevOFjIQhAICcBDBA5seEkCLgnkLkUUhvm3+PUOZ9TOo8TZxYndqSEk7BBHS1MJS3VHN88VlYSQiZsRlKSSlMye1KQlCBaUhB2REh5QEj2Tn9K/AuXHtzbY4gEgVwEMEDkooZzIOAxgWc/Hp4WovZSQ2eLGJMtVMo5GiG1GiMRTpxyTqeGDYNSolFCKKOUUuJkPgmVn35qRJLMkzgZkVMHZT4z/2RGE1t++pl5EqM99SmJpExOfZKpTykJyfzLNiUzhcwMBWzMdkjSJqRfUnrIcWiHaTl70lLbed0ZVYMeI0Q6EIBAlgL/A2VE3gBYElIlAAAAAElFTkSuQmCC;" vertex="1" parent="1">
          <mxGeometry x="43.460000000000036" y="195" width="56.54" height="60" as="geometry" />
        </mxCell>
        <mxCell id="rr55XMxGJXw-yliVTniT-59" value="" style="shape=image;imageAspect=0;aspect=fixed;verticalLabelPosition=bottom;verticalAlign=top;image=data:image/png,iVBORw0KGgoAAAANSUhEUgAAAhAAAAIwCAYAAADXrFK/AAAgAElEQVR4XuydB3hb1fn/v5KsLe+9nek9s4GwZxlhhLAJhL3+baGlpZuuHx3QAZRSKCNhJiFAKC0QCCN72Y6349jx3ltbtqT/c5WEJI5kS1f3SlfSe58nTwI+5x2f99j6+twzRKCHCBCBkCSg0+mSRCLRAqvVWigWi+cDyLLb7SkikSgWQDgA2TEwFgBau90+JBKJugG02my2QxKJpNputx/QaDS9IQmQkiYCIU5AFOL5U/pEIGQI1NbWymbNmnW53W6/2GaznScSibK5SN5utzeKxeIvRSLRZ0eOHPk4Pz+fERz0EAEiEOQESEAEeYEpPSKg1+sZ0XATgJUA5DwTMQPYKBKJ3lar1R/z7IvMEwEi4EcCJCD8CJ9cEwG+CDCzDZmZmQ/Z7fb7uJpp8DRWZmZCJBK92NbW9jzNSnhKj9oTAeETIAEh/BpRhETAIwI6ne7HAB4DEOdRR/4aDwJ4WqPRPMWfC7JMBIiArwmQgPA1cfJHBHgioNPpbheJRL+y2+2zeHLhlVmRSHTEbrf/SqPRrPXKEHUmAkRAEARIQAiiDBQEEWBPwGQyzbNarX+22+1Xsbfiu54ikWizRCL5gUKhaPKdV/JEBIgA1wRIQHBNlOwRAR8SGB8fv0csFj/rg8WRXGdlttlsj0RERLzEtWGyRwSIgG8IkIDwDWfyQgQ4J6DVav8pEonu49ywDw3a7fYXw8PD7/ehS3JFBIgARwRIQHAEkswQAV8R0Ov1yXa7/U0A5/nKJ89+mDMkblGr1T08+yHzRIAIcEiABASHMMkUEeCbgFarLRCJRBsBcHIIFN/xemC/0W63rwwPD6/xoA81JQJEwI8ESED4ET65JgKeENDr9WV2u/0jACme9Augtt0ikehKtVpdHkAxU6hEIGQJkIAI2dJT4oFE4NjMw6dBLB6Ol6PbbrdfQjMRgTQ6KdZQJUACIlQrT3kHDIFjax6+DMLXFq5qwJxgeR6tiQiYIUqBhigBEhAhWnhKO3AI6HS6rUG0YNJd8F9qNJrz3W1M7YgAEfA9ARIQvmdOHomA2wSCYaum28lOaUhbPNmSo35EwDcESED4hjN5IQIeEzh2SNS/PO4YRB1sNtu9dNhUEBWUUgkqAiQggqqclEywEGCOp56cnKwOwBMmuS6BOSwsrJCOveYaK9kjAt4TIAHhPUOyQAQ4J6DX6z8MlLstOE9+ikHm7gy1Wr2Cbz9knwgQAc8IkIDwjBe1JgK8E2Bu1QTwOu+OAsvBarrFM7AKRtEGPwESEMFfY8owwAjo9foWoV7J7S+UzFXgarV6tr/8k18iQAROJ0ACgkYFERAQAZ1O92MA/yegkIQUyhMajeYpIQVEsRCBUCZAAiKUq0+5C4pAbW2tLDMzswtAnKACE04wg21tban5+fkW4YREkRCB0CVAAiJ0a0+ZC4yATqf7PoBnBBaW0MJ5VKPR/EVoQVE8RCAUCZCACMWqU86CJKDVahtEIlGw3bLJKWu73d4YHh6ew6lRMkYEiAArAiQgWGGjTkSAWwJ6vf5yu93+H26tBqc1kUh0hVqt/jg4s6OsiEDgECABETi1okiDmIBOp3sDwC1BnCKXqb2p0Whu5dIg2SICRMBzAiQgPGdGPYgApwSOLZ4cp1Mn3cZqbmtri6DFlG7zooZEgBcCJCB4wUpGiYD7BAwGwzU2m22T+z2opVgsvlalUr1PJIgAEfAfARIQ/mNPnomAg4Ber3/BbrffTzjcJyASif6pVqsfcL8HtSQCRIBrAiQguCZK9oiAhwRo94WHwADQbgzPmVEPIsA1ARIQXBMle0TAAwI6nS4JQI8HXajpCQLJGo2ml4AQASLgHwIkIPzDnbwSgeOvL2j7JsuxQNs5WYKjbkSAIwIkIDgCSWaIABsC4+PjPxaLxXT3BQt4NpvtiYiICLobgwU76kIEuCBAAoILimSDCLAkoNPpXgFwJ8vuod7tVY1GsybUIVD+RMBfBEhA+Is8+SUCAHQ63VYA5xEMVgS+1Gg057PqSZ2IABHwmgAJCK8RkgEiwJ4A7cBgz452YrBnRz2JABcESEBwQZFsEAGWBHQ63QBd380SHjCo0WjiWfemjkSACHhFgASEV/ioMxHwjoBOpzPREdasGZo1Go2CdW/qSASIgFcESEB4hY86EwHvCOh0OhsA+j5kh9Gu0WjE7LpSLyJABLwlQD+4vCVI/YmAFwRIQHgBDyAB4RU+6kwEvCNAAsI7ftSbCHhFgF5heIWPXmF4hY86EwHvCJCA8I4f9SYCXhHgehGl1WplLueC3mCAQW+AwWCATq+HwWiA0WiG0Wh0/DGbzbBZbbDarLBOWo/+bbMd+/ckbDY7GFvMI5FIIBaLIBGHQRImgUQshkQsOfZvCcQSMeRyOZRK5bE/cqiUKmjUaqhUKqjUKqhVKqjVaoctDh9aRMkhTDJFBDwlQALCU2LUnghwSIDtNk6z2YLevj4MDPSjf2AQg4NDGBoawvi4lsPouDcVERGO2NhYxMXFIiE+DvHxCUhKTIRcLvPYGW3j9BgZdSACnBIgAcEpTjJGBDwj4M5BUn39/eju7kFPb2/ACAXPKAAnC4vkpCSkpCQjMSFhJjN0kNRMhOjrRIBHAiQgeIRLponATASmHmXd2dWN3t4edPf0ore3DwODg5icmJzJTFB+PUwahvi4OCQlJSIlOQlJSclIS005OVc6yjooK09JBQoBEhCBUimKM+gIfPrpp2qFQrGpf3Do4tbWdsfrCLs96NLkNCGRCI7XHllZGUiIi/3MZDJde8kll+g5dULGiAARcIsACQi3MFEjIsANgXc3blxj0BuuGxsbX9Tb0xvPLFykhz0BZkFnUnLSQGRkxD6VWvXeDStXMpeT0UMEiIAPCJCA8AFkchG6BP73v/9lDQ6P/mxcqz1/ZHg4bWxsXBq6NPjPPDIyYiI6JqYzIjx8a1xM1G8vu+yyVv69kgciEJoESECEZt0pax4JfPLJJzFDQyNPjoyOXtHXP5BhMpnotEQeebsyrVAobIkJ8e3RUVH/iY2N/uWll1467IcwyCURCFoCJCCCtrSUmC8JfPnll2G9vf2/HRkbvba/f3COXq8n0eDLAszgS61W2xIS4pqjI6M2JSUl/Oy8884LzZWpAqoJhRL4BEhABH4NKQM/Etj4/vurhgdHHu/t7yvWjmvD/BgKuXaTQHhE+GRSQuLBmLjoP6685pr1bnajZkSACEwhQAKChgQRYEHgzbff/c3I6Ojt7W1tGbRzggVAAXRhdnRkZGYyrzjW3nLTDT8XQEgUAhEIKAIkIAKqXBSsPwm89dZbcROT9ucGBvsv6+sbiPBnLOSbWwKJifHj8XEJ/5OGiR6++eabB7m1TtaIQHASIAERnHWlrDgksGHDB2eMa8f+1NXdtVir1dFrCg7ZCs1UeLhmMjUldW9EeOQPr7/+6p1Ci4/iIQJCIkACQkjVoFgEReD99z+6uH+w//86OztLTCYzLYoUVHX4DUahkNvS0tIqE+ISnrjmmis/49cbWScCgUmABERg1o2i5pHAxvffv25oYPiX7R0dBRaLhb5HeGQtdNMymcyekZ5eExsf8+TKa655T+jxUnxEwJcE6IejL2mTL0ETWL/+vTsGh4d/3N7enn38KmtBB0zB+YwAcw15RkZGY1xMzFOrVl33ms8ckyMiIGACJCAEXBwKzTcEPvjgg8L+gcG1TYdbSnzjkbwEMoF5c2dXJsTH3X711VdXB3IeFDsR8JYACQhvCVL/gCaw9s2317e2tl5DZzgEdBl9HjxzlkRWVtb7t99y0yqfOyeHREAgBEhACKQQFIZvCby7YcNPurp6Huvp6Y3xrWfyFkwEkpOThlNTk5++4frrfx9MeVEuRMAdAiQg3KFEbYKGwKZNm87qHxh8sbmlNS9okqJE/E5gzuysuoT4uPuuvfba7X4PhgIgAj4iQALCR6DJjf8JvL7ujbdaW9tX6XQ6if+joQiCjYBGo7FmZWWsX33brTcHW26UDxFwRoAEBI2LoCfw9vr1Vw32Dz3f3tGRFvTJUoJ+J5CRnt4ZlxD70E2rVm32ezAUABHgkQAJCB7hkmnfEbDb7VcDOG0XReOhpht6enuzJywTgh/r3T09qK2t8whafn4eUpKTPeojtMbBmLdUJrUnJyU1Zs+f9+40vCtFItEHQqsHxUME3CUg+B+q7iZC7UKbgN1ulwN4AEAUQ6K/v7+wrb3jktHRMXUgkDGZjNi1ey8mJz27ZTosLAzLli6GQqEMhDRPizHY846KitRnZqR/mpCQMHXL5yiAF0QikTkgC0dBEwEAJCBoGAQNAbvdng3gpqbDh1d2dHTmW622gMmt8uBBDAywu8MpPj4OJcXFAZPryYGGQt4SiRjp6Wm18+bO3XhS7m+LRKLGgCwaBU0EjhEgAUFDIagIbNnyebMdotmBlFRbezsOHWryKuT58+chMyPDKxu+7hxqeSclJvQVFhb8E8AukUj0qa95kz8iwDUBEhBcEyV7fiHw3ocfntfR1vFuV1d3/NIlixEeHu6XODx1qtVqsXvPXk+7OW1PeXOCkVcjMplUOzQ6suK6FSu+5NURGScCPiBAAsIHkMkFvwTefnfDr5qbm38yNjYuZTxFRUVh0cIF/DrlyPq+/QcwOsq8Dvf+oby9Z8i3BabedrttYs6cOb+/6Ybrf8W3P7JPBPgkQAKCT7pkm3cCr72+7sO6+vqr7PZTXc2ePQtzZgv7TUZzSwtaWo5wyojy5hQnp8ZOrrdIBOTl5m6+Y/VtKzh1QsaIgA8JkIDwIWxyxS2BF//1ct3h5pZcV1YXLChDTHQ0t045sjY8MoIDB8o5snaqGcqbF6xeGXVV77lzZtffd+/ddCqqV3Sps78IkIDwF3nyy5rAe++9l9za1lHf29cfOZ0RjUaNZUuXCHCzkR27du+BTqdnzYDyPp1AoNY7KTFhLCszPfe6667r4WVAkFEiwBMBEhA8gSWz/BDYtOnDW6pqqtfq9QaxOx7S09OQk83s7hTO09DYiI6OTl4Dorx5xeuRcXfqrVarbEUFhbdfe+2KNz0yTo2JgB8JkIDwI3xy7RmBdevefLaqpvZhz3oBxUWFSEhI8LQbL+37+/txsGrqmUK8uKK8+cHqkVVP611UkP/cbbfd8ohHTqgxEfATARIQfgJPbj0j8O9XX/+ioaHxfM96HW0tl8sdrzKkUscmDb89ExMTjlcXZrNvDh+kvAOz3jk52VvvunP1BX4bqOSYCLhJgASEm6Comf8I/PuV13c0NDae4U0ESUmJKCwo8MaE132ra2rQ29vntR1PDFDentDitq039c7Jzt5515rVZ3IbEVkjAtwSIAHBLU+yxjEBLsTD8ZDycnOQmprKcYTumevq6kJdfYN7jTluRXlzDNQNc1zUm0SEG6CpiV8JkIDwK35yPh0BLsUD40csFjteZahUKp+CNxgMjlcXNpt/7uagvAO33iQifPqtSs48JEACwkNg1Nw3BLgWD8ejjo2NRVnpabd+85pUeUUlhoaGePUxk3HKeyZC3H2d63qTiOCuNmSJWwIkILjlSdY4IMCXeDge2ry5c5CVlcVBpDObaG1tRdPh5pkb+qAF5c0/ZL7qTSKC/9qRB88JkIDwnBn14JHAq2vXba6rrb+SRxcO04sXLURk5LTnUHkdwtjYGPbu2++1HS4NUN5c0jzVFt/1zsvP/ejO22+7ir8MyDIR8IwACQjPeFFrHgm8+fa7v6usPPgTZy76+4/uXkhISOQkgsiICCxevIgTW66M7N27D2Pj4175oLyp3icPoJKS4t/fctMNP/VqUFFnIsARARIQHIEkM94ReGf9xh8fOFD+f86smM0mVFQcvTeitLQMcrnCO2fHemdlZWLe3Lmc2JpqpOnwYbS2tnllm/KmejsbQAsWlD1x46qVT3k1uKgzEeCAAAkIDiCSCe8IrF+/8eF9B8qfdWWlvq4Ww8PDji/HxMQgNy/fO4cn9WYWVDILDLl8mAWTzEI6bx/Km+rtagwtWlD2yKpVK5/zdoxRfyLgDQESEN7Qo75eE3h7/fo76mob/m0ymZzebdHd1YUjR1pO8TNr1mykcHSeA7Olk9nayWx15OJhtmoyWzaZrZvePJT3CXpU79NHkkKhsOXl59x106pVr3kzzqgvEfCGAAkIb+hRX68IfPjhh5fW1DZ8ODo2JnNmSK/TobKywqmPkpJSqDUar/wf75yWmorc3BxObNXXN6Czq8srW5T36fio3qcziYqMtBTk56xYsWLFJ14NOOpMBFgSIAHBEhx1857AM3/9+1BPT2+MK0vVVQcx7mIRYkREBAqLir0P4piFwoJ8JCUleWWvt7cX1TW1XtlgOlPepyOkejsfVsnJScOPfu//cfsOzusRTAZChQAJiFCptMDy/Oe/Xqppbj7icjFDe3sbOtrbp406PSMDGRmZnGTGXLTFvMpgLqBi8zAXZDGvLpgLs7x5KG/X9KjeztnMmTOr9v577/HvRS/eDHrqG7AESEAEbOkCN/DXXn9jU21d3TWuMhgbG0VNtXtXXhcUFiIyMooTGIkJCSgqKmRlq6qqGn39/az6Hu9Eec+Mj+rtnFF+Xt77d6y+9dqZCVILIsAdARIQ3LEkS24QeGf9xp9WVlT+1jrNvRAVFQdg0Lu3CFGlVqG0dIEbnt1rkpOdjfT0NPcaH2vV0dGJhsZGj/o4a0x5z4yQ6u2ckUQsRklpyc9uXLXydzNTpBZEgBsCJCC44UhW3CCwfv36sw63tH4+MjLq8j1BS3Mzenq63bB2oklycgpmz5njUR9XjUUiEZYuXQyN2r0Fmjq9Drt374XdbvfKP+XtPj6qt3NW0dFR5rmzsy5ctWrVdvdpUksiwJ4ACQj27KinhwT+8vfn+rq7uhNcdRsaHERDQ72HVo82z8nJRWxcHKu+UzvFxERjQVmZW7YOlJdjeHjErbaU96kEqN6eD5uZxnlKakr/9//fw9wc3+l5eNQjxAiQgAixgvsr3X+/8vq2hsbGs1z5ZxYfVlaUw2KxsApRJpOhpLQMzGJILp45c2Zj9qxZ05pqOXIEzc2nnlHhqW/Km+rtyZhxZ5znZGdvv2vN6uWe2KW2RIANARIQbKhRH48IvPXO+j9WVFT+cLpOhxobMDAw4JHdqY3j4+MxP5ub8xwY24sWLkBUlPMFmqOjo9i3/4BX8TKdKW/2CKnertmVlpb86eYbVz3Oni71JAIzEyABMTMjauEFgQ0bPjjjUFPjl64Oi2JM9/X24vDhJi+8nOg6d+48JHp5nsNxaxHh4ViyZLHTuPbs2YtxrdarmClvr/A5OlO9nTNkDpmaPy/7vOuvv3qn95TJAhFwToAEBI0MXgk8+9w/Ots7OlNdOTEajY5XF8wR0Fw8zJHUzKsMpVLJhTlkZmRg/vx5p9g6dKgJbTOcUTGTc8qb6j3TGJnu6+6M84z0tK5HHn7Qsy1F3gRFfUOOAAmIkCu57xJ+5bW1W+rrGy6czmNdbQ1GRrxbhDjVfnR0NPLyuTtXp6S4CMx0OfMwr1kqD1Z5DZHy9hrhtwao3q5Z5ubmfL7mjtsv4o42WSICJwiQgKDRwAuB9es3fnffgfK/Tme8s7MDba2tvPjPzMpCWlo6J7aVSgWWLl3isLV79x4YjSav7FLeXuFz2pnq7ZrpogVl31u1auXfuKdOFkOdAAmIUB8BPOX/l789N9Dd3e1yX6VOq8XBg95feT1d+MXFJdCEh3OSYUpKssNOd3ePV/Yob6/wTduZ6u0cT0pKyuD3v/vw0Sk0eogAhwRIQHAIk0wdJfD6G2+ur6muvX46HlUHK6H1chHiTLzDw8NRVFwyUzOffp3y5g831ds124LC/A2rb71lFX/0yXIoEiABEYpV5zHnjR9+uLCupnaXdlwX5spNW+sRdHZ28hjFCdNpaWnIzJr+PAefBAKA8uafNNXbOePwCM1kXkH+spUrVuznvwrkIVQIkIAIlUr7KM+ZbtlkFkwyCwh9+TALKpmFdv58KG/f0ad6O2dNt3b6bgyGiicSEKFSaR/kyVyUdeBA+W9duWK2ajJbNpktjL58mC2dzNZOZuubPx7Km+rti3HnzjhfsKCMLtzyRTFCxAcJiBAptC/SfPovfxvp7e1zebd28+Em9Pb2+iKU03wkJSVhztxTz3PwVSCUt69In/BD9XbOPCkpcfSx73/Xv9Nxvh8O5JEnAiQgeAIbamZfXbtuc11t/ZWu8h4Y6MchDq689obr/OxsxMe7vMvLG9Mu+1LevGB1yyjV2zmmvPzcj+68/bar3IJIjYjANARIQNDw8JrAhg3vX1BTV/OZwWB0+o6AuSCLeXXBXBzlz4e5aIt5lcFcSOSLh/KmevtinE31MdM4V6mUtoK8gouvv/6aL/wRH/kMHgIkIIKnln7L5B//fPHQkSNtLt8PNDbUY3Bw0G/xnew4Li4O2Tm5PomF8vYJ5mmdUL2d45k1K7Ppwfvvm+//ClEEgUyABEQgV08Asb/1zvr/q6io/LGrUHp6utHS3CyASE+EMHvOHCQnp/AaE+XNK16PjFO9neMqLS156uYbVz3hEUxqTAROIkACgoaDVwT++Oe/jA8MDDg97tFg0DteXdjtXrngvLNIBMerDJVKzbltxiDlzQtW1kap3s7HeXx8vPbxH3w/gjVY6hjyBEhAhPwQYA9gpsuyamqqMTY6yt4Bjz0jo6JQUFDIiwfKmxesXhmlejvHR5dteTWsQr4zCYiQHwLsADAnTlZVVu0xulg42dHRjva2NnbGfdQrIzMT6ekZnHqjvDnFyakxqvfpOJUqpa2opGgJnVDJ6VALGWMkIEKm1Nwm+u9X1+1taKhf5Mzq+Pg4qqsOcuuQJ2uFRcWIiOBmFpfy5qlIHJqlep8OMycnd99dd962mEPMZCpECJCACJFCc5nmy7vb/9v+2drLjHqDU7MHKyug0+m4dMmbLY1Gg+KSUk7sU96cYOTVCNXbySyEWoWMi2//391LM77DK3wyHnQESEAEXUn5S+jlWu19nROK/4tq2BLdVbHdqaMjR1rQ3dXFXxA8WE5JTcWsWbO9skx5e4XPp52p3qfjTi09C6M5F42kSU1P3J0f/qJPC0LOApYACYiALZ3vAl9fOxbTYZV/3mCUl0ZMjEK99Xk4m30YHh5CfV2d7wLj0FNuXh5iYmJZWaS8WWHzayeq96n4lWoV9Oc/hHFpFHKU5op0ifnCVfmRw34tEjkXPAESEIIvkX8DfKFW/48mg/xerU0iYSLJP/I/OJt9sFqtqKw4AJPJ7N+AWXpXKOQoKV0AydE03X4ob6q324NFAA2nG+fMLETtrMscUYaLrdZ5KvO/HshXPyiAsCkEgRIgASHQwvg7rFfqtef0WmRvHDHJ0o7HMt3sQ1PTIfT39fk7bK/8JyQmYt48zw7no7y9Qu7XzlRv17MQx78yS2HpTJJZbl2TG/61X4tFzgVJgASEIMvi36Cerda/V2tQXmvFqcPD1eyDf6Ml70SACHBF4ORZiOM2JbAjX2Xc9Eih+jqu/JCd4CBAAiI46shJFq826q9uN0hf6rRI46YanG72gRPnZIQIEAG/Ezh5LcTUYNJkE4MZqol77sxWf+D3QCkAQRAgASGIMvg/iOdqDJsP6pUur+Om2Qf/14giIAK+IOBsFuJkv8Vq40cPF6joOnBfFEPgPkhACLxAfIf3Wp3+8jaz9DVnsw7HfdPsA99VIPtEQDgEppuFOB4lMxuRKZ+444489cfCiZwi8TUBEhC+Ji4gf89VG96tNipX2Wa47IpmHwRUNAqFCPiAwEyzEEwIYhFQqDSuf7hQdYMPQiIXAiRAAkKAReE7pLcadEWtZunHJ++wcOWTZh/4rgbZJwLCI+DOLMTxqJmdGlnyictvztFUCS8TiohPAiQg+KQrQNsv1uieqTcpv6u3isXuhJfX/jm693/pTlNqQwSIQBARSFl4HuoyLnQrI7XEZstVGP92X4HmUbc6UKOgIEACIijK6F4ST1eZypnTJN1rfbTVnG1/w9BAvyddqC0RIAJBQCA2PgHNy7/rUSbMKZaPFSnKPOpEjQOWAAmIgC2d+4G/3mi44bBB+nKvJUzjfi9g9vBBDH+13pMu1JYIEIEgIhBz7iq0xBR7lFGSbFI3VzVx9+ps1bsedaTGAUeABETAlcyzgJ+vNqw7aFDeOsM6SadGc6reRO/hwLzbwjNK1JoIEAFnBJLm5qGh6BaP4TAfLMUq4xsPFapu87gzdQgYAiQgAqZUngf6xypTXZNRnut5TyDaPADJZ89icsLKpjv1IQJEIAgIhEklsF78CEbk8ayymac01z9epMhj1Zk6CZ4ACQjBl8jzAF+p1a5sMSte65sIU3ve+2gPWjzJlhz1IwLBRcCTxZTOMk+UTupny013rMkP3xhcZCgbEhBBNgb+Uat/oUqnvH/qPRaepkmLJz0lRu2JQHASYLOYcioJ5j6NIo3xnw/mqx8ITkqhmRUJiCCq+zNVxl31RsVSb1OixZPeEqT+RCC4CLBZTOmMQK7StPvRIuWy4KITutmQgAiC2r9WPTqnw6bc3m6SJXGRDi2e5IIi2SACwUOA7WJKZwQyFJbedLHxrDsKo5qDh1BoZkICIsDr/nLN+N1NZtXzw5MSGRep0OJJLiiSDSIQXAS8XUw5lUZMmNUyT2546O6CiJeDi1RoZUMCIoDrzax3qNSp7mezRdNV2su0FdA17g1gKhQ6ESACfBDQZC/GrnCPzqGbNgzmw6dEY6B1EXwUy0c2SUD4CDTXbv5WbdxaY1Ccx7XdM1s2Ynx4iGuzZI8IEIEAJxARE4sds1dynkWByvTldwuV53NumAzyToAEBO+IuXfwh4OmQ4dN8nlcW84zH4Gk+jOuzZI9IkAEgoSAtfBi1MlncZ7NXIW56UfFivmcGyaDvBIgAcErXm6Nv1GrzXKSTdoAACAASURBVGuyyLd1W6Qx3Fo+am153xcY7TjMh2mySQSIQBAQiEqfi22JF/CSSYpsYniezLz81vxwOv6WF8LcGyUBwT1TXiwy91nUaqVrR6xhnCyWnBqkwm5BQe1bMJvMvMRPRokAEQh8AnKFHDX5N8Mk4uXHEKIlk5b88Inb6R6NwBgrJCACoE4v1el/XqlXPmmxiXirV6G5Gaj+PABoUIhEgAj4lUDhhaiWz+EtBJnYbi9RG395T576N7w5IcOcEODtA4mT6MgIXqjRv1SuV93NN4rlg19htLWRbzdknwgQgQAnEJWVjW1x5/KeRZna8PIDBep7eHdEDlgTIAHBGh3/HZ+rMWw+qFdeyb8nYGnDW9DrtL5wRT6IABEIYAJqTTh259zskwyK1caPHi5QXeUTZ+TEYwIkIDxG5psOz1QZdtQblWf4wtv8iU7ID37sC1fkgwgQgSAgYC6+HIekaT7JJFdp3PlokepMnzgjJx4RIAHhES7fNP7TQVP1IZO8wDfegDNHd2H8cJWv3JEfIkAEApxAxNwi7Ijy3ZUW8xXmmh8WKwoDHFvQhU8CQmAlfarS1NJs5mGj9TR50uFRAhsEFA4REDgBvg6Vmi7tOXLzkR+XKGYLHE1IhUcCQkDl/m2lubvNLEv2ZUiZ1n5EVLzvS5fkiwgQgSAgMF56DdokCT7NJFNu6flZiTzFp07JmUsCJCAEMDherRiJaoe6qdMijfN1OHT3ha+Jkz8iEBwEuL4bw10qabKJwQzo591ZGj3qbh9qxw8BEhD8cHXb6ivVQ+ltkxFV3ZawKLc7cdhwecdHGO3r5tAimSICRCAUCEQlpmBbuk82iZ2GM0U2OZoZNl60pjC2IxRYCzVHEhB+rMybdWPz6o3KA32T0nB/hJFgG0di+dv+cE0+iQARCAICfWU3oV8c4ZdMEsMmtLlK44Jb8iKb/BIAOQUJCD8Nglcbx3OaDcp9fZYwjZ9CwCJDLUx12/3lnvwSASIQ4AQUeWdhnyrfb1kkyiZ1c1TGRXdmRzT4LYgQdkwCwg/Fd4gHvXJ/30SY2g/uv3W5vPsTjHa3+TME8k0EiEAAE4hKycS2lEv9mkGidFI/R21cSCLC92UgAeFj5o7XFmZVuT9nHpiUmcuz8qrfxITF4mMC5I4IEIFgISCVyVBXeAtvl2u5y4mZiciVG8rodYa7xLhpRwKCG45uWWEWTLZYwmv9tebh5CDnTXRBcfA/bsVNjYgAESACrgiYiq9AkzTV74CYNRGzZdp8Wljpu1KQgPARa2arZis0R/y122Jqmku0FTA07vVR9uSGCBCBYCWgyl6MPeGlgkiP2Z2RBd0s2uLpm3KQgPANZzxZYRnwxzkPrtJb3rsFo50tPsqe3BABIhCsBKLSZmNb0kWCSY85J+KXpbJ4wQQUxIGQgPBBcf1xwuRMaZ3R9C60Y8FzDktyYixSY9RIi5JAJrZDHgbIJHbIJTZIRPaZcNDXiQDnBKx2EcxWMSxWEcyTgMUmQueoFV3DevT0DXHuz18GwyOjsHPeDf5y79QvnVjpm3KQgOCZsz/utpgppRi7DqkH3pypmaC/LpFIkJkSh6x4JbIibVBLbYKOl4IjAicT0E+I0TomRuuAEW3dg7BarQENqGvBLRgW+W1HulN2dHcG/0OKBASPjH19q6a7qRRZWmCv2uJuc0G1k8mkWJyTgjkxQIQssH/oCgosBeM3AuMWCZqHgb0N3bBYJvwWhzeORUUXoUomvHuu6BZPb6o6c18SEDMzYtXimSrDjnqj8gxWnXnudNbILow1B9713bHRUbikKBqx8sD8IctzWcl8gBMYMkvxadUIhkYC79Vi5JwibI/23fXenpQ6V2nc+WiR6kxP+lBb9wiQgHCPk0etnqsxbD6oV/rnkHg3Il3e+R+M9na50VI4TRbmZmBZOr2mEE5FKBK+COzqEGN/fTtf5nmxG5WUim1pV/BimwujxWrjRw8XqK7iwhbZOEGABATHo+GFGv1L5XrV3Ryb5dTcwprXYDaZObXJpzESD3zSJdtCJBBoIkKukGN/wR1CRPltTGVqw8sPFKjvEXSQARYcCQgOC/ZSnf7ne7WqX3NoknNTKdZhxFZs4NwuXwZzZqfgorlivsyTXSIgWAJbDtvQ0BI4N+UOlV6PbkmMYHkygS0ON/zinjz1bwQdZAAFRwKCo2K93mi4Ye+44m2LTSRopmXGBkzUfs1R1vya0ajVWLU4DmopLZbklzRZFyIB/YQE6/cOQqfXCzG802KS5p+DcmWOoGOVie32xRGmm1Znq94VdKABEpygP+wChCHeqNXmVRkVFSPWMJnQY14+8DVG2wLj4rqlBZlYlELiQehjiuLjj8C+bgl21wTGhXdRmTnYFn8OfzA4shwtmbQUKU2lt+aH13FkMmTNkIDgoPS/rLAMdVukwp67O5bnmS3vYXx4kIOs+TURExWJGxaGI0xgby86ewfR2tmPgeEx6I0mxx+D0Xzib4MZpikXlIWrlWD+REVokJIQc/RPYizSkmIhDQvjF2SQWzdbJtDVN4TuvmH0DAw7/j2m1UOrNzr+nPwo5TKolHLHH7VS8e3fzL8TYiORmZqAtKQ4QRGbtAHv7tdieHRMUHE5CyYiJg47Zl8n+DiZAFNkE8NPlspiAyJYAQdJAsLL4vzhoOnQYZN8npdmfNa9cP+LPvPljaMzi7JQljTpjQlO+jIfRvurD6P6UCua23tgmeA2prjoCGSmJCB3bjoK52chKsKvN7xzwoxPI8NjWtQcakPd4Q60d/djaFTLqTu5TIq5mcmOWiwomIsIjYpT+2yMlfeGYUdVK5uuPu9TvfA+n/tk63Cuwtz0o2LFfLb9qR9AAsKLUfC3auPWGoPiPC9M+LRrim0YseWBsYBy1fIsJCq5/bD2BHZtUzv+8+VetHT0etLN67bM7ETe3Azkz8tw/E0PHIKBEXD1hzvQN+TbMxJmpyfhyvMX+7UWfcYwrN8WGAJiqOx6dIsDYjLW8a1VoDJ9+d1C5fn0fcaOAAkIdtzwj1r9CxU61f0su/ulW6HpMFDzhV98e+I0MkKD25dGedKFs7ZVDa3YsqMCh1r9f06GTBqG/HmZWFgwFwsLA2aSi5Na7DnYiH1VTWho6cTEpP+E5PFk5mel4qIzS1GUk8VJfp4aWbt7FGPjOk+7+b59wQWoVsz1vV8vPJZqDP98MF/9gBcmQrYrCQgWpX+5ZvzuvfrwlwLtiqZl4/ugO1TOImPfdsmfm4bzfXwqbkVdMzZ/sQfd/cO+TdZNb9ERGlx1wRKcUZbrZo/AbLZ9f52jDmM6Ye48SE2MxXWXnOmYIfLls7UFqD3c6UuXrHxp5pdhV8QiVn391Yn5EFys1t5zd0HEy/6KIVD9koDwsHKvVY/Oqbdo6oYnJYLfcTE1tbN7t2AkAK7w9uXui/6hUby5+SvHb7pCf6LC1fjD43cKPUyv4nv09y87FqQK/WEExC1XnYfYqHCfhBoouzGi02bjGwFd7e1ucWLCrJZcmS7vjsKoZnf7UDtaA+HxGPjNQXNPu0mW5HFHAXQ4o3kDtCPC/A37ZDznlmShMIH/aesvd1fhnY+/8VtlmA8fZmcGsztAIZeBWcCnkEuhVMi/jYmZvh8dP7qr4OxF+SjNm+O3eH3hmHltsbOi/tiuFfUpu1SMJjNM5gkwOy9MZguMZgtGx3WcL6R0N0/mFdOq7yzH8oX57nZh3a66PwxfVQp/HUR4dAx2zrmedZ7+7JihsPT+vFie7M8YAs03zUB4ULFnqoy76o2KpR50EVTTkoqXA+La4IsWZCEnlj8BwXz4vLz+M8fCPF88zEI85s+cjGTEx0Q6dlow2zrp4Y4AI7AYocXMKDELX5kdM0c6+7hzMI2lBflzccd1F4IRFHw9DUNh2HLAN+PVmxwkEgkqSwV9kv+06eUqTbsfLVIK81YwbwrDU18SEG6CDcRFkyenFmcbQ3L5O25m699mVy6ZhaxIfm7cZD5gnl37H/QP87OanxEG87JSHGKB2Q6YlZroX5gh7p0RE4fbehyi4tCRLt5ejzBrIx657UpER2p4Id46JsVHe47wYptroz1lN2JQHMm1WZ/Zo0WV7qMmAeEGq1dqtSv36tQbrAG86zXP0gZJ1SduZOv/Jlcvm4X0cO4FBHMI1F9e/QA6A7fv2JlzHJaV5qAwOwvMuQ70CJdA78AIDjYcwc7yevQOjnAaKLPQ9dE1VyMhlvsdRB1aKT7YFRgCwlp0KepkmZyy9aUxCexYrNFfvyY/fKMv/QaiLxIQblTtZ+UTur6JsIA+4WeJtgKGxr1uZOv/JnwIiNauPvzttc0wcHQLaaRG7RANzJ+k+Gj/Q6MIPCbQ3j0AZrvorooGzmYmmIOnHltzDedjIpAEhCp7MfaEl3pcDyF1SJRO6n9bJuVnOklIiXoZCwmIGQD+scpU12SUB/zeueUDWzHa1uTlcPFNd64FBPMunJl5YBbfefswU9UXnlGCJcXZkEgEds62t8mFaH9moerO8gZ8vqOSk1dbzGusH9x1LaciIpAERFTmPGyLD/yzmeYpzfWPFynyQvTbwq20SUBMg+n5asO6SoPyVrdICrzRWa3vY2ywX+BRHg2PSwHBzDw884r34oFZBHnZ2Qv9dpBQQBQuCILcX92Ej7/a5/V5IBqVAj+6dyVnrzMCSUBExiVge9Y1QTAagBKV8Y2HClW3BUUyPCRBAsIFVOZ67h2jyncC7bAoV2NkQdWrsEy55ImH8cSJSa4ExMiYDr974d3TLlXyJMiEmChcc/EylOUH9/ZJT5gEe1u73e5YI8EcaDWqZX+gFbMe5mcP3gilwvsjYwJJQMhkMhwoCo7zSpgPyDOjjDfS9d/Ov+tJQLj4afjzigltryUsKN6BRdkMSC9fFzA/97kQEMy09FMvbgSzcJLNo5DJsOLCJTh/WTGb7tQnCAgwY+jTbeX4aCv7tUO5c9LxvTtWeE0jkAQEk2xH2W0YFfv/IjKvwQNIkk3qflMq9c2JYVwE7EMbJCCcwH66ylTeYJQH9iqgk/LKnuiE7ODHPhxW3rniQkC8+M7/UF7r+aFyIoiwfFE+rr5oqePKZ3qIADOTteF/23Gg9jArGMyrL2Y8efMEmoCwFF+ORmmaNykLqm+O0lzxWJGiTFBBCSAYEhBTivBije6Z/Xr19wVQG85CKDE1wVqzlTN7fBvyVkBs21+LNz780uMwM5LjcefKi8DciEkPEZhKoPFIJ17f9AWrky+ZWQhmNoLtE2gCQlJwPioVwXUB3EK1/i/3FWgeZVvDYOxHAuKkqr7VoCvaq1NW6K3ioFpev0RXCUPDnoAZv94IiIHhMTz57Nse3+DIxW+JAQOYAmVNgDnF9N2PtzmO2/bkYXZm/Pq7t0KlPHFMuSf9A01AqHKWYI+mxJMUBd9WLbHZFmuMpTfnaKoEH6yPAiQBcRLo3x80dxwxyYJn3u1YbmeO7MR4c7WPhpT3brwREH9fuxm1Te1uB8Gc53DPDZc4To+khwi4S4DZrbHugy9h8mBh8nlLinDjFWe76+KUdoEmICLmFGJH9BmschVyp1kKS+dPiuXsp5KEnByL2EhAHIP2XLXh3YMG5SoWDAXfZXnfFxjtYPf+1h/JsRUQlfUteOGt/7odcnpynOP44cjwgD4jzO18qSG3BJir3//++maMjOvcNvzzh25EWlKc2+2PNww0ARGVPhfbEi/wOM9A6FCsMq5/uFB1QyDEyneMJCAAvFanv3yXTvUfW7Ds2ZwyapZ3/gejvV18jyXO7LMREHqDCY//9U2MDI3CYgdsE3aYrJNgzo6y2a0wW+yw2ydhsQITdpsjVolYhkmrFSKbDTabHVabDcwWPrsdjr8RFgZMOr/UyyoWQSYSQSwSQyIRwSYWQyIWQyqVQKOUIkqlgiZCjvjwSCRGqZGYGImE2AiEq5SIVqkQFatBUqQaYRIJZ9xC3dC4zoDhcT1qW3vRPzSGnkEdhke1GNRqMTpiBPN1s20ClkmmrDZMWCchttphtFohth4dE64ekUgEkQhg/mbqLBaLYGdqLpHAajU7/r9UJIZMwrQJg1zGjA0JZFJAIQmDWMqMF2DO7HT89O6rHbevevIEnIBISsW2tCs8STFg2opFwDKN4Yo78tSBszKdJ7okIAA8WWEZ6LRIPf+1gKeicG32zJaNGB8e4tosb/amCgjmlsWm9kE0dfWirXsUY9pxDI+ZMKo1OBa0DWoNMHF8vwVvyU0xrIlQIzk6HDExaiRGRTouY8pIikJWahwyUxOQHkt3azDIjCYL2nuG0NI3hI6eIYdAaO4YQu/gGAbGDRjTG2YUAb6qqTt+FCoF4sJVcFzpHq5CTKQCkeERyEyJwrzUJMzLiHPc2nr8CTQBERETix2zV7qDIiDbpMkmBn9ZKosPyOA5DDrkBcRzNYbNB/XKKzlkKjhTi2rXwWQ0CC6uqQHZbDYMDw1iVqwMQ71dqGvrRVNXD/r6xgUfO18BqpQyZKXEIys1HrNSo3HBwlzkzw26ZTqn4Gs80oPddUfQ1NaLjt4hNHcPYmBAyxdiwdpNTIzAvNRk5GUmITYpFUeGLIiJjYM4ANZ4K5Qq7MsP7gMci9XGjx4uUF0l2AHkg8BCWkC82qi/eueo6n0fcPari6ID/zo6JS+wR6sdR093Hzq629HT04/REW5vRxRYupyFExenwQWLcrEoZzaK8jORGc/97Y+cBeuGoYONbahq7kZFfSd21DRjdDh0BaMbuBAVHY3k5ASkp2QgOSUR4eHCm6ViXulULbjXnXQCus0ZUYZr7sxWfxDQSXgRfEgLiGB/dcGMiwibEZnla70YItx1HR0dQV9PP3oH+9De0YmxkVHujIewpbPKsnHuovk4tywb6UnCP8OipbMf++rbsL+2DfsaWtDTQ+PAm+EbGR2FjPQ0JMUlIjE5AVFRwrgdtq3sdoyLld6kJvi+of4qI2QFxLPV+veqDKprBT9CvQwwfXIQUZXveWmFffcj7W3o6GhHZ3s3hgNoHQb7jP3bkxETFy7LxZVnFYG50Ekoz/6admzZV+0QDTVNnUIJKyjjiImJRVpGCtLTMzArI9NvOY6WXIeOsKBdWvYt1yKVYdMjherr/Abaj45DUkC8Uq89Z++4+isrgj/9nIkOSA+6v7WRi7F4XDS0dbRjbGiMC5Nkw0MCaYkxuPLcMlx7XjEykmM97M1Nc6vVhv9uq8aH31Ri24FGboySFY8IRMZGIjM9wy9iYqL4O2iQBv+RCRLYsThCf+6a3PCvPSpOEDQO/k9QJ0UK1gOjnI3HUmMDJmv5H9fMeoaaukM4fKSRRIOAfjAoFVJceW4xrjpvARbl+Oa30c6+YXz4TRU+/vogmjv6BEQjtENhxMTcWdkoyJvvk3UTYfnnoEKZExLQQ/WAqZATEC/U6v9RrlM9EBKjGsBSXQX0DexvE5yJ09DgIOoPNaKmvhGTJtNMzenrfiRwzrFXG1eexc8NoztrWvDfbyrx4TfVsBjNfsyUXE9HIEyhQEFuNnLnZyM2jr9XDOqcxditCZo7CWccVGUawwsP5KsfnLFhEDUIKQGxvnYsZrdB3a+1hc7pPWeO7sb44YOcD9kRvR41FQdQXV0HZvtlID/MUVFhHiTgqr2ndjxwyWnTwvnpeHDlOTh/SZ7Xdge0Bmzb04gPtpdjT4Xnt596HQAbA0yxnZ8P5ra1QKn1dAkx20ELC/NQULoA0WruT2ONmFuMHVHe3ULqdkEE0DBcbLUuVekTVuVHDgsgHJ+EEFICItiu6XZnhJw1tB1jR2rdaep2m6raGhyoOAD9mN7tPtTw6GeWJ0KFb2YxcZFYmjcLFyzNQW5GIhJjI2dceMmc5tg9MIryxnZ8vr8BB6qOwGSe4DtUDu1zoB44jEYIptSRaiwoXYCi/AJOw4mclY/tsWdxalPoxkLt2u+QERAv12rv26PT/FPoA5Dr+M4e/BojrQ1emTWbzRgeGsXg6CAOtzSjq41W0XsFVMCdmZMx02IjHWIiNTEC4XIl2vpH0NU/jLa+EYyPuX/vg4DTpNCcEEjNTMPc2XMQFxWHmNgoyOXsbg49bjo6KwffxJ0TcqyXaHT3350f/mIoJB4yAuJXlRPDXeYwYWyQ9uHIOrv/C4y0s79Iq76uEbsO7IZhXAizDZ799iiThiEzJQ6z02IcxwQz1w8oJTIo5FIoZGKEKWSQi6SO/8+0tcuZf0uhsFmhUkz/w9NgMsMklsBsmYDIPAHLxCTMFsBsn8CkyQKTxQajdQLM9c/M/x8dZ45eHqZFhSzHvjuzN8FRb8/GOEucM3ZTRaixbMFS5OZlz9jWVYPojLn4JiE4L9SaDkqqfHLkVyVS4R/IwrqyJzqGhIB4vtqwrtKgvJUDXgFnYnn3JxjtbmMV96HGJnz2+RZWff3RaXZ6AvIykjArLR5ZKVFIjov0Rxgz+uzqH0Vr9whaevvR0NKPI10DM/Y5/speSK9AZgya5wZzMxKRk54YUPWuPtQDZpdKoDwXX3gR5mfPYxVuVEomtqVcyqpvoHcqURnfeKhQFdxneQPBfxDC2sPahPJRVY/eGgAHyPPwXcP2Js6B/n68u2EjDxFNb9KTD8rsWfGIUMkxNDCGS87Mw/KF+T6PlwuHzCxGS98oGlsHsL+mBcxJjfScToCp94LcWZifloz5mf4524KLumz6bBcONHUgLSkFjJh0p96efF9wEePJNm64fiXiExI8NhsVxDdyzgRDLbHZyqIMybfPDQ/qb+agn4F4usq4r8GoWDhTwYP162e1f4ix/l6P09v61VbU1Xq3dsJjp250mJOeiDNKZ2FB4RwkqOQYHBnH2ve/wIO3XO7xFcluuPNLkxGtEdurDmNHRYvjBspQfqbWOxhY6I0m/POt/+KeGy5FhEYFodc7Lz8H5597vsfoIxOSsD1jhcf9gqVDjtK0/7Ei5aJgycdZHkEtIF6p1a7cpdNsCOYCzpTbmS3vYXx4cKZmp339rbffFdTR0/nZqbj2vDLkprt/g65YLIJSIXesZ5BKJZCIxY6bDJn/LxaJIZm0QtQzAnHvCMRDYxCLRBDrTBBrjY5/I0IFxEUAaXFATjogl37LyWazw2a3wfG37djfdrvj0jLmBMaTv2a12TAxYXWsI9HXtwF9o8CoHtAfOzdDrQDUx9ZcRIUDCZFH/0jDUNHSjc1bD6DxyMyvOTwusoA7nFLviUmgf+zon9Fjt3Lqzafyi1JDnBQNZU4GmPf3TustEYO55MlRZ2YMnDQWmP/+9mF2lTR0AJ2DwOA4MG6AzW6HLVwJm0Zx9N+xkbAlRcOeHA1rmMR5vU1m6D28Zl6I9WaOxr75phs8Hi0RMXHYMTskT3j+ltUyje76Nfnhvp/K9bha7DoEtYD4XYWpq9UiT2GHJjh6ndG0Htoxz2+5fO75fwgCQFJcJB66fjnmpM08hapWKRzbEFVKOZRyOZQKmfMcmA+Hunagy8Pf7nPTgcXZR4WFJ8+4AdjbCNR3OHoZJydhYP5MTEI3cfTfTh9GRMxPA1JjUdnSgxc3fY2xEeFfy+4JmqltT6l3ax9wpPeocHDyqKVh0EilUIWFQRkmgTLs2AoRjurkdh6psUDJHGB2ktMuRpMFzKJbg9EMncHo+HumR2j1fvghz89HCo+Mxs55q2ZKNai/niUzd/+0VJEarEkGrYD4V63+yX061S+CtXDu5rW04S3odcd+a3O3EwB/CwjmN8KLzyzCTRcWQ3r8g2FK/IxgiApXQ6NWznh+gaMrIxz2NDp+o2T9MLMQxbOBJW6uTmf8MeJhmof5jVbvEBMTGDVbThcUzAxFQSb0iZF487P9+GrvIdbhC7XjKfXuHAJq2k7MMBwLmhEMUXKZQzQwf6Z9eKjTjOwYYcmMC2a2arp62+xgXmMwYmJ0XO9SUDBthFJvNgJCrQnH7pybZ8QW7A0WaQy/vjdf/ctgzDNoBcTPKia0fZYwTTAWzZOcFteuhdFo9KSLo60/BQTzquHhW87HkpyM0+JmRENMpAbRkRqXwuK0TsyU9OcVQIvna0FcgmN+67x88SmvNU5py/jctBMY9PwyMYvVhmGzCcMmM4yT1hNmGZ9LsrHlYDNefX+HxzUVageJRIyHbz4fS+akHBV4J80MMaIhRiFHtFwOKZt10DzWySVPZibiwlLXY2NKR2YL8PCoFsNjWjCzFVOfLfsb/V5vNgJCqVRib/7tQh12PosrUTap+22pNNxnDn3oKCgFxD9q9K9X6FU0cgGUVb2KCcvpP5RmGmP+EhDMe+k1N16K8/NPnQ5mFpslxUcjXK2cKfRTvz4wBry/E+DjtETmt9xrzgDip2wX5dDnmMWCXr3B8arD8cjCgHOL8FVzL176YJtjzcWpjzDOEXC3SGESCb63+iKUxUQAX1UBlqN5RsikSFKpEC6bYabBHUc+qNNpYbjyOUO8Y1o9egdHoDu+PuZY+807WvDu/752Um93AHjfho2AkMpkKC+603vnQWChVG1Y+2CBenUQpHJKCkEpIB7bPzkxbpXQlnkAxeUvsbqrwl8CoqSsBKsvW4xE1dEPEoVchqy0BKiVCs+/9zj8IHfpfOoHBU8+xy0WtI7rMMHcO3JMRKzbcwj/21bpORcB9bjruuW4YFbyt+JBIZEgKyIczMwDp4+P6nRKzCxFBGODOTK8tbMfE8fWx/QZwvD3d77EkeYmTrG4a4yNgGB+GThYdo+7LoK6XYTEOvn0wjAO1LCwMAWdgPh7tf6TaoPqEmFh9l80hfvZnajqDwGRkJSEZYsW4tyiFIeASIyLQmpirGPlvMcPs87hna/5mXmYGgzzQXHjsSN7efRptdvRodVhyGQ+KiIuLsMTr3+Gti7Pd9l4zJOHDiU5mXj82jOBz8odMw+JKiVSNWr+DqfxUZ1OExHM2PB04S3g2M3T0TuAoREtGAHxVVU3nrfNSAAAIABJREFUvtq2HWOjozxUY3qTbAQEY7F64X0+j1WoDgtVhk//X6E6qE7WYvGTWajlAV6pHkovN0W3mW1sPnGEm5c3kbEVEC+9/grMOt9dzy2VhuG8cy6BUinCecWpWJYdh6gIL24I/Hgvt2seZirC8VMvWax5mMn01K/3G43o0OoduzO65qfih3/b5KkJv7dnjhN/5nu3IKqqHqKuIcyOjHAskOT98WGdvs2FWRPBrJdh+fQPjWJ/86hDQOj1Ony+9SuWlth1k2sUuGf1GladSUCcwCYX2+1lipHMNYWxR7djBcETVALimSrDjnqj8owgqAtnKbAVEJs+2IzuLt9dmpWTl43sOfMcZ6Pe8Z2FyEv24sOEWYS3KXgWGTobDINGE9q0OuD8Yjz/dTV2VATWzoyVF5fh2rxZEG09iDlREYiUeVFvzr5beDTEzLQwCzpZPgc7DHjz06Ovqw5UVqGzo52lJc+7paSm4dqrr/K8I81AnMYsV2nc+WiR6kxWMAXYKWgExJuHdCXfjKorbFPXlAkQui9DYisg9uzei30H9vskVLFcjkvPOwdSqQzRMdG49aIipId7cUX021+z2v3gk2Q5dNKp06NPJsHgkmz8vz+9y6Flfk0pVAo8/9hKKL+uQYYViGezvoXfELm3zsx83MT+ZsoOrRSv/a8c2nEtTCYjPt3yBfcxurC4aMFCLFnKbgaFZiBOhcqcV3Z2lL70lvmawF68dCytoBEQT1eZDjQY5WU++64KEEdsBURHezv2lVf6ZBYiPSMTZcWFUCiViI+Px9XLZrEXEMzah9c/D5DqeB9m3fAIjJcuwE9e34JWNy7l8t6j9xaWL8jGA5csQORnlZgbFeG9wUCxsPpCVmshmPQYAfHBriPo7enBxMQEvtq+HWMj/K+FYGYfFpWVID3j9C3V7mAnAXE6pRylufyxIsUCd/gJvU1QCIg3mgxLvx5W7hI6bH/Ex1ZAdHd3wTppxdavv4F2fJzX0BcuWYi0xGSkpKY6jhf2SkBUNgPbanmNV0jGmVMt6zJj8F73IN7bUi6k0E7EwhwEdtJpm9+97QIsk4ShsH0EYWzOdhBmljNHtTz/6ImVLJ7jAoIRD4yIaDh8CI31/L62Co+IwPnnnA1JmAQpKewOUyQB4bzY58QYl906T7WbxVAQVJegEBB/rjJVNhrlxYIiK5Bg2AqIocFBGAxHT2ysP3wIkxYLdGYzTDoDDDo9Jl0dvzxD3szmzKkb9L5z2SWIi41DROTR8xS8EhDM2gdPj6gWSK3YhnFEKUFFZhyeeO5DtiZ82u+VX9yK2TUdSB6f+UhnnwbGtzNmDQSzFoLFc1xAMF2HhgYdIuLLr7exsOS8C/MaMVyphFyjhEYuR5hMhty58x2NVSoVYuPiWPkiAeEcW7bSfPAHRYoSVlAF1CngBQTNPkw/mtgKCL1ej+Eh13dF6G1WTIyPw2Q0QmsyYqB/EAP9nl/4FB0Tg3OXnwlmqvT4dk0SEJ79hDAnRqEmLwVrfr0OJg8PzIqKUaNsfhrOLJkPpUQGZiMEc/YGFDIorFbHfSLMbZG9ozoMDerQOzaKIebfozrUNPV4FigA5nbN3z90JYrquiHuHva4f0B34EhAMOK9p7sb//3kE0wcP2DMDTDM7F5UfAwS4+OhkakhVcuglisQJgmDbJpFrDGxsVCr2e2IIgHhujDBMAsR8ALi6SpTeYNRXurG909INmErIBy/6Zw0C+EOPKPRgNauTrS2t8My5SQ9V/3nZ8/FgtIyxMae+A3HKwHx7GZ3Qg26NvXfKcVP//E+ag/PfFw3c/rjuYvmoTg3EwvmspuaZgD26c04UHUYB1u6UV3n3s60K84pwsOrzsOs9/cEXQ3cSugRdrsZTp6BcLDv7cXX275Gf//MF8KlRouRlFWCmNQkqERit8I83sib2QfGBgkI17hzlOaKx4oUAb1uL6AFBLPz4qsRdYVH3xEh1tgbAcGgOr5oyxNsOr0VtRWfonfENmO34rJiLCwphVJ54oZLEhAzYjutQc+NZ+HJlz7Cl8xdEi4euUyKi5bl4pySuUhNiPLcyTQ9WrvHsL26GZ/trcWkyfUOmjXXnoX7rjkHUa/7bhcBp4l6a4wjATE+Noavd2xD25Hpt3NenC9DgsIGbYrn5xdJpVIkJSd7lTEJiOnxnRsd2DsyAlpAPFNl3FVvVCz1aoQHeWdvBQSDh/lhZbVaYbVZMTkx6Vj/cPodDKeCnGzfgj3NkxjUnXQZlBPWi89YikUlpaecNumVgHjtc0DrxW2bgTgewlUw3LAcv/33R9MupDxnYS7uu2YZrxn+4sWPcbi9z6WPH6y5FHdduRzitV+EZJ1wx4Ws+E+dgbBYLPh6+zfTLqRMTwjDVdlhGNZOwpA+vYBgbkMNC5M6FkxKxBJIJJJv1ySxCvhYJxIQ09PLVZp2P1qk5Peb0psCztA3YAUEc+rkfmN0+4Q9YFPgsawnTHMhIJwF6hAU1smjgsJqdayFMJtPLIqTtX+C1hEx9rVPf5HXZZdchDlz553iwisBEYKLKB0HFF17Jv7+xhY8v+FLl+PqzNL5eGjlWad8XSYNA3NRWUxUOJgPEeYmVOZdOfNvsejo38xtkWbLhONvy8TE0X9bJqHVn37L6/f/vhF9fa537Tz/45tw4bLCowd9hdhi1+N1YvONP1VAMDZ279qD/eUHXJqbnyjDRfPF6B+fhCXjUschbXK5HAqF0iEQmFdZYslRscDUnI+HBMT0VKUiOxYqRzIC9XTKgP30/VuVfkuNUcVOzvPxnSJQm3wJCGfpMlvMjAYDdDodRC0fwwAJ/lc1/Ur7FVeuRHpGAgkIb8bPMQHx+sc78Pt/fezSkuPuidsucMz2xEVHIDJchchwdovjGCeMoBgZ0zkufmL+MM+9f3gXunG9yxje+t2DWFCQRgLCw3o7ExDlVZXYuW2nS0sZsWG4Mi8MI0ZAnr8KSpWKN6HgKggSEDMXukBp+Py7ReqLZm4pvBYBKyC+t2/SqrdJ+JHNwqsT64h8KSCOB8nMTozuW4swiR1v7DNP+7rjlptvQnR0NHcC4psa4GALa14B2XFxNrAkG5u3HcQP/+z6RMqCecn462M3OcQDs7uCy0dvNDnExGUP/90hLFw9n//zUaQnxwEhXCc23J0JiPqmQ/jiM9eHpqXFiHHfWZEY0Itgy7mRjVuv+5CAmBmhWmy1/XVRmGTmlsJrEZAC4h81hrcr9Er/fEcIr4bTRuQPAcEENFnzLsLsejz3zfQXct215k4olUruBERLL8BcpBVKz7F7FnZUNGLNr153mfn8rGR89LdHeCWTveIn09rf+8ZPj856hHCd2BTAmYBob2vF5v/816W5pEgpfnRpFA4PAKLc69m49boPCQj3EJaqje88WKC6yb3WwmkVkALixwcmjEOTYQrhYBRuJH4TEPWbEC7W4k+fu57OFstkuOeO1WBWe5/8eLUGgjH04n8d10OHxMNc633fdxypltcdwU1PvOQy7dSEaGx96Ye8YWFmIcpu/LVL+3KlHHtee+LE7EeI1olNAZwJiJ7uLrz3vuvDw6LVEvziihg0DkgQlnstG7de9yEB4R7C2LBJ01MLpKf+JuVeV7+2CjgB8a86w1P7tMof+ZVaADn3l4Cw1H+IZKUOT3485pKWVKXC3bff5ljExamA2FIBNLh3LkEAldJ5qDnpwEVHj0Gpa+7CNY8+7zKl6Fg1dr/yU95SNpktKF71K5f2wyM02PXq45AyR1szT4jWiU0BnAmIgYF+vLt+o0tzKrUIv7siDvUDMshyV7Bx63UfEhDuI1wUbvzDvXmqH7vfw/8tA05APFlhGei0SNmdq+p/3j6PwF8CwtzwMeZG6fCj91wfdMMcm3v37XecsoWTAeT1DEQIXOf97UA66Zro+s5+XP3QX11/oGhUqHjzZ7yOweleYTACZufLP3Hs7HA8IVonNgVwJiD6Rkaw4a23XZqTySX4w9UxqBtUQZ5zORu3XvchAeE+wjTZxNAvS2UB9dkWUALilXrd6l3j6tfcLwm19JeAMDV+hpzoUfxgw6DrH3AqFe69847Tvu61gGAshsI2wSlHI7cOjOCSu//kkjezba920294+6aw2ezIvcb1DEdEpAb71k5ZIxGCdWJTAGcCYlirxVtr17k0JxGL8Ofr41A7FAlF9sVs3HrdhwSEZwiXRejvWJOrcb2QyTNzvLcOKAHxx4Om+iaTPId3KkHkwF8Cwti0FflRg/jhxiFYbXanRJk1EA/eczc/AiIUfrs9afaBgdg/NIrla/7oWrBJw1C90fUaBW+HPSMgClf+wnEuiLOHWQNR9c4vT/1SCNaJDWdnAkKr1eL1aQREmESMP62MRc1ILJTzzmfj1us+JCA8QzhPYW54vFiR61kv/7UOGAHxZt3YvK+1EYecfxT5D6DQPftLQBhatqMgvBuPvz+MyQnnR1pLwsLwwH338iMgGKvMbgxmtX8wPrOTgMsXn5IZc7DTwptdzzBoItQ4sI6/NRCMgCi5+dcwG52f/cEcWuVUwIRYndgMR2cCwmwy4aV/v+LSnFwhwVMrYlA9ngzV7FMPEGMTA5s+JCA8o8Z8IJ8TPj7/lrzIJs96+qd1wAiIZ6uNH1cZFEeXm9PjNgF/CQhj214UqNvwxOYBmE4/sPDb+B968AHu10Act87cTPnaluDbkRGuAm46B5CfunuFOcxp0S2/dTk2EhMj8M2/+F2jtWj1bzA+6rrg9e//7sQaiBCtk9vfvCc1dCYgTCYTXp5GQESGi/Gr78SiRp8JZeapYpNNDGz6kIDwnFqRyvTfRwqV/lm04mG4ASMgHt8/YR6xhnF7+o2HsAKxub8EhKHzIAoVh/DLjwcxrnM9b3Tfvfdwv43z5EIF4xT5lFcXx9PtGBrHhWuecjlMs1Lj8ek/vs/rMF5+z1Po73d9lPXB9b86el341CeE6sSmAM4ExIhejzdfc/26PD5Cgp9cFoNq03yo0orZuPW6DwkIzxFGSyYtf1wolXve0/c9AkJA/KtW/+Q+neoXvscT+B79LSB++99hDGldX6h1z11rIFeceqQHJ4soTy4dc0PlXte3VAZUlY+dOuks5uaOPnzn4b+5TCc/OxWb/vgQr+le9MDTaO92vfNm/1s/R7jaxXb3EKkTmwI4FRDDw3jz7XdcmkuNE+MHF8SSgGAD3M99FmkMv743Xz1lwZCfg3LiPiAExG8rTZ1tZnmq8PAJPyJ/C4intw6jc8C1gLh59e2I0WhOAcm5gGCsB8OZAyed+eBs5O2uPYLVP3F9kNRly/Px1x/cwuugXfnEC6iuc30Gx2cvP47M+GmuEg+BOrEpgDMB0dHTjQ83feDSXEmGFKuXRZGAYAPcz30y5eaun5Uo0vwcxozuBS8g1h4yLNk2otw9YybUwCkBfwuIV3eMoKrT9amQ1193LRKTkvgXEIEuImYQD0x6r3+8E7//139cfifcc/3Z+MGt01/r7O230SN/WIfPdta7NLPhT/ejaH7G9G4CWUS4USc2jJ0JiMrqKmz/ZrtLc+fnKXBlYTgJCDbABdBnebRx6e3zVXsEEIrLEAQvIOjWTe+Gj78FxMbyUexomnCZxKWXX4a5WbN8IyACVUS4+aH0xLMbsOnzCpesf/v/rsX1Fyz0bkDN0Ps3L32IN/7j+mfesz+9FRcvzps5hkAUEW7WaebkT2/hTEB88eUXqK9z/Wpu1WI1ls1SkYBgA1wAfQLhlk7BCwhaPOndSPa3gNhaO46Palxf6b1k2RIsKlvgOwERaCLCgw+lq773LBqP9LgcMOt+cz8WF83w2793ww0vb9yKP61zfUPk926/GA9cd657XgJJRHhQJ/eSP7WVMwHx9rvrMTTo+qC2B86KxPxUGQkINsAF0CcQFlMKWkD8q0b3o316tetl5QIostBD8LeAqGrX49VdBpeY5s3PxiUXXeBbAREoIsKDD6XeUR3OWf17l5zTEmPw6q9WIyMlntchu2VnFR7+g+uFfZefXYpnHvPgZshAEBEe1Ikt/KkCYtxoxNpXXnVpLkYtwf3LVYiPVJCAYAtdAP0WqfU/vrdA8wcBhOI0BEELiKcqTU3NZvlcocILhLj8LSD6Rk3441Y9bC4Ok4qIicTtN526sI+XRZTOilXZDGyrFWYZLywFctPdjm3Dp/vxs39sctn+O2eX4Cd3XoL4mEi3bbJp2NrVhyseewETRovT7ulpsfj8+cc8Mx1EdfIs8ROtpwqIutp6bP3qS5fmitPluKZYgUg1zUCwZS6EfnPk5sM/LlHME0IszmIQrIBYXzsWs1UXPmSFYEMUak1PicvfAmJEZ8Ere3XT7sRYfdcahJ+0ldNnAoIhxZxUuaVcOIdNMddzX1QGMCdNevDc99Q6fLXL9eLFn99/JVacXeJ6C6UHvqZr2jswgoefeWfanRjb1v0UCRFqzzwGSZ08S9q1gPjo0/+i7XCrS3PXlCmxKEMJpVxCMxBsoQugnwR2nK/Rxq7KjxwWQDinhSDYT+cXao3/Ltcp1ggRWiDF5G8BoTVO4ONaM/Y0uz6d8KJLL0b2nBMTTT4VEEwxB8aAj/cBWtevWnxS87hI4MISIN6zWYKO3mFceN+fXYYoVcrw+s9uRXHuLDAXavH5DI9p8Ze3vsT6T1xvnHrmRzfh8jMKPQ8jwOvkecLOBcT4+DjWrnvDpTmxVIwHlsowK0kD5kItOkjKG/L+71umMb3yQL7yLv9HcnoEghUQT1ZYBjst0lghQgukmPwtIMwTVuxv0WFjpfMpbYbl/JwcXHzBict+fC4gmCCYY6+ZOxmYExH98TAzDsxriynHU7sTyk+e24j3mFkUF893zi7APSvOQt5cfhdQMu4NRjM++uoAfvFP19tJrzp/Af703evcSe30NgFcJ3YJH+118iuMmXZflGRKcd4cKTLij87ykIDwhrz/+wr5mm9BCoh19YYzvhlX7vB/6QI/An8LCIZgS68WL+01ubwTQyKX44G7TwhsvwiI46X2x2mI05wuOdMI7OgdwoX3PT1ts7//8Abkz01FWlLcTOY4+XplfQvueepNl3diKNVKVL71c+98BVidvEv2hIAYHx/D2nVvTmtu9VIl0qKliIs4ehoyCQhv6fu//9kRxjNvy1Xt9H8kp0YgSAHxXI1h80G98kqhwQrEeIQgILqHDPjskAUH2907D8KvAuKo4vHNugiW6x1OHoe3/epl7K1ocTk0C3PT8MStF2P+rFTe1z8cD6KptRvPbfgSn2x3vUDV7fMgpvumC6A6efuz4/gMxHsffYie9i6X5tLiJViRI0VqrMqx/oEEhLfkhdG/WG386OEC1VXCiOZEFIIUED+vmND2WsJOPd9YaOQCJB4hCIhhrRk1fRN4/4DrdRCpaam4ZsUKB1W/CwgmCOZ9++eVwOAYP5Vmud7h5GD+s6MKj/3R9ZZJpu2P7v4OyuamoCR3Nj95OLHaMzCMrQcO4dcvbHbpc1HBbLzxu7u9jykA6uR9kkdnIJ5a9xk+/3TLtOauKFFiVqQds5PCv21HMxBcVMC/NpJkk7rflEpPFNW/4XzrXXAC4rU6/eU7tCrXL1AFAi5QwhCCgDBZrOgcNOC1cjP0etc3c1537dVITk4RhoBgCsy8b9+0k3sRwYiHa89gtd7h+Lgb0BrAHBw1PI3AmTs7Fb++6xIkxEYhPdk3ry+Y+PRGExqaO/HwX9ZjeFDn8lvlnafuRWlulvffSgKuk/fJHbVQ2TOB1T/8E0xa1zzjoqS4oVCCSLXUcf7D8YcEBFdV8K+dM8MNV9yRp/7Yv1Gc6l1wAoKOruZ2eAhBQDAZHenTobzbiu2HXC+mTE1LwzUrrhKOgDheCi4PM+Lg0KGJyUnc/MTLqDrUPu1geeqRq5GRFIOC+ZmQy6TcDqwZrFU1tGLzjiqs2+x6N0ZRfgY2/P5+7uISWJ24Soyp98of/RsNh9umNbmqRIb4cDEyE9SQholJQHBVAIHYEeLR1oITED8tn9D3T4SpBFKzgA9DKAJiYMyE/lETXjlgdXmoFAP70osvxA9uvwTp4a7XS/ilKFx8OHEgHpjcZ7rzgmlTWpiFH954PiI0KszLSvE5so6eQTCHSj3w5w0uD5Vignr60RtxxTlF3MUnoDpxlZQ79U5IS8b1s0agkkuQEnvqj0+ageCqEv61kyCdNPyuTOrhASr8xiwoAUGvL7gvtlAEhNFsRdeQAduO2FDV6XoWQvn/2bsO+Cqr8/3cvbNDAiTsmcUWGYID3NuKWivurdXW1tp/a9XaobZWba11W7Eu3FucgMieGSRA2AGyx937/n8nMZKE3Hu/PW7O1x8/sPc973je833f853xnjQrXnvkbhQNNgoPBl+NfF5OApGHx179Gk8v/TphJGS04ZGfX4DcTHsneSAkQurL5fFh595DeOXzzfjsu61xzWdn2/HxY7cjK13A6V0F5EkovJnkW6/X46R5szAutAFDsi2wmvS9zFMCIVQ25NejtGkMRRGIf1Z4Pq/wWk+TP02p44FSCARBdF+DG+0eHV7ZFkQ0GJ9ETCobgzceuBparaK6Z1en4PJyEog8JDuuu7vX3nrxSZgzeSTsNjPGjyyQrTNX7NiHxpYgfvmvN+D3+uP6cVzpaLz8x2uEzbeMeRIKcKb5nj51GvJz7Bgf2YiCnGPJIiUQQmVEfj2lVu+yn5faTpffky4PFPWE/v2moLMhrLyVpkpJFhc/lEQg2t1BNDsD+L65EFurdyUM54YL5uOuqxTKJdm8nAQiD0+9tQJP/G9Z0i5wwrTxuPnCOZ1yE0cXwmrpqgUgx9XQ3I66+mas2Lgbz7y3IqELV5w7F7+/9kxh3ZQhT0IFwDTfhcOGY+qkUoQ9zTghYydMhmMrjVICIVRW5NeTpw+5/jTNmCa/JwojELR4lDhdQkkEIhaLYU+9G7tRjPXbd6OluT1h0PdcdyauPmeuOMDw1crk5SQAeSCloe/659tYvTEx4SLhkBM3/3jjmTCbjMhIs2H0sMF8o+TVPhqNYVvNHpC/H3j+I+zY25RQ393XnIFrzzuBl81jGkuUJ6GcZpNvR1oaTpgzCwa9AbpAK07I7L+PUAIhVHaUoUdJRaUUMwLx7yrvG1vdlkuUkaLU8UJJBIKgSkYgNrlGIGbJxdffrkA4HE4I9oM3X4hFp09XZkJI6WtSzKi/i2zVvGw+L79XV+7Brx97A80JtkJ2G7DarXjw9vMw2G7pnAogZaul3nnRX7BkBIKMRDS1uXH3P99DIJh4cez9t56Py049jhduxzQWOU9COcsm33qzGXNPnId0gxEajQbpeg8mGyr6dYUSCKEypAw9k+2+N28ttl6qBG8UQyD+uDXYcDBgGKQEUFLJB6URiEg0hq8OD4IpaxQONdZj47qNCeEmD8dbLj0Rt1+yoPNBqaiL1B94fcWxh3A5rF3kgcO5FiQ+fyCIv7/yOf738TqQUZtkl9Ggx/03nIcRQ7oO4RpRkIfsDAEXJSZzIMHv4UgElTv3IxKJYl3NfjzxSuIFoCTHN/zkZPzi8pOFy7dIeeIBS6+mbPOt0+sxb848pKV1rXfIys6GxrkPpYbtlEAIlRQF6yk0hRr/MNmYpwQXFfFEJkd3f+VOa0n+qFQCZOryQWkEgqC3rnkwfNaug51qqndiR+3OpKDOnToej911sSw7ChI6Ryohrt9xdCSCHIpFzrZgeaJmt40vN1Tj4f9+ioN1zA/1uuOKUzBzwvBOFdmZDowYqohny4+wNbc5sf9QY+d/v7lsMz5YGX9XRnejOTPG4bE7Lka6Q6BdawLnKWmHZSjAJd/TZ07H0EFdx73bbLZOAuHbvxEltr2UQDDEXc1i5KW9wO5UxBHfiiAQz273PrTBZfmNmpOqVN+VSCAq27LhTCtCMNC1E2P1ug1oamxICmFurgO/XXw6zpo3Jams2gS27diPPy/5Atsq+38J9BcPmaL4+RWnYMqorjoPZO0DWTipxN0rNXvq4PlhJ8ZDS75C+Y7ERbA6yVC2Hb+76gya7x+ST7ZrTps5HflZXVVF9QY98vMHd47U+HZ9g5LM/kknncJQ29Mgub8zHL6Hbyiy3pNcUlwJRRCIR8r923f5TBPFDXVgalcigdjebIF29GloqK/vHKIPhUNYvXY92tvaGCVp1uRR+P2152DMMGV9aTNyvo8Q+QJ99ePvsWZr/AOx+tPrSLPj91ctQGFeVtfLRK/rJA9kOkOJFxmmr959sHNBJfn3n178AnvqukYlkl3HTxqJ311zNsaNkHdRaDI/mfzONd+2NDtmTp0Kh6NrAb5Wp0V+Xj7IdAa5AjUfoyin/7NmKIFgkhl1yYy1BKrvLjMXye21IgjEXRvDIWdEp8wnn9wZ4mlfiQRiZ5MGuok/gc/nRXNTc2eEPp8P329YC0+Hh3HE86ZNwJXnz8bcsjGM2yhBsK7ViY++3YzXPl+LxkYna5eGD83BHVeeinxb13kH5At0wqgCWbdsMgmi3enB7gNHOkU7XB7c/9JnaGhgHj/J9xXnzsK8yWOZmFOMjBD5vvziM1G1u7UrJg2Ql5cPo/FosbVI9dsYl9v/JDAlEIrpCoI5kqaLhB+drpe2Pn0/3stOIF6scv1kjdv+lmDIUkW9EFAigdjfEkF4fNci4o72djidXS8RZyiIzevWo6Mt8fbOvikeXZiHBTMm4vipYzB1XEHnUL7Srr2HmvD1hmp8sboaZLqC63X63DIsPqP3rhSyXZNs21TDdaihBfVNXSNN9R4//vnyl9h3KPH2zr5xjSoY1JnvmVNHY/r4YQMi3w1ePZaXH+6EIic3BxZL74JR+h1vYHj2sTUgiDwlEGq4M9j7OMvuvviaYsfb7FsK10J2AvGvSu8H5R6L4s45Fw5ieTUpkUA0tAfhHnP5j8A0NTXB7zs6/NrRfADL15RzBo5McUwaNxJLFFs+AAAgAElEQVTHlY3AlDHyfJnX7D2Myl1HsLZqD1ZX7EJLS/xTFJkESqYsbr90PkqGH522IWsdRhXmC7fQkIkjAsjU7j/SOQLRff1v2Xp8urKSs2aS77KxIzGjdDimjC2A3Xr0JErOSlk2FDvfhECsqDiC7BxCHizHeGevfRV5Gf0TZ0ogWCZTJeJlNt+Ht5dYz5PTXdkJxINbg40HAoZcOUFIZdtKJBBuXxgNhZf9CDtZB9HY0IDgD+WtTywbggN1+/DMO6vgdXt5p6dkbAEG52RicK4DuVkODMnK7FygZzeaYbPqYbCYYddrkZluj2uLzNs7AyEEvAE43V64AiF43T443QG4An44PQEcONKI2gPNqNxVx9vnngrIDpSfnTal1w4UsuZh7PAhip+26A8Isg5ix946eH2BH3/esLNOsHwXjR6KoYOyUirfzQETKo+Eek1b9MQ27+DrsFv6nwWmBELQ21ExyoaZQk33TjbKWvpAVgJxfyymbdgQi4RjsrqhmA4hhiNKJBAkztrsi6DRHD1yOBqNdi6qJIWlCIHIs4bRForg+XdWYEvFPjGgUbzOtAwLbrn4JJSN6Nqy132R8tRk2kKpCyaZAEvqQ9TsrutVWIrmO36+TZnD8MnGg/1CG4tFMablnbiwUwLBpEeqT0aviSFvhkZ3v0YTlct7Wd/cz1W571rvtv1druAHgl2lEoga4wkwpPV+MUbCYTQ3N2P2hJxOAtF9ras4gOc/WQ2Pi/9ohBpybrAYsXDGOFw4fxKs5t5nWeTlZKAgv2sbn9qvYCjcuaiy50gEiYnm+2hmu/N90GXA+2v63+IbctZjQvA7SiDUfkNw8P84u+dX1xfbH+XQVJAmshKIxyt8K6q85nmCREKV9IuAUglEZagElsH979w9bpQden/X7ozuy+sP4MNV1Vj2fUXScshq7QpDcjNx2twizC0ZCYu593y2Qa/HyMI8OGy957/J1kg1X2Tr6cEjzWhs6b1wlua7d74TEQjfkWqUGOKvIaEjEGq+QxL7Xmz1r7yz1MKvZj4PeGQlEPdtCbUdDuozePhPmyZBQKkEosJdAOuIWf16f/6skXDE2rH/cCPC4UgvmabWIN5dsQ4rGBwupZbOMaN0FBbOmthrgWRP37MyHCgcnAO97thV9rv2HQaZDlDjReIZO6KrCBbZ4knz3ZXF/vKdiEB4961BqT3+uhtKINR4dzDzeYgx3P7AFEMmM2nhpWQjEEsbY/av9sJFy1cLn9SeGpVKIKpa02Eed2pcAlHoCHW+GEkJZPJy6Xu5PD6sqzmI5et3Mi5IJC7S7LTn56TjlJnjcULZqLjlucmow4iCQQnLdx843ASPz8/OuEKkbRYzhg05un6a5jt+vhMRCP/OL1Cc1RE3q5RAKKTDi+BGZ1nrkXAsGqTht82Lo2+yEYjnq9y/Wue2/Y2j37QZQwSUSiBqmvQwTLwgIYHo/pEccUyGufuORnT/fripHeuqD2FL9T7UHkheEpshdIKKkXUNRcPzUTZ2CMpGDcHQQfEH3sj2zJzMdAwZlAWd7uhC0/4caml3HTP8L6jjIioblJ3R76FfNN/Hgp5wDUT1e5iQG/9UW0ogROzEClA90+759XXFdlnWEspGIJ6o8H1T6TWfpAD8U9oFpRKIw60h+Mb9lBGBIELkNMf65rbOlyXZBhjvandGUbVnP3YcPIJ9jS4camiFz9N/iV8xEz84NwOk4NGogiyMGZKPscO6Sk4nukgBrNystE7ywPQ8i1A4DFJXQY3XmOGDQUZZ+rtovnujkohAWHa+hiFZ8YsSUgKhxruDuc8lVv+3d5RaTmbeQjhJ2QjEA1uCzXVBQ7ZwoVBN/SGgVAIRDEVxcPAljAlEtyB5YZJqhi1tLsYJbw2G0djYjrZWD5pdTnS4fWhq83au/nf7AvCFgvD5owgFAvCTo5/jXBabBWazFladsbP6odmqR5bd3rmwMTvDjCyrGZlp6SjIsx+zeyKRs6SKZG5WOueTRo80tfY7zcMYIBkEScyDc5OTKprvruQkIhCFR96E0RB/pIoSCBk6uIQmC4yhlvumGGXZmiUbgbh1QzQajGpksy9hfmU1pVQCQUDZrjkOpuyuY6h7XmQRJVkDkegiX6hkqJscFd13G6CsgDM0TghITmZa5/Hb/S2OZKimU4ysHdhzoB6RqGzbwdm4C51Wi1HD8lnFPdDzHY9ABFr2oyi2PiH+lECw6p6qEzZqY7F/z9AmnusUKSpZXuAvVbl/utpte1WkmKjaHggomUBUduTBMvrYXbxMCETPJPv8QbS73OhweX88MlppnYBMSThs1s7RijS79Zhtmnz9JYtK6+p7b33lq1Os9qSORd/tqGxsDcR8xyMQvt0rUZKeeN0PJRBsepc6ZWfbPZdfXWx/TWrvZSEQT1V6X9/isXSdpkQvURFQMoGIt5CSLYHoCSD5Gu8mEr4fpiTiLb4UE3gywkAqRpJCUDarWZLzGdo63J3rRJR85edkJiwZztb3gZLveAQilGQBJcGTEgi2vUp98lNsvjduKbEePR9AohBkIRAPbfXv2h0wqesMZokSIrQZuQiE/1Alik3VCcOJt5CSD4HozyCZRydrG8jfwWAYoXCk89/kDxkaJ4syyZ9INJJwgSbZEUGG37VabefuCPJvciaFofOPHgaDDkaDoZM0MF0EKXS+yZZXsiZCiRdZ8yDFqaGpmO94BCLZAkrSD6oCE2EeWiJLl6iYfqMsdgea0dGmQO09k82Sn3MvC4H4zaaQvzWs712jd6BlXKJ45SIQvqZdKNFsTRhlJBrDvkGLjpERmkBIBLVizJC6EEca2zoJkhIuQq4GD8oEqftAL24IxCMQIxuXJiWr2yOTYMobx80wz1aUQPAEkGHzLH048PA0g+Q3mOQE4sWKlsI13qwDDHGhYjwRkItABFoPoii6Nqn3FaEiWAcX95KjBCIpbEkFyIhKQ0ub7LszyIhDXnZm0pdc0oAGuEB/BMJbtw2l5p1JkdmuPR6mrMKkcmIIUAIhBqr965xlbR12TWm2pLXtJScQ9AAt6ToUsSQXgQi7mzDevzxpsFUtDpjHn04JRFKkugQ8Hg/Kt25BKBxCOBhEKBRCKBREJBJBJBICOZAsEgnDYDTCYrXDaLIAOjMMRhMc6RmwWG0MLXET83k9cHW0IxQMABE/ggEffF43QsEgdDo9dHo9dDoDdDodDAYjDAYD9EYjDHoDJk2dCqvFys1wirfqj0AEqj9EUe7RI9HjQVBjmgeDI08WhCiBkA52OQ7WkpxAPFnp/XCbx3KOdLAObEtyEYiI34Nx7k+Tgr+vKYLIxN7raekIxFHYKsq3YU/tTnS01kMX9SPT3n/hpaRA/yAQjsTgC4QRDMcQjGqhMTjgyByEvCEFyM0bzEhNw5HDqD+0H56OJmjCXhi0URj1GlhMeuh1/B4pra4wYLAhM3cwRo4ah6Li3qNTjBxMQaH+CIRhx+sYlp28P+ywnwa9OU0WVCiBkA72STbfR7eVWM+VziLA727n4Olft/r37gmYRnBoSptwQEAuAhGNRjC29d2kHrt9YTQU9l48PJAJRM327di6aQ0C3nbYDDFYzcceoJUUVI4C7Z4QfCEDCsZNxrCRvdc4NxypQ235OtgNQaTZ4lc95Gg6bjOPLwxvWAeTNR2Tp83ChKIioU2oQl9/BCK/7nXYzMkJRG3W+dBopctZT0ApgZCue40yBfb9drJ5pHQWZSAQdAGllOmVbwqDRJl/8HXYLMkfcH3XQQxEAvHFZ5+g/sAu5DiUcbzckXZg2klnQ6PRYuPKZRhsTz5ULkXPbnZpkD9sLE494ywpzCnGRl8C4T1ShVLD9qT+BYIR1A2Rb8c8JRBJUySYgBwLKSUdgXhpS1vG6mCGsjeqC5ZOZSiSawSCRG+vfQ15Gcm/fKqbjDBOPO9HwAYKgXB2OPHVFx/D11aHTHtynJTRo5ThRZs7BEtmARacejbS0uUZnpcSib4EIlj9ASbmBpO60NQRhHP05UnlxBKgBEIsZPvXO9vYnnn1lMx2qaxKSiBerHFfvabD9qJUwVE78o5AaGvewMic5EPwzR0hdIw+erBWqhOIxsZGfPvlJ4j5mpFmTT5CQ/txfASc3jA0lhyctPAsDBo0KGWh6ksg0ne/hpz05KRzX0sEkfF0BCJlO0afwGale665ZoL9JanilZRAPF3le3GT23y1VMFRO/ISCCZV8rpzVOEbBWvhtM7/TGUC8d7bbyDQdhBpNkochLw/nZ4wTJmFuOAn8r0shYynr66eBMJ7cBNKLXsYmdvZqIeu6AJGsmII0REIMVCNr3Oa3f/STcWWa6SyKimBeLTcv6nGZ5oqVXDUjrwEwr9zGYqznIzSsKtRA23RT1KWQHzz5Rc4tKcc2Y7kIzKMAKNC/SLQ4opg6KgynLzw1JRCqCeBiG5/G2MHMVsrU9lqh2XcGbJhQQmEtNBPsAQ231Vm7voSk+CSlEDQI7wlyGgfE3KugfDtW4sSO7O6Ji5vGPWDz4PWYBV2BCIUBvxBIBgGgiEgEgWiPzx8tRpApwWMBsCoB8xGwCD8yMBrLz+LDINH+uQPYIvtIRt+euUNwiMgU3/qJhDRkBf5Rz6Ag+HUV6WzAJZRs4THgaFGSiAYAiWQmNRHe0tKIH65IRx2RXX0E0ygzsJEjZwEItC0B0WaTUzc7JTpPp1TkCkMjx/w+AB/4mPBj3HObABsFsDGvyrs5k0bUblhOXLSaJdn3AkEFGx2RlAy40RMnTadv1aZ+1M3gWBy+mbPYLfHpsGUO4p//Bw1UALBETiOzRzaSOQfM/TCfwXF8UcyAkFLWHPsETybyUkgYpEQxrS9zziC/c1hhCdcxm8EwhsAnJ6uEQc+FxmRSLMBVm5Htnzz5TI4D1fCaNDy8YK25YlAMBRF+tAynLRgITdNCulP3QRCX/M6hucwfz/UZp4PjS75Yktu4CRvRQlEcoyElpCypLV0BILuwBC6nzDSJyeBIA5m738NGSwKD1W4h+Onl12CQgfLkQNirMUJkC9FIS8yEpHNbpvgmu9XoaF2HSUPQuaBh65AKILB42bh+Flz2GlRSH8iThMC8drrb6LUvp9xDKQwWMvwo7ubGDcUUJASCAHBZKhKyp0YkhGIp6o8/9nitt7EEAMqJhACchMIpuV2u8MloxBnX/1/7AhEJNJFHthOVzDFmExrEBLBYPaNlJ7evv4LxnPUTF2gcvwQIGtsimaehtLSsuSKFNSfup0lBOLjl/7CavThQEsYofG9q7wmD15YCUoghMWTibYpdu/TtxTbbmYiy1dGMgLxeIVvRZXXPI+vw7Q9OwTkJhDh6ncxPjfCyulQxiScd+bJzNqQh31TB/8pi2TWyJRGbnpSErHk6b/TNQ/JsJTpd7ImYvFNv0psXWH9qdvZDz79Bob2bayQ29Gkg37ihazaCC1MCYTQiCbXV2z1r7yz1DI/uSR/CckIxF+3Bfbu8RvpGRj8c8ZKg9wEwrfrK5Rksis+Wt8RwzU3/5JZnI1t4o089PWAjEQMyozr10fvvQ2dj9muE2bBySdFDrUqHDsFRpMZtZVrU2b7acRSiHMu6Nou3O+loP7U078X//MP5Keze1xXtmXCMnaBfJ0IACUQ0sM/yhzc99tJJknOxGDXI3lg8btNQXdj2CDuWcI8/EvVpnITCG/dNpSad7KG15RdhFNOOy1xOzHmqJN5GmdNBClL/dGbz/A+LTOZebF/b3GFkZY7AuddeHEvU5998iGa63Yg28F8AZ/YvnLR3+YO45xLbuy//LWC+lPP2L5etgyBluTnXvTFo8I/DtaCSVxgEqwNJRCCQclY0SB9yPPnaUY74wY8BCUjEHdsjEa8EQ1dks4jWVyayk0giM/DG5ayPuaZPOhPOftnyB8S54hpsjq+uYMLJPzb5KQfszvjjVdeQJqOWdEs/g4Iq4EUX7JnDcXE4klJT7ss37YV1ZVbEHQ3q5ZMOCNpuPSKa3uDqLD+1O1c/eEj+Prj/7EmptFoDHsHLRK2o3DQRgkEB9B4NrHqYtEnpmsl2TsuCYGgWzh59ggezZVAINhuPesOt9mjx+Lrb+8/+vpW8dc9xMOdrIfIz/rx10gkhqUv/A3pIh2IFQ7HQFbUe4NAINp7BMBsMiLdYWXUQ0xmK6w2BxyONKRnZCIrJxs5OTkwGIyM2vcVCoWCaG5uRmtzCzra2+ByOeH1uBDwexnp63B54Q8cPRBKgxiM2jBsJg0y7AboSKEvEa4OdwiLrv01dLoe+hXUn3qGvOS5fyHHxn5L8qHWEPzj5N2BQeKgBEKEDsxApVRbOcW5Q/sE+FKV6+LVbvtSBnFTEYERUAKB8O/4AsXZ3EYL+p2zJls1yXCznBfZlfFDsanPP/0I0fZawbwhIwLmtEHIyMpFYeHwzlGB979cC4+v/y2qC2ZPRl5OhmD2pVDU0NyOr1Zv7deUzWLGWSdOxe5dtTh08CBaWxvgdzYKug5DmzEGp595Tpd9hfWnblD4rKnZ3mSCaeK5UqQyoQ1KIORJwWy7e9HVxY63xLYuCYF4drvnwQ0u6+/FDobqPxYBJRCIQMNOFOnYrSDvjsTrj6Dk+DN7D61LudAtXqfqsaByyTOPIcfBv/c1u3UYWzwVs+bMPUbZpspa1Oypi/vCPX/h8fwdkFBDIkI0YVQBppWMOcYbUl9jV9Vm5NjZ7erpL6xmF7D4xl90/aSw/kRcqtm+HZVrP4XVzG0kWgnrH0gclEBIeFP1MDXD4f3TDUW2e8W2LgmBeLLC++Y2r0X+CTmx0VSgfiUQCAJL1r7XkMlxiL/JFcPl194BvV4HkLMIjrQqA+nBWaiorsLBym94+UNqFNgGjcLZ514UV09bhxufrtgY93fywiUvXjVchAgRQhTvOnP+dGSmx18D9vGH78DTuId3rY3CkpNROrFYUf2JnMUSDkfw6gtPINfB7fHs8YdRXyBv/Yfu3FICIc8dOcnqW3pbqfUSsa1z66EsvfpHuW9Ntc+srk8kljEqVVwpBCK6fSnGDuLe3ZpcUVxw6fVI0+qBNrcy4M6047V3/8froCwyXTFn4fkYNerYL+6+QX66fCPanP3HTob91TIKkWj0ITPNjjNPTH52BflC37TqE9aLC3ti2nng1oU/U1R/ckbDeP/155CTxn29+b7mMCITKIFQxkNCHi8mWvxrf1lmEf0UNe5PdBa4PLTVv2d3QJp9qSzcGhCiSiEQvtpvUZLRzAvzZlcEp84/D/nWdF56hGrs1wPvf/Iy0mzctjYS8nDFjUkKG/Vwds2WGuw5WM/5y12ouPnoSTaSMqowH7OmTGBs4pVn/sZ5N4jTE8b5Z10JM/s1ioz9YyN4xNOBL1d8wLsQWVWLA+bxp7MxLZosHYEQDdqEikebAnvvmWwW/RQ1SQjE/VtDrYcC+vgVeOTBeEBYVQqBCDkbMM6/AlqeK+tbnCHMmXQyRg0dJnv+Pl39DRA9wskPsk318ht+zaptsqH/eGsHWBkRWTjRWg5imstUzCvP/J37AkvtYJw5m2HVUxGx2V13AKvLv0F2Gv+Dr6piU2HOHS2it8xVUwLBHCshJYeawm33TzYc3SompPIeuiQhEHdvDAXaInpue8VECnygqFUKgSB4G3e+jsIsbl/rPfPV5gph5NBSzC6bJmsal3z8MnIy2MeTtMZFnKgS7VwgTdQwjZFo+oLEwGVHSUdHOz584zlOIxHN7WEsPvtKWfvR6vJN2HuoApkO/uShoT0E9xj5t292A0oJhDxdK1MXDj4y3cDtKGEWLktCIG7bEI0GohpJbLGIfUCIKolA+Gs+QXEOsxoBTJLT4THjwlPOgUkGbrqpphINzdx2ljiGTMYJJ57EJMReMskIBBG+/NwTWeuVssGrHy5PaI4LgSAKv1v+LVyH+98Wmiy+vJxJmDahJJmY4L8HwkG8+/VHSLcJd4JsTZMBhonnC+4rV4WUQHBFjl87kzYWe3KGlvtCGobmRX+pL63qyPrSndbC0B8qJjACSiIQgfpqFOkrBY2QTGkMz5+AeVOlXaP7v0+XIiuN/ZHjLV4DrrjuNk4YBENhvPXZqoRtk+1g4GRYoEbJ1j/wJUCvPP8ksq3sc9LqNOBnZ0q7SWzl5rXYX18jyJRFz/RUekbCMjz5IlSBUppUDSUQSSESTWCh3Zm9qDhd1C1rohOIl6ucc1e5Hd+JhhJVnBABJREI4mj67teQk85/qLZv0K0uA86ZewbSHQIUZEjSp9pcTny59j3YLeymL/zBCEpnn42x45gvEuzrilhf8FLcRmKPoOzaWYOK1R/DbGRXO8HtC2Ph8Rcg05EmOgwdLhc+WvUZshzsiU4y55zeEJoKLgGkqWKczJ3O3ymBYASTKEJz7a4TrixOS/zFwdOy6ATixWr3lWuctv/y9JM254iA0ggEl+O9mYZO1kZkphfizNmnMG3CSe6DFctg0LHfUeKOZWLR5VdxskkaMRmBIBUpyS4Gsh5CSRepokl2kRASkei6+Iy5MBrYEbOe+pa++l/YNexOfyXtQ5EcnDc/yeFtPAH9dPXXaOs4KMhah/5c2d0UAyZKO5KSDBJKIJIhJN7vs9I8V10z0f6yeBYA0QnEc9s99653Wf8oZhBUd3wElEYgfAc2o8S6W9SUNXdEMHZYCWaVThXFzpKP/4ucDHajKOR47J8svg1mi4WzT0y+4Ily8gImOzLGjyrg9TLm7GiPhoT07NhT11lFk/w72cV1DUS3Xr/Ph7eXPIkslqeGNreHsPhs7uQuUVxrKjZj14FK5KSzGxlJhlXf3yuc+bCOOoFtM1HlKYEQFd6Eyo9zeP9wfZHtQTE9EJ1APFXl+c8Wt/UmMYOgutVDIIin9tpXkZch/qac1g4tZk+eI+iWz7UVW9Dawf5oZb8+Hxcu4lfch9SAIF/xTC85iQRb4tAd07wZJSgcnMM0xH7l3l36Oszh+PUy4inPSi/C8aVTeNnu2XjPoQNYvfV7ZKVHBdMZT1GHJ4ymIRdAY1DWyBMlEKKnPq6BKXbv07cU224W0wPRCcS/KjzvlHutF4oZBNWtLgIRqPkYRTk+SdLm84cRQSbOnX86zBxPnezp6CufvIbs9Bgr30mp6lMvug6ZmfxKoSSroZDIKVKgibyYC/L5vZyTBV5X34yDR5oTFrxKpEOIWhZtbW344p3nWZe6JrMri8++PFmISX/3h4L4cMXn0KENFjP36ZikhnoI7GzUQ1d0AZsmkshSAiEJzP0aKbN637291Ba/Pr4ArolOIB6v8H1b5TUre2+ZAEAqVYXSpjAIToGmPSjSbJIUMrI+wmjIwoyiqRgxhNuZEVt3VuFwI/utgh1hBy5bfB3veBOVsmaqnIxKEBJB1kqQP3zXSpC1DWRqhfwh5IHJNEUiX5mWsk4W7+tLnke63pVM7Jjf9foCnHr8fNbtSIN9h+uwYftmBEOtoq1ziOeYUg7P6usfJRCcupIgjYqt/uV3llrY7xdnYV10AvFouX9zjc8k3Lggi+CoKKBEAkHyYtjxOoZlS/N11rMfhEJRdHi0GD54FGaXTYfBwHwtw9IvXobdys7nUDiKktnnYfSY5GddJOqv5EVNijAJfRFCQQ6uIi9u8m+b1Qy7tf9hcLfXD4/X30kSyJkcZFsmX8LQXzzkTA++xGZ3bS0qV38Ag57dVnh/IIILT1nMGGZy8NX329Zj/5E9SLdFYTCws8fYUALB+vYgPGP4j5wI4QslEGKgyE3nBEtgy11lZnEWgv3gkugE4uFt/p21ftNYbhDQVnwRUCqB8NV+jZIMUbcoJ4WOvCxcPiDDMQhjCkZiZMEwWE3HLnL8YMXniMWaYGT5MiIOtHiNuOK6W5P6kkyAz/RFMt1K+12IaQwS0yvP/xvZ1iDr8Mh228y0sThp+rFnEXkDPuytO4C9hw+gtaMBNnNEsmmKeIFUtdhgHn8m6zilaEBHIKRAuX8bY8yBXb+ZZB4npgeiE4g/bfXX7Q+YhooZBNUdHwGlEoiwpw0FrZ/DxrKWgti59vjC8AdjIDXcDDoNjAZt5x+ulyF7PBaexu/hTr7yP/hqbdKvfbIAsWLHvrgndnKNQah2ZJSjdPwIrNyQuJgYGQk5b8HxvHeQLPv0Y0Tad3F2PxiOIhCMIBwBolHAbNQorr+S4Ko0x8GcPZxznGI2pARCTHQT6x5uChz6/WQzt/lahm6LTiAe2BJsrgsashn6Q8UERkCpBIKEGa5+H+NzhS+oIzCEvNRNPfFS5A8ZzEtHec0+VOzcl1AHWc9AtkASskF2apD1CEq6yLoLUp+CkIOvVm9NWg+idNwIlE0YwSuEukN1KF/xFi8dSm+sxNoPPTGjBEK+HlRgDLXcN8Uo6qpp0QnEHzaHOo6E9OKXeJMvT4q2rGQCEWisRZF2i6Lx4+NciyuMK25kd+JmX3tMyj+TNn3rJ5CdEGTag6ydkPMiaxkIcSAEp/tiWs9CiLUQ/3vmb6xrQsiJF1vbSitd3dd/SiDYZlQ4+cGGsPOPUw3pwmk8VpPoBOK3m0Le5rCee/UcMaMfALqVTCA64a9eitG5ondDWTLdGrDiZ1ffyMs2k50X3aMP/Rkioxc1ew4iRMbhJbwMeh3KJozsLGjV38VkFEKIHRmvvPAUsi0BCSOXztTB1jCC4/jVFhHbW0ogxEY4vv4cfdj312kGq5geiP7kvntTONAW1olfNUhMlFSsW+kEwrd/I0pse1WMcHzXzblFOHkh9/LIZCqCFI9KdJEX9VknzUi4a4FMa5ApjZrddaKvjyAv/QmjCzq3iiYqSU1GRj75dkNSYkPqV5ARDK7X18uWIdDCvvAXV3tStqvsyIVltLJ3yFMCIWWP6G0rUx8JPjJNL+qR3qITiLs2RkLOiJbd3jf5ME85y0onEARw487XUZiVel0kc/gMzJozl1OfYlp1clrJmLhf+f0ZJpS19bcAACAASURBVFMiDS3t2HOgXjAyQUjDqGH5yMvO6NwSyvQi5a3JNEuyixAIQiS4XGu+X4W2/Ru4NFV0myZnCM5RP1W0j8Q5SiDkS1GaLhp+dLqO+T51Dq6KTiDu3BiJeCLin0vOIfYB0UQNBMK3ezlK0ptSLh9cCQRT8sD367yzngMhFM3tnWQiFA6jtd0Vd1SAjHZkZThg0Os760aQqRNCGPgcfsVklIV0DK4kIlUJhJK3bva8kSmBkO+xZtNFo49P14l6AIvoBOK29ZFoIKYV3Y58aVK2ZTUQCIKgvfY15LE8oErZyANcCATZhlm+I/GOCxI3mSKYf1yJ0iFg5N+K9ZWMdo2UjR/RuQ2UzZWKBIKURj+cvRB6m6gL7NnAHFeWEghBYOSkxKSJxp48Tsd9DzoDq6K/2G9ZF4mFIGoMDMIcuCJqIRCpOArBhkCQ0YC1W2s6z5FIdpEvf1Lzgc+XfzIbUv5OYie1IZId9U18Iud5HD+5azsokysVCYRaRh/oFAaTHiqejAFRPDVTJ+o7XlTlBJqb1kVjEfFPDRcvCyrXrBYCQWBOtbUQtvxSzD95QdIeREgDIQ9MykILVaUxqVMyCDCttknIAyFQPbeGxnN3xTdfwVNfIUM04phsdobQOvQ86Ew2cQwIrJWOQAgMKAt1OsTw9ExxR/9FJxA3ro/FouwOL2QBERVNhoCaCIRv3zqU2A8kC0k1v3s02bj4svjnKpD1B5uqahl9eZP1B9NLx3JeTKgW0Mj6j40Vu5LuziDxEAJB1kYkOjfjrdeXwBZrUUv4Sf2sbMuAZezCpHJKEaAEQr5MEOrwzHEaUd/xoion0N2wLhaj/EG+TqQmAkFQ0tW8iRE5qTHl1ezWYfENPz8m+Z1bKvfUMSIOpDFZLEl2WzAdtpevtwljmYzEkNGIZFtYu60RIkFGZvo7qnzJs/9Ejl3aGhjCoHCsliPtIXjHKH/nRU/PKYEQqzck10te7s/OVDmBuH4d5Q/JUy2ehNoIhO/QNpSYdooHiISauytRkhdiY0t75/oGNkdeE+JAyjnzPZlSwpAFNUVGaAjRYkokCMEimBFCMSg7o5NwvfLM35DtYLZeQlDnRVBW2ZEHy+h5ImgWTyUlEOJhy0Tzc5RAMIGJysRDQG0EgsQR3f0Zxqa7VZ/UYCgKDJnDqpw0IQukEBN5EQ6UEYdkiSYEjJAIUgiLTWnuTuJ1+Hteh6El802q3w+0axEac5FU5gSzQwmEYFByUqR6AkGnMDjlXbBGaiQQnqxhGLHtEaRZRN3CLBjGiRS5DCORPXTEMfUVyMvNbjN3Nh2U1VVPgXw5U9KQOC2ETHTWrehwo7G1vVPY7fH3Ihbd9SoaD9QiI3pQkjyLbWRb5jmw67r6i5ouSiDky1ZKTGHQRZTydSBiWY0EIjjpLDQvfxonRNbKC54A1lsDFvzs6psE0ERVsEVgyfP/Qo41zLaZ4uS3+IbAfPZfYNz2ieJ8S+YQJRDJEBLv95RYREm3cYrXQZhoViuB2GEowMQ3z8P4dA+TMBUr4/SGcel1/E7kVGxwCnfszRf+BodF3esfGl1RrD3tfxhriVICofD+pjT3UmIbJy0kJW+3UjOBMO5eifmV98FmUvdUhmPIZJxw4knydoQBZn35N1/BmwL1H5abF6D9xHswPlRHCcQA68N8w02JQlK0lDXfbsCvvZoJBIk897O7MUezmR8IMrdu9hiw+PrbZPZiYJlf8tyTyLGFVB10tdOBHYve64yBEghVp1IW51OilDU9TEuWvvOjUbUTCBJIyZtnY0y6X14geVpPK5iKufPm89RCmzNBYNXKFXDWqZt0evwRrJj0ZwRHzqYEgknSqcwxCKTEYVr0OG95e3YqEAjjjmU4seYhWFU8ldHsjGLxTXfJ2xkGiPUlTz+KnDR1FyNbHZuExjMe/TFjdARigHReAcNMieO8794UDrSFdUYBcaGqWCCQCgSChJv95b04IbKGReQKFHWMwJnnXKBAx1LHpU8/eg9wJT/NVMkR7+iwovqSD3u5SAmEkjOmTN8y9ZHgI9P0JjG9E72U9W83hbzNYb1FzCCo7vgIpAqBIBGOeWsRShytqk13mzuEMy66FlnZ2aqNQcmOt7a04LN3XkCm3aBkNxP61uqJYPXMvyNcMI0SCNVmURmO5+jDvr9OM1jF9EZ0AvGHzaGOIyF9mphBUN0Dg0BoO+pw3LIrkZ8mercVrUu1+Ey44tpbRNM/kBW/8sJTyLYEVA3BcusZaJ937FQXHYFQdVplcX6wIez841RDupjGRX8SP7Al2FwXNNBPLjGzmEB3Ko1AkDDt61/AgtbXZUJTGLPa9NE4/axzhVFGtXQi8PknHyLasVvVaGz2DMWBi17uNwZKIFSdWlmcLzCGWu6bYswR07joBOJPW/11+wOmoWIGQXWn1giEZ9I52GMYEjeoIR/ejOOMu1Sb9g5vGHMWLsKw4cNVG4OSHD+wfz++/3Ip0q3qLRp1oEOLTRd/Bo22/5ono0KHYdv2kZJgZ+QLrUTJCCZRhIabAod+P9lcIIryH5SKTiAe3ubfWes3jRUzCKo7tQhE+5QLcVCXmzCtxW+ehbHp6h2ubnJrcOUNd9KuKwACLz/7BHLtUQE0yaMiEIph+cjb4CuJv8C2MNKEjC3vyuMgD6uUQPAAj2fTMebArt9MMo/jqSZhc9EJxKPl/s01PtMUMYOgulOLQDROuwwNmsTLZvSNNZi58hbk2tW7Xa/Zq8fi626n3ZcHAm+88gLSdE4eGuRvutIwH62n3JvQkbyYE4M2qW/qjhII+frXBEtgy11l5qlieiA6gXi8wvdtldd8ophBUN2pRSAOTLsCHZrki4et25bilENPQ6dVL4mgh21xv3s/+/gDxJx7uCtQQMu1kSLUn/XPpJ6kx7wYtumVpHJKE6AEQr6MFFv9y+8stYhaQ190AvGvCs875V7rhfLBOLAtq3ER5a7p18IPZvPZWV8/iHmhFapOsj5zHE494yzZYyBrCfbu2Q2fz4OAz4tAoKv6p8lkhslihcViw5jx4zF0iPxLmr5b/i1ch7fKjhkfB7Z6h2DfhUsYqTAjjLEbX2AkqyQhSiDky0aZ1fvu7aW2i8T0QHQC8VSV5z9b3FZ6nrGYWUygW40Egu1DZ+j712OGea9MCAtjNnP4DMyaM1cYZSy0rPj2GxzctwuaoBOZDmakrdUVhs6ciaEjRmPefFE/cPqN5PNPP0K0vZZFlMoTPejUYNOiL1k5NhDuZVaAUOGECEyxe5++pdh2s5gwiU4gntvuuXe9y/pHMYOguuMjoLaHjsFgwOZJ17BO6filF2Bimot1OyU1MGSPx8LTzpTEpW+//hIHaiuQ6+D3CGhyxTBsTClOOmWhJH6nwpqHWDSGDxZ+BLCs8TN124sIhdR1QBjbjwFJOtEAMXKcw/uH64tsD4oZLr+nBwPPXqx2X7nGafsvA1EqIgICaiMQFosF64sXc0Ji2tKFKEyLcWqrlEYBQz4uuPgy0dzZv28fVix7Fzk8iUNfB5tdMcw/7UIMHzFCNN9TgTwQcD6e9BjCg0tZ43Rc1RL4fD7W7eRsQAmEfOjPSvNcdc1Ee/+FRQRyS3QC8XKVc+4qt+M7gfylalgioDYCYbM7sHbCT1lGeVQ8FUhEW8CKy6++kTMG8RquXPEtDu3YgHSRSj13uEMYOn6GKNMar770DDJNXsExkVrhl7lXwjPtCk5mj695DR63ukbZKIHglGpBGs21u064sjhtlSDK4igRnUAsrerI+tKd1iJmEFR3fATURiDSMrLw/ZiLeaU0FUgE+aI/+exFKBgqTB2YLz77BOG2nbxwZdo4ZB6K8y5cxFQ8oVzdoTp88/FSwUdMBHGOpRI+5IGYmlP7Fpzt6joLhhIIlp1EQPGFdmf2ouJ0UTuM6ASC4HHbhmg0ENVIYktA/FNCldoIRHpOHlaNOJ839qlAItrcYYwqnsV7caWU5KE7cc5IGi694lpeeVzz/SrsqVqDTDuzxZ28jIncmC95IO7N3fc+OpobRPZUWPWUQAiLJ1NtJm0s9uQM8fe3S/JSv3tjKNAW0dMjvZlmX0A5tRGIzMLRWJm3QBAEUoFEhMMxeDXpmL/gDAweHL+8dzzA3nv7DZiCRwTBk60SriTiyJHDWPHVZ7DGOqDXS/KIYhsaK3khyAMxOK/hK7QdVNd5H5RAsOoqggln6sLBR6YbRD3Kmzgryd15/9ZQ66GAPlMwdKgixgiojUDYJ8zAGrtwxdNSgUSQZHv8YUQMWayIxJJnHkeOQ95FpWxIRDdx0IVaYTOrf9SB5E0o8kB0zXJvhrtmA+N7XwmClEDIk4WhpnDb/ZMNWWJbl4RAPLTVv2d3wDRS7GCo/mMRUBuBiJUuQKVptKCpTIUtnt2AECLhDRtgNNmRkTMIw4aPQnFJCchagcb6erQ1t8DpbIWrtUF28tDtc5NbC0fGINgdacjMycXg/HwUFA5DTU01Du7fi9bmBvjdHbAaQilDHIQmD0RfSWA3NBVfCXpviK2MEgixEe5f/2hTYO89k82jxLYuCYH4R7lvTbXPfLzYwVD96icQTVMvQb02Q/BU5n/ycxyv2y64XqqQItAfAp+O/j8Ex54sKDj50Xbkbn5TUJ1iK6MEQmyE+9c/0eJf+8syyyyxrUtCIJ6s8L65zWsRZlm22IikmH41jUBotVpsm3q9aBnIWP4ITvR/IZp+qpgi4PRFsOKE5xHJEXYUrRvZSZufQzSqnpNHKYGQ556YZPUtva3UeonY1iUhEM9u9zy4wWX9vdjBUP3qHoFIy8zC96P5beFM1gcca5/GKe1vJxOjv1MEWCNQ5wQ2LhJ3imHO7rfgbBN1Zx7ruBM1oARCUDgZK5vh8P7phiJb4iNeGWuLLygJgXipynXxard9qQD+UhUsEVDTCERmwUiszD+VZYTsxS3blmJG7X+QZdOxb0xbUAT6QWBHhw3Vl3wgOjbz6r9AW516zn2hBEL0LtGvgdl296Krix1viW1dEgLxYkVL4Rpv1gGxg6H61T0C4Rg7BavTj5MkjcZd32Di5kcwMj0siT1qJHUR2OwdigMXilox+EfwZnesh2vXFtWASQmEPKmaZW0ddk1p9kGxrUtCIEgQd2yMRrwRjVbsgKj+3gioaQRCW3oKtpnGSJrCoR/ehBlGdZ/sKClg1NiPCLS6w9iWexY65v9aMlQmBWoRrfhaMnt8DVECwRdB9u2tulj0ielaSYZXJSMQv9sUdDeGDTb2cNAWfBBQE4E4NO1ytGrsfMLl1Na2/kUU73sVQ9Ikux04+UkbKQeBaqcDu+fej/CQSZI6lRVzY+imVyW1yccYJRB80OPWdpA+5PnzNKMkD1LJnph/3RbYu8dvFO+oPm5Yp3wrtRAIKRZQJkq21tOCEZ/ehjJHU8r3CRogdwT8oSg26aej6YxHuCvh2VJNCykpgeCZbA7NR5mD+347SZq6S5IRiMcrfCuqvOZ5HPCgTXggMLX8JYSCQR4apGmaProMqzJF37acNJjMb/+Kya3LkG5LjUqISQOmAowR2Nuhx46SW+EvPodxGzEE57atQcfucjFUC6rTYDRic9nVguqkypIjUGz1r7yz1DI/uSR/CckIxFNVnv9scVtv4u8y1cAGgeOrX4XH42bTRBbZ4KQzscNQKIvtvkb1h7dh+Oq/otTerAh/qBPyIhAOR7ElPBqHzn9OXkd+sD4+dBDGbZ8qwpdETthsdqydeLni/Uw1B6fYvU/fUmy7WYq4JCMQL9a4r17TYXtRiqCojaMIzN79FlwK3zdOvlTKy65EGMpaY2tf+wzG738HhenqKdxD+76wCOzosGBvyQ2yjzr0jEqPKMrKX1b8yKIjMwurRa7rImy2U0PbrHTPNddMsL8kRTTSEQi6lVOKfB5j44QDH6K9UZ7TGJkGLFX9B6b+9JXL++QXKAtthc0sycJmrm7SdgIi0OSOYnvmSWg7RfRaPJy8VkM9iIxBg/HdsHM5xUcbcUdAqi2cxEPJCAQx9ssN4bArqqNPYe59g3VLNTxozBNnYYOtjHVsUjYw7FuD4esfRUlau5RmqS2JEYjFYtjiL0TdKX9BNI398elSuTvDUw5/9RqpzHGyo/QPA05BKbyRQxuJ/GOGXrIFXJISiAe2BJvrgoZshecgpdw7oXk52vftUHRM7VMuxEFdrqJ97HbOseY/KDjwKcan+1ThL3WSOQK7OwyonXA1fJOUf2xPYaQJGVveZR6cDJIZI8bju5wTZbA8cE0WGEMt900x5kiFgKQE4tFy/6Yan2mqVMFRO8Cc9rVw1m5TLBRqHea0VL6LwTVvYry5GSa9pLeRYnOpVsd2dZhxYPjZcB2vrjXeSp+eTBszCd9n0EOYpbwvJlgCm+8qM0+TyqakT76nq3wvbnKb6b4eqbILoDi4D9ryZRJaZGfKVDQXG63F7BopSNpwYD3yNz+LMdHdSLfS2TkFpSapK+T8igOjLoBnxlVJZZUoMN1bhcD2VUp0rdOnaNlpqKKlfyTNzzS7/6Wbii3XSGVUUgJBd2JIldajdqwIYvRGSRbksg7OZndg64RF8EOyKTvWPjJtoHPVI3vVoxjh2kwrWjIFTSa57R1pqBu3CN4pl8rkgTBmzQhjcs1SeNwuYRQKrGX39KvhhVFgrVRdIgSk3IFB/JCUQLy0pS1jdTCjjXYBaRGYe+ADdDTWS2uUgbVUHeK0bnkDufs+R0HkAHLtytqayiAtKSnS4QljPwbjyIRL4Ss+L2ViVOoUZfqgfKwaljo4q6XDzDa2Z149JVOyld6SEgiShN9sCvlbw3qTWhKSCn7Obl8PV62yTvDTaDRonfIT1GmzUgHiuDGcv+ZWNByqhVXjh8NmSOlYlRacNxDG3mA2GgafANfxNyKmtyjNRd7+FERbkbXlbZDdI0q6HGOmYHWGNCfrKiluOX3J0ocDD08zmKX0QXIC8det/r17AiZ6JoaEWS4K7oeu/HMJLSY3lVkwCivzFyYXVLnE/eFXOiOIhEPYuH412ur3I80UgtWk/mkbJaYmFIqixQs4cgpQOuU4/CPrNiW6KahP8+q/RFvdHkF18lUWKTsd243D+aqh7VkgMMoU2PfbyeaRLJrwFpWcQDxZ6f1wm8cibzF53rCpSwFZB1Fc9Tr8Pr9iHB8oC6y6CURP4J3ODlRt3YiO5kOw6EL03A0BemVDRwSWtHxMKJuKQXn5P2q8X3+FANqVrUJpC6XNFjOqii+j6x8k7jaTbL6PbiuxSlq5S3IC8VyV+671btvfJcZ2wJub274aHbUVisAhfcQErMqR5KwX2ePtj0D0dapy22YcObAbCDmRm0ZHJpgkrckZQkxnR0Z2PkaMHodBg/sv+jQQCATBa27zCnTsq2ECnegy6WNKsSpjtuh2qIHeCBxn9/zq+mL7o1LiIjmBeJGWtJYyvz/aKoi2IGvLO7LPldocDuwcey5atZIcVy8L1j2NMiEQPeVbmptQXbEFntbDcJgisJopoSD4NHcThtyhGDlmPHIGDWKU24FCILKibozb9SE8Lnl3ZHStbboIdVpaL5BRBxVQSMoS1t1uS04giGG6kFLAXsNC1QkNX6P9YC2LFsKLmornYaNlovCKFaqRLYHoG8b2im04vG8HNCEnstMGziLMVlcIIa0NOfnDMHpcETIyMzlleKAQCALOdF81AlUrOeEkVKOMwjH4Lu8UodRRPQwRkGMBJXFNFgLx0Fb/rt0B0xiG2FAxgRAYF6qDadsnAmljr2Yg1sbnSyB6ouz1eLC3dieaGurgd7fBoAkiy26ARpa7mH3+47VwekPwhbTQmdORmZWP8SWlsDvSBDEwkAgEAUzus28Ck87CTkOBILmjSpgjMNoUqL1nsnks8xbCSMry6Hmq0vv6Fo9F3VVchMFfci3zDn2KtiMHJbdrNBrRUHLugBvaFJJAxEta7c5q1B/aD09HKzQRL9KtWpgMyqyKSUYWglEjTLZ05OQXYOTo8bA7xJvOGmgEgkxV5lV+iGAwKPk9njm4ECuHnim5XWoQmGLzvXFLifUyqbGQhUC8VOX+6Wq37VWpg6X2gJHheqSXf4RINCopHPqSk7DFPE5Sm0owJgWB6C/OQ3UHULd/L5wt9YiGPDBoo51ndljNOpB5arGvYDiKDk8EUa0ZtvRc5A8pxOjxE6DRSFtYa6ARCJLXKf6dCFd+K3aKe+nXabXoKDsHe/VHd8BI6sAANzbb7rn86mL7a1LDIP6TJE5Et26IRoNRCZ5kUiOqAntSF5YyF83FBhWfd8EnpXIRiEQ+t7W1oL21FS5nO7xuF3w+N8IBPyIhPzSxCHSaCIx6wGLoIhv+UATBcAzhKBCDDjGNDlqdATq9CQajGUazBRarDTabHba0NKSlZcBmF29UgU0+BiKBIPjM8FbBL+E5GbRwFJteKaysURuL/XuGVlpm/kMIshEIerS3sJ2Irba5e95BR2sz22as5a3jZ2KdYzLrdqnSQIkEIlWwZRLHQCUQBJuZrq3w7ljHBCZeMulZOVg16iJeOmhj7ghIfYR3T09lIxBPVPi+qfSaT+IOG23JF4Hplf9FwB/gqyZue/vYaViTPl00/WpQTAmEvFkayASCID+rYyPcuzaJlgST2YSNJeo8zVQ0UCRWXGL1f3tHqeVkic12mpONQDxf5f7VOrftb3IETW0eRUCMAjTklM3g8KnYbJkw4KGmBELeLjDQCQRBf6qvBsb9mwU/tXMgFYSTtxcntj7T7vn1dcV2WYozykYgljbG7F/thUtZR8AouZuI59tMTzm81WsEMZAxYjwqs2egTWMTRJ/alTxueRdefwDBUFjtoajKf6NBD6vZhDt9F6rKb7GczYx5UNKyAe37dghiwjpxFtbZygTRRZVwR4C8wBeMhGPRII2buxbuLWUjEMTl+7aE2g4H9Rnc3acthUKgJLAXWa070XZoHyeVaVnZcA2dgnLTaE7tU7XRs1lddTd8/mAnkQgEQ6kaqiLiMhkNncTBYjZ2+nND61mK8EspTpQFdsNxaAucrS2cXMocOgKtWeNQaZL0zCZOvg6ERkOM4fYHphi4VVkTACBZCcTjFb4VVV7zPAHioCoEQmBs6BDyW2sYVazU63WwDx6Jlswx9OS9OPh3E4junwmBIGTCHwgiqrAjmAXqQpKr0Wo0MJuMnaSBEIieFyUQ/aeDnNCb3VYL95G9CIcjSXNGKkzWZ03ALsPQpLJUQDoEiq3+lXeWWmQ7WEhWAkEP1pKuo7G1lBb1YXCkBSdamtDa1o72jg7YbTY0ahwIGh3w6O2UNDAAtS+B6G4SjcY6SYQ/SMgEHZVgAOUxImaTAWajsZM8aLX9P8oogUiOLCETtrAbxqALg2IuuD0eZKSnIyszA8t9uTiiy4ZTa0muiEpIjoAcB2j1DFJWAnF/LKZt2BCLhGOyuiF50tVk8LFiTy93f1FF1zawyV88AtFTRzgS6SQRhFDQtRKJ0SVrGwhhIORBr0tebZMSCDa9FaD3Ozu85JTWa2LIm6HR3a/RSFsVsEfQsr+5H9wabDwQMOTKmQhqOz4C9IHCr3cwIRA9LRAC0TkyEQgiHJHtucAvaIFb63XaH0iDEYRAsLkogWCDFiUQ7NCSV3qYKdR072Qjs2NpRXJVdgLxr0rvB+Uey7kixUfV8kSAEgh+ALIlEH3JBCEUoVC4c/HlQFkzQdY0kLUMBoO+kzCwJQ09MaQEgl3/pfc7O7zklC6z+T68vcR6npw+yE4gXqxy/WSN2/6WnCBQ23QEQqw+wIdA9PWJkImuP6FOQpEqazBJQXtCGIwG8ocfYeiLGSUQ7Ho2JRDs8JJTepbdffE1xY635fRBdgJBgr9rYzjkjOjYjU3KidoAsk0fKPySLSSB6I9QECLRPUqhlhEKMsLQPbrQRRzEu/UpgWDXf+n9zg4vuaTTdJHwo9P1vbccyeCMIgjEI+X+7bt8pokyxE9NJkGAPlD4dRExCURfz8jODrIgk2zL6/z7x3/Ls5aCrF0gW33JYsfOPz/8O96OCX5I99+aEgh2qNL7nR1eckmPtQSq7y4zF8llv9uuIgjEs9u9D21wWX4jNxjU/rEI0AcKv14hJYGI52ks1k0sop2kgvx31x90/k1GLo7+f0f//xi66sRqyP805A9++Lvrv8lIQt//v4soaDsJgxTHhifLDiUQyRDq/Tu939nhJZf0DIfv4RuKrPfIZV9RBGJpVUfWV+60FlrWWu7uQAmE0BlQAoEQOiY16aMEgl22KIFgh5cc0p3lq+3O7EXF6a1y2O9pUxEjEMShP24NNhwMGGTdkiJ3MpRonz5Q+GWFEgh++PFtTQkEOwTp/c4OLzmkC02hxj9MNubJYbuvTcUQiH9Xed/Y6rZcogRQqA9HEaAPFH69gRIIfvjxbU0JBDsE6f3ODi85pCfbfW/eWmy9VA7biiUQr1R7Z690Wr5XAijUB0oghOoDlEAIhSQ3PZRAsMONEgh2eMkhPS/NN+eKidbVcthWLIEgjv1+U9DZEDY4lAAM9aELAfpA4dcTKIHghx/f1pRAsEOQ3u/s8JJaOk8fcv1pmjFNarvx7ClmCoM4+M8Kz+cVXutpSgGH+kEJBN8+QAkEXwT5tacEgh1+lECww0tq6VKrd9nPS22nS21XFQTiv9s9Z33vsn6sFHCoH5RA8O0DlEDwRZBfe0og2OFHCQQ7vKSWnuPwnn1Vke0Tqe2qgkAQJ3+3OeRpDOmtSgFooPtBHyj8egAlEPzw49uaEgh2CNL7nR1eUkoPMoS9f55qUNRxyIqawiDJeKLc82Wlz7pAysRQW/ERGCgPlEBbI1z7tsPXcBBhjxMhrxMhZyuCzjaEXK047i/vcuomlEBwgk2wRlwJxPr/uxAGRxaMaZkwpGXBYE2D3pYGS14hHCOKYMpMzR3nA+V+F6yDSaioxOL96o4y20IJ2ehTrQAAIABJREFUTSY1pTgCQacxkuZMUoFUfaD4m+rgPrATnrpadOypgL/pUFxcbUNHo/jWv3HCnRIITrAJ1ogrgaj696/hObQ7rh/m3KFIH1UKW8EY2IeNgzm3QDCf5VSUqve7nJgKZVtp0xckLsURCOLUvVtCrvqg3i4U8FQPdwRS8YHSWvE9al9/lDEoRaMH44k7z4MeERg0MRi0MWg1ADkCipR3ppd6ESDlvMMAojEgFNUgFNMgDB0ee/M7fLqqinFgYy67C1mlcxjLK1UwFe93pWLNxq98Y9j94BTl7VBU5OPvyUrvh9s8lnPYAExlxUFA7Q8UTTgAw5Fq6PZugPPwHrjb27CnrgkR8sZgeC1eWIpfXnQcQ2kqlgoIvPf9DjzwyirGoei0GowZlgd7WgZMuUPhzxsP3YQTodGLd9IoY+dYCKr9fmcRqqpEJ9l8H91WYj1XaU4rkkDQolLK6SZqeqDkaD3I2vsd6qs2Yf++g2hsaUcwEoO2x0nxwVAIoTD55mR+PXX7aZhdnBpD1MyjHtiSVfuacflDH7ACwaDXw2jofcKyJhaB1aTHiBGFGFo8GcHi09CkyWClV0phNd3vUuIity0lFY/qiYUiCQRx8IEtwea6oCFb7sQNdPtKfqDkNlUgWvk1Du3diyNNrfD4Q9BodXFTFolG4A8EWad09RNXdr4E6DVwEPAGwph9x8usAzabjNAl6IPRSBh2kwHDCnJROGYsIiUL0eAYy9qOWA2UfL+LFbPS9RYYQy33TTHmKNFPxRKI/1T5XtjsNl+jRNAGkk9KeqDk7P4GbRXf4eDeA+hw+xBluYTH5w8gGouySp9Wq8Hmp2g3ZAVaighPv/UlhCMs+4tGC4vZxAoBo06D/Jx0DB4+AobiE9FWMINVeyGFlXS/CxmXmnVNtftfvLnYcq0SY1AsgSBHfH/jdrREWL4klAiymn2S84FSEDqC6MZ3UbOtEnWNrYhpuI8CkGkLMn3B9hqel44PHvgJ22ZUPgUQWPzIRyjf08g6EjKNQaYzuF5GXQxDBmViTFExdLMuRp0ml6sq1u3kvN9ZOzsAGugQw8l2lyKO7u4PbsUSCOLsQ1v9u3YHTGMGQD9RbIhSP1Bmejdg78rPUbFjH5ra3dBouT+Iu0GNxWLw+v2cMD575hj86er5nNrSRupG4OE31+D1b7dzCsJqNkMjxBadaBiDc9JQMn4URsw9HavNUzj5w7SR1Pc7U78GqtxoU6D2nslm5cxx9UmEognEs5Xu32zw2B4aqJ1HCXFL8UAZceBLHFm/HLV7D6LDG0y4joELJv5gEJFIhEtT/N9PZ2PRvImc2tJG6kZg6cpq/OU1boce6nQ6mI1GQQGIRcPIclgwYcxw5M1cgF15JwiqnyiT4n4X3OkUVjjD5rnnhhL7w0oNUdEEgoB298ZQoC2iF/ZOVGo2FOiXWA+UIfu+Rf26Zdi1pw7+MJlnFqcrhiNhBILspy66U/HcL87EjPGDFZgZ6pLYCGzYcQTXP/YpZzMmowH6HjuAOCvqp2EsGoXdrMPIkYUYNO0UNIwWpnivWPe7kLEPFF2ZunDwkekGdgtqJAZHnKe2gEHQ0tYCgslBlZAPlNxgI6Ir/4stWyrQ4Qn22l7JwbXkTX6YumBe8eFYlV89/FPkpFuS26ISKYdAc4cPC37zGue4yMOVTGWIXm0sFoVZr8H4cSORveBKNGSM4+yzkPc7Zydow04ElFi6um9qFE8gluz0zvyuzbKW9il5EOD7QNEjitKDn2Djt99gx97DiAmwpoEpEmTkgYxAcL0Meh02PHkV1+a0XQogcPzPX4Y/yL0PkREIMhIh1RUNBzBy6CDMOPFE7Br3E4ShZWWa7/3OyhgVTojACZm+4xePs65TMkyKJxAEvD9t9dftD5iGKhnIVPWN6wNlqLYd+uUvYu2mCjQ7fdAm2BsvBnZcaz709GVwlgOf/WWRGO5RnSpB4MpHPsI2DjsxeoaXrDaEKFDEosi0m3D89FJETrwWh6LMildxvd9FiWEAKx1uChz6/WSz4qvXqYJAPFvleWCD2/qHAdyfZAud7QMl78gmNC5/Ezv2HEKI3RZ6QWP0BQKIRvk5kG7RY8VjVwrqF1WmLgTue3klPlizi5fTWq0WFpN8U9lGHVA8bjgyTlmMxswJCWNhe7/zAoY2jovADLv3jzcU2+5TOkSqIBAERLqYUp6uxPSBklH+HnZ/twxHWp3QiLQgkikCoXAIwRD3YeduO0FXK5773RWYU5TP1DSVSzEEnv9sG578YCPvqIwGPQx66aYy+nNYgxiG5mVj6JzT4S4+q9+YmN7vvAGhCuIioIbFk93Oq4ZA/KvC90m513wm7XfSIpDsgZK15U1ULv8cba6A+IvFGIRORh3I6IMQl7+jCeedOB0P3yjMCnchfKI6pEWA7aFaibwjoxBkNEIJV066DWPnnQbn5It6uZPsfleC76nuQ5nV/+ntpZb+GZ7CglcNgXh1e8fYFa60nXxW1CsMe1W4E++BUrDnC2z79G0caXVBo1HGQ5EASs66IOsfhLj8bQ2wmbR47x+3Y1iOTQiVVIfKEHjn+1148JWVgnhNzsgg6yGUdJF1PkWnX4D60ad1ukUJhLzZIS/k+Q7nuMuL0vnNm0kUhmoIBMHjkW3+6l1+U+JJPImAGyhm+j5Q/r1iOyo/fAW1BxsFL/jEF9NQJIwgj5oPfe17Ww4jEvThsnMW4E/XnczXPdpehQjc9sRnWFV9WDDPjUYDDCLVhuDsZCyKkUNyUXr+z3Db/OJean5RRYkzZ1w5NBxrDtTcPcmsmsp1qiIQL1a7r1zjtP2XQ15oE44I9CUQp116HWIst4ZxNM2qWTQWg9/vh5AjVN6mOkTCAeg0Wrz6yB2YMU66MwlYBU+FRUFgw84mXPHbf8OcWyiYfvLANZvN0ApR5lowr7oUaRDFsjeepwRCYFzZqJuV5rnqmol29sfAsjEioKyqCASJ+4Etwaa6oEGRR5sKmBfFqOpLIE699AbF+NbTkUAwiDDHctXxAnI37AcpH0yuBSfMxDO/Ok+RsVOnxEHgxr9/gK9WrYcjf5SgBvQ6HUwCl7kWysEv3niWEgihwGSpp8AQbLlvqklV7zbVEYhnt3sf2uCy/IZlbqg4BwQcXz+GP/68N2FQIoEg51yQ8y6Evtz1e0AO4uq+Hv3NtTh/9mihzVB9CkTg/dW7cdfDL3R6Zs8bCY3Aix/JORnkvAylXX0JxB/+9SxcJ/9CaW6mpD8zHL6Hbyiy3qOm4FRHIAi492wK+VrCerOagFaTr4N2fIxtn72HVpcffR8oiiMQsRh8gSCiMX41H/rmhxAHQiB6XkPz87HkwasxYpBDTemkvrJEYF+jC4vvfQmH6us7W9pyh0Er8BZMrYbUhjAqYudST3j6u9/TLEZMPvVMtJRdzBJJKs4UgWx92P/QNIPqauarkkA8Vel9fYvHcinT5FA5ZggYNWGE37gX5Tv2QqPp+jpSOoEIhkIIhfnXfDiGQETCcDfuPwa4k2bPwPO/uYAZoFRKlQhc9/B7+Hb1hh99t2YPhc4o/PeKQa+H0SBvbYi+CYp3v8fIQsuhOci54s/wGdNUmVclOz3F5nvjlhLrZUr2sT/fVEkgSCB3bghHPFGdcvYPqi3zffwdXf4Kvv78S3gCvbdAKplARCJR+IPC1Hzom75oKAhP88F+s3r74gtx50XTVZ5x6n5/CDz+zkb8a8m7vX6yZOZBb7aLApjZaIJOQY+xZPe7URvFSQtORt3M60XBYyAqtWkj0cdn6JU3n8UgGaolEPSUTgbZZSBSpj2E8iX/QNWeI/0OpyZ7oDAwIZqIEOWq4zkXDvjga42/fe8vv7wSl8wfL1psVLH0CPRc99DTuik9B0ZruigOyV3mmukIRE85Mr03vjAX0665C+WxYaLgMpCUquHUzXj5UC2BeLGipXCjL/NAKKbaEGS/RyZuegqffLkGvgSHViiVQJBpCzJ9IdYV9rnha29IqP53N1+Ga04vFcsFqldCBL7eWocb7nuqX4tGeyZMjizRvCHTGGQ6QwkXm/vdrAfOWjgbNdNvVYLrqvTBoIlhuqVt2DWl2f0Pdyo8KlW/ff9R7ltT7TMfr3CMFedeXrgBdf/7C3YebE7qG5sHSlJlAgkIWa46nkshTwf8zuT4PPLrq3HR3LECRUbVyIHAmup6/Oyef8Y1bbCmwZwubg0QpZS5Zn2/x2KYOGIQCq+6n/GJn3LkWKk2J1r8a39ZZpmlVP+S+aVqAvHqTvfk5W22LcmCpL8fRSBz9TNYv+I7BMPMSi6xfqBIAHYgEERYoHLV8dwNutsQcLUyiub5P96CkyYp/uRdRrEMNKEVFYdwze//nTBsvdkGS6a4B6rptTqYFFDmmuv9bjFoMGfhaTgy7YqB1oV4xXtipmfK5ePsW3kpkbGxqgkEwe3Rcv/mGp9piowYqsa0f8kvsXt/4mH5vsFwfaCIBUo4HEEgJHzNh77+ktEHMgrB9PrHPdfhvFnCFhxiapvKcUPgX+9vwuMvvZO0MdmBQXZiiH2ZDEboZV5Lx/d+Hzt8MIyL/y42VCmhf4IlsOWuMvNUNQejegLxv13e41e0WtaoOQli+25r3Y2alx6E08t+zQDfB4qQsXWWqw4EehV3ElJ/T13+9gaEfG5W6u+6bhFuOWcyqzZUWB4E7vr3Mrz/xQpGxjU6A+yDxF8sqNFoYCYndspY5lqI+91u1mPCxTfDN4LOLifqYPOzfLN+Nta6llEnVKiQ6gkEwfXv5f6tO3ymSQrFWFa38irfxsr330E4xm3HqxAPFKEACIRCCItQ86E//7ytRxAJeFm7/pMzTsbDN9Hjv1kDJ2GDmx/9CF+sZP7NQU6bteePlMRDvV4Pk4y1IQS73yNhHH/yyXDNu1ES3NRmZLwlsO1XZWbVf22kBIGgoxD93z4ZXz6K71ZvgFbLfYuxYA8Unne4WOWq47nlbTmESNDPyeuppUX41RWnYub4QZza00biILBuRyP+/soX2FyxnbWBzvMwJBoZkLPMtZD3O9nuWTJuJHDpn1njneoNUmH0geQoJQgECeTRcv+mGp9J1fNJgt40r/4aVXv4H0Ms5AOFc3wilatO5I+3uQ6REPciVWaTGbdcfjZuPY92Sc55F7Dhvz/YjKde/Rj+ADdS6BhM1rdI87iUs8y1GPd7fqYd2bc9I2A21a1qgiWw+a4y8zR1R9HlvTR3hARIkR0ZK9ttW6LMNhdI4JE8Jgr8+1H+4l9xpMUliANiPFDYOiZWueqEBOKHo7zZ+tpX/pS5x+GexQswKk+cSoZ8/Uv19nsa3HhoyVf4etV6XqHa80eBrFGQ6pKrzLVY97uZ7NK46V7UZwzs4mtaDTAvQ907L3reA9LdERLcef8o935f7bPMlsCUIk2MOPQNvnz5BQR7V6Pm5atYDxSmTolZrjqRD56mA4iG2S867U9nbnYWLj17Pm4+ZypMBu7TSUwxo3JAIBTBfz7ajDc+XoGmFmbbcRPh5iBrIDTc1hFxzYccZa5Fvd+jEcw751y0TP0pV0hU326ixbf6l2XWOaoP5IcAUopAkOqUm/2Z+wNRCT8VFNITctc8h2+/+BYaQnEFvER9oDDwMxAMIhwRkBExsElEvI0HEIkIQyC6TY4eMQw/PfsEXLWwmKEXVIwLAv/9sgqvffwddu87wKV5v23IIkqymFLKS6/TwWQ0SmlSksPzysomIHLevZLGpQRjJm0sNtXcNlytVSf7w1DYt40CsvTPCs/nFV7raQpwRTIXDO/dj62Vu0SxJyeBIDsuyM4LOS5fSx0iwSBiEH5ObFpZERafMxdnHzdCjtBS1ubH6/dhyUersKmc/SLJZKDY80ZCo5WWQBCfyI4MsjNDqkuq+31ofjYyro9f/VOqeKW0U2r1Lvt5qe10KW2KbSvlCAQB7K6N4ZAzopPurhM7Swn0e1+8A3sPJS+5/P/tXQd8VFXWP9Pe9PSEVEjoBAidpYmKvSzrsqyiFOl1pfq5CiKgiK4rTQSkCArYENF1VRRXFKQoLRAgdBJIJb1MfdO+350QDTGTeTPzyn0z9/7Wzbpz7znn/s99b/5z77nn+GsiXy+UxvbVpatGCaPY/wJnggUiEC6HA5wOByckAtkwoHd3GPFgX3ikDyESTHziqc/Xx3Lh42+PwuHj3CT0k4AEtC1SBSEQKExNraQAFd3io/H5vIdplJAybwsf0xJcR5jMYV/eW45X7XYWUAlKArHurPH9TKNmDAv4YC2idsN0uFHCPFuiP5Ph84XS0D6UbRJlnRSqmcvyAVxOAJcL0BVSLnYi6udGiIR/XuaaOCCrEHmQyWSgikkGSQDXof2bYd0olJ0SZanko/H9vCvlEmj7wg4+piaojh5a07bpXbRPC2oEB8qDkkAgnF7MtNXepOVBG/pevnYyFFcYOVgSt4vk+4WCtPOVrro58Mylt5+fOxx2zjNg9u/ZDR4c1A2G39EWVFRIbKD5vH4ttB12/XwFvj14Go6cPO3zeF8GoFsXslsbmaqoJJDIhAuA5SvNtRDPu0LqgvYLPvTFNaLq24KyG5b2UOhFZTRDY4OWQGw8Z1xyzKB5iSEOoupWvGo8lNf6n6PAl8ny/UJB6aqtViugv0K2xgQC2YKOM5xoV4LjlhTfAu4b1BP+MjAdMlpHc6xNHOKzrpXDfw5lw/cHT0JBsW/1XPyZIcrFIG1AGFRRiSAR8FQUpbdW8pDmmu/nvd43MnBCx4Uf+eMq7Mf00ZlentxZuwh7Q/0wMGgJBMLi1UxLQS6tTPQDF2yHXH9jNBis3H+J1QPA9wuFz3TVnpyMMuhZyvKa/BjFZjg5rgTaUPGd/XrB3X3S4Y6MFEiNC9oNtSaxzi0xwM9ZefDjsWzY/8sJ3p5JlLm1ccyBKioBUE0MIRsfaa75ft4b4ikFJ3QKMhKRSlkLF/RQcV+JTaCFGdQEYsu52uFHDLpPBcKWdbWXl41kNccDEwP5fKHwna7a4/xdTnDHQHhoLpfzVnAlEwTZ6YN+EXfv0hH6dG0Hg7qmwoD0FuwIxkzK4eybcPBMLhw7cxlOnb3Ay45PPQToZYh2HZq6rqmKTAAJBjFwXKe55vN5b2rpSVxOSH8peHYi+usMfx/fWb8Ls8eMNXOCmkAglJZnmY9dMKt6s4aYQIIuvPIUOARIHMrbCwWlq6ZpQL/wBW9OB5jLC5o3AwVXOp2AyIQQLTkxATI6tobu7VtCv86J0LmlOI86LhdUwZHsAjh58QZknrsC+YVFQsDpJg0ydNPBQwoZXAgE2hlRo9wQHKW64e15b87LTid0XiR+EtFRbTk+L0PdR5AFzZPSoCcQ267Uxp2s0hQZHTzdg+LAcedefpL3LHj10+DrhSJEumqPOwxOO1jKmdUR4ftIw5PNCXFx0LVjG/hT1zTo0yER2iWFAcVj/gAmy5622+FyQQ1kXimBo2evwanzV6CgqJjJUE77NHVk0VihMjIepHJ+bkJ4myyXaa75et69zRER8y4i3onQypzOnhGmhDFt9SXe5irmz4OeQCDnrD1j2n7KpB4lRkede/kpzn5tMMGDjxeKUOmqPRIIhx0sFcwIBJKBYiZQXAT6i1NDpKJVcjy0SoqF1slx0DYpCpJjdJAcreXslge6JZFfboT8MgNcKaiAa/klcL2gFK7nF0NRCV7vUnTLApEHJjUuVJHxIMGEQKA1xlWaaz6ed6bPCHqauiz8gGl3rPp115h3zOiqGY2VURwYExIEAuG2+JStosAqj+QAQ85EnlkyIqBS3GwYxscLxULT7lwLuDSX3QaWSt+30l23AizxohFNoxquD4O42EiIjYqEFjHor95dp0OjpIBSyECrpkCpkINWVfer22ihwWqzg9FMA21zgMmK/t0BpRW1cLOsEkorKqGktBKqa2twcaNHO9yxDog4+LApidMOBJqYOzcFB2mu+XjefVkgLqcLuiwS1xXPJKW9cnF3RZQv8xRr35AhEJvP1U751aB7RyyOOrvkCZBIhc8FwPULRch01Z7WgtNGg7XK/611vq57imUt42Rn4+uZTG1TRsSDlKdkToxt4iDNNdfPO9O5Nexns5qh+9Ld/gwVZMyfdIapEzvrQ6J+ecgQCLSSlmdZTl4wK3sIsqp8UHpp2UiwYfKDnMsXCoofQMWyhM750Ng1TrsVrJWB5RqoO9YQLsjSh+UWEl1RkCQKQGRyXNEUIMqIFiBVKLHCyp0bgmI3zTWXz3sg4CmlDmi74ONARPAytqPamjkvQ9WTF2UYKAkpArHzXHXULyZtSa1TwJRyXpxeuGoCVNZaMFgadSZw+UIROl215x0IK1irAiMQ9bJxjY/AZoFxbIgvcQ7NmYIjgUD2sp3mmsvnPVBXp8SFQ9iUdYGK4Wy8Xupw9NMY4x7vHB54/XjOrGRXcEgRCATd+nPGdScNmmnswsiONMPWuXA9n50vLnYs4o5A4JCu2jOBCOwIoym57twR7h0JMURIsLV6hJNTRxzQjgM7RahwPMKoR5fNNNc4Ewg0357d0sE6dIFwC6sZzT11pvXTOmunY2kcR0aFHIFAOC47bc3LsVDJHGHql1jJ56/A2bMX/BrL5SAuXijudNW45HxoAjynwwbWCt+DKJn4gRxtMEHJ/z6BHlV40qyMSgCpwJkoPdmGiJL7KMOP3BApifGAyst3atcaUlOSIK3l7UkTc24UQG5eAZy/fM1dJj2v0P/YIP+9evvIu+69C0r7T2JLHCty0lR0/vxuyhRWhIlISEgSiC3na+88WqP9SYjETE2tDf2hzXDkh31+n89yud64IBA4pKtuDjOXj9c4/cEfEQl0awPtTJA9CX8Q/H0Meokh4oBuVfgb4+DNAqFrYXizz9c01/ffOQAeGjIIOndo6030bZ+fu3gF9uw7CHv3H/ZpHJudXQ4HPPTkU5DXYSibYv2WJQMX9A0z3jW+k36/30JEOjAkCQTy1Zozxs+yTJphQvstJucn2L99g2CJorzNn20CgU266mYmjr7YLeWeU1l7w8zXz93XPxGRIMcbPkHnPqa4RRx8GuhHZ1U0KufNznGIH+oZDWGS5npg3x4wZvjQP+w0MFLQoBPamdi260s4dDTT16Gs9HfSVnh49gLIixY+Jj5DY9r9TFft31iZmMiEhCyBQH5akkmX5tOKGKF85jDVwtWVU8DmxNcNrBIIVKTKhnI+CJP+mbGfUVptD8W0GMvwo6N7V6J+Z4LsSzSJoAQkv+00cLXb0JRidUyKoAndmCwnmUwKKnTV1MNRxqyJo+CRewczEcW4z9f/OwCrN+9g3J/NjhoFQNt5m8Ch0LAp1idZyZStbFEPKtanQUHUGd9vLh5A3nrR+NjhKs3nPKhqUkX+inFQbaSFUs9IL5sEAqd01c1NHh0pWEpvMMKHq06/kQmyM+E+lnAfUbj/CvPKUsW2FKASje+rq6k019GREfDi7Mk+H1cw1Y6ONZau2gjllVVMh7DWLyZMBS1mvcuaPF8FDYgw/XVcB+0Xvo4Llv7CPI0Yoff2WdOXp43qP/NtkmHLbHeKX9wbWwTCna7aRqO8z7hP2W2fewcCI1vr4iVu7VAE+e6Ee5fhFlnA4thAIgH3DoQYmkTi3oVAuxGoIfKw7IVZAR9ZeJs6OtKY/9pqQUhEy8QY0E9Y7c1E1j/vpjX/9x9dNHgEYrA+O2YCQ55AIJj4PspQ/7AGjh/+hZmHBO7FFoHALV21N1gtZfmCVdr0Zls9kUAEx/2/RU4o6gkD2noXcpfBE+5o90MVg9WlrWaXSMM01yuXPMfZzkNjI9BOxJxFb3hbvux/7nJBtx7dwP7nf7Iv24PEUD+6qIeFEAgAeC/b+MgRg+YrJw8/jrWlF+HY+kXgksh4W+yBKGKDQOCYrtobJpbyAnA5MUkH6s3YWySijli4q3thSyoQWagjCuiPmzpgH1sgkcpAFX379UZvLhH6c6VCAfOmjmU95sHbvISKiXDYrDBg/FwwpA7wZmLAn0slAP11pkfHpmu/DliYyAUQAnHLgW+fMX1y2qR+nGt/3nxrApRV45Np0tt8AyUQuKar9jZva0UhOB12b92w/rzuVkcjUuEmydztWdS9UBApQP/5nSy4/02g+IVAnSSVyUEZlRioGF7H39W/D7z6/ExeddYrW7JivSC3M/RKKbR8bjvnc+6mMe/8R1fNE5wrEoECQiAaOInrBFOKz16EU9k5IlgWv5sYKIHANV21NyegapyoKmcwt9uvjboQr2h0GNJ4S+7314X7f/3+X3W0QaQEwZuPJXIFqCITvHXD6vNtby2DNq2EidtA8RBTnlsiCB7prRNBMvLfnOkO1YRRngAlBKIBMh9eMGQcNagzjQ72L3ynntsJX3/2Obb5HjwtkEAJhFhuXjSev7WyGJx2vG/IcPaWJIJvQ0AqpwCV8xZLe/iewbBgprCZGt9c/54gyaZQFtkHhj4ChT2fZt1dWpnT2Vdn7vFUR10W68JFKpAQiEaO23DWsOK4UTuHTX8musrh0BuzwURjnv+giUkHSiCQSDGSCFRMy2mzsrkMiCyRIoCqcKJiWmJp619fCBmd2gtqrmABlQBASZxw13P/hgKWqxX01hpXTumimysosJgpJwSiCYewXfabfm8mXM4rx8z1zMxhg0CIkUTQ1aXgoM3MQCK9ghoBGaUGKlwcuYJaJSXAh+sEuAnRxAqYMPclwWpntGoRDrrJ7FXuDLUy3UwfaEIgPCC1MNNWW0zLdUyB9NQv+cCb8N1+YdK9Bmo7Gs8WgRAbibDWlIHTamIDQiJD5AhIlRpQhgmWsNYn9EYMfRCemTDSpzFcdV733sfwxbf7uBLvVe69/btC0b3Pe+3nrUM8ZTe80kOh99YvFD8nBMKD19+/aHriUJX640BudqZVnoQ9a5eDIxAhAq9KNgmEmEgEXVsODotRYPSJehx8PX3fAAAgAElEQVQQkKm0QOmjcTClWRtQFspFc6fB3QP7YmHrj4eOwmtrNgtmi8TpgKHTZsGVuP5+24C+IAdGmEc83UHzid9CgnggIRDNOHftGdP2Uyb1KH/9X/r2JCipFPevWLYJhFhIhK22AuwWg7+uJ+OCCAG5SgcKfRTWM6pPYb3hjUWcZ51kCoSQtzHqbYwOU0L8rC1MTf5Dv+4a844ZXTWj/RYQ5AMJgfDi4DeyLNmXzcpOvq4D3d434ddfxXd0kZIYD70y0qFTu9aQmpL0h5cReink5hXA+cvX4ERWtt9nnLgHVtqMlWA31frqdtI/CBGQa/Sg0EZiO7OG9S92v7sKdFrhiks1BMlgNMGwCbMFx617Rgew/eUln+1op7aefy5Dle7zwBAaQAgEA2e/eNJmuGmTaxl0dXdR2M1w7o2JYBNJIkNk8/13DoCHhgzyOe0tirbes++gX1e2cCYRdmMV2Ew1TF1O+gUxAgpNGMi1EVjOsHHxrG8/2gBSTPJxOF0uePDJKYLj5nLQ0Hfm62CKasPYlhYKu3FpT0XAMXCMFYq0IyEQDBy35Vzt8KMG7acOhvX4nB88B+evFTCQLHyXgX17wJjhQwPe9kQ7E9t2felzBjpcSQQiD4hEkEYQQOQBkQjcWlOVNwmBaNpLrRIiQTfxbUYulIEL+uqMfx/fWb+L0YAQ7kQIBEPnrztnXJ9p0Ez11j057yf4busGUSSMmjVxFOu58v3JhY8jiUDxDygOgjSCAIp/QHEQOLWmyAOyjxxhNO0llJb+/idGQlEn78Uze+hM70zvrJ2Gk79xtYUQCB88syLLfOS8WdWvuSHlaydDcQXe0fuoxO+Lsyf7fFzBFCp0rLF01UafSvviRiJQDgiUC4I0ggDKAYFyQeDSPJEHZB8JovTspWi9EuJnNx9Q2Ult+WVuhtr/axu4LBKe7CAEwkegXzltLbphoZrMaxt/dBP88N1PPkrktzsiD8temBXwkYU3q9GRxvzXVouWRKA01iidNWkEAZTGGqWzxqE1Rx6QfS88M5Fc42zGUXfd+ScoHdx0kbGWKrp4YTeluIqeCLwoCYHw0QHvnalqc57WZVfYZbe9UaQSJ1x9/Wns01WvXPIcZzsPjaH0NZ2tze4A2oZH/QmXww6WikIfVwfpHowIqKISQSKTYzE1SkGBQi7zaMtjDw6B6WNHYGGr0ImkmgJBJXNBuwU7wOmS3vZxlNxBd6IM6WO7RlzFAjyRGEEIhB+O2ny2ZuJRo35Tw/xQmv8shmNZl/2Qxt8QLmIevFnPNCbC6XQBqtyJyn9j0VxOMJflY2EKMUJYBNQxydjENEmlUlAqKJBKm351o2vY7654WVjAbmkXMpV1cwD07JwG1mFLf+uCkOyrrZ00sUuYcFmvsPCY70YQAuE7Zu4RDYMqU2vOwZ7Vr4ATPP8y8FMNa8PQbQuUpU6ItmTFeq+3M6w0DXYHXvdeLaV54GpU4FoI/IhO4RCQgARUscKUxfY0a7lMBkrK85EKn7uMnmz0dfeRVw+77PDnOQvhmr6LWy0JmvQffUIg/McOVp8x7ztrUt1t2TILrhaUBSCJ+6FCBld5y0hnt9vBarNxD4KPGtARBjrKIC10EUBHF+gIA7emVChALm/6WAXldHl22lhBTRaqnDfTSbdNigbl+Legi8by46yu6iFMx5F+tyNACESAK+Jfn+8v+WLz+liJ5PYztQDFsjoc5xeK0+UEC02Dy4lfwRBLZTG47HjEZLC6IIgwxghI5BSoIpuMmWYsg4uOEqkEVBQFUg/vHZx/MHCBh68yXQ4HDJs8o/T//jo4ztexpP/vCBACwcJqeGDKAlttQQ4eUVZNzAfnLU0cjy7qIbRWl4KTlPRm4QkRrwgppQYlpqW8mzvKwP3IUugVoU9Ks3+34VWF0HaIXT8hECx4cNkXR/60d+cHR+iaCuzwxDmoyma3A8r/gGuja8rBYcU7pweu2AWLXTKlFqgwfCtxUgoFoKudTTWcg6aFXB9UWJTr/sdH9p//WP9fhbQjGHRj94UnVlBf+uSnOf/bsXkFuDC5RXALSFyvdblcLjBbrFgHKdoMlWA3k4JaYn0m2bBbrtaDQodvIS0U5KlWKUHiof4Fn7uPWAdO1i8GiRTuHTVx7stP3LWSjfUR6jIIgWBxBczb+s27Rz7bMZ5FkQGLwjWxDIp7cGB266Ix2HZTDdhIPYyA16CYBSi0ESDHsA5GQ0xlMpk7HqKphnPiOCHWRf+/jdqyfNzDE4TQHYw6CYFg2avPrNv9w4lvdmET1StkMFVjaOtvY+B+dFFvt8NiAJrUw2D5CRGXOEofBTLM6mA0hWBzRxk4pq4XYhX0enj4vjXTh90jhO5g1UkIBAeenbz8wzNnf/yq7pKxwA234jp/HT/z1tGFwMAwUI8CKFEgJWmhiwAKoESBlLg39CKvO8rwfBuMi5gIponihMavy92Pnt0476muQtsRbPoJgeDIo6Nf3ZR39ciPyRyJZywWt/K+dw0bCw5csk16QdFhswJddZMx1qRj8CFARbQAmUIpionJpFJQKZu3Fd3OGDN8aMC1cNBu4rZdX3pNEIcDcG36352/fcEkvLKB4QAMCzYQAsECiJ5EPPnSurLrJw8KGsKNG4G447ExHCLOrmhUAthK6mGwC6rIpCmjEkGKSR0MJtA1d5TRcDzKDfPQkEE+18VBgZJ79h2EvfsPMzFH8D6teg4q/+jl6TGCGxKkBhACwbFjhz+/srbw7DEdx2o8isfpCKPWYIQHR04VCgqf9bpQkitSD8Nn3IJpgComudljAdzm6u1WRmN70TXvXhnp0Klda0hNSYLY6EjQaOqObEwmM5SWV0JuXgGcv3wNTmRlQ16heCrUJnbpY9j1+hw9bj4KJnsIgeDBm0PnvmYuu3RGxYOqP6jAKYjy6vU8GDNzvhAw+K3TXJYH4MIvS6bfEyIDmSMgkYA6Rnw7395qZTAHQLw9Y9p3tXy54gX8g1fEC7HbckIgeHLgw9NfoqtuXOE98xlO1zi/P3AEFi9fxxPi7KixlBeCy0nqYbCDprikSKRyUEXjVweDCYqo2BYiEqHYIlq2tX2z7mXP1cZCERSO5kwIBEfANha7NbMy4qM1y8oMJQW8PtU4JZJatWk7fPrVXp4QZ0eNtbIInHZ8s2WyM0sipSkEpHIFKCMTRAuOVh16P8B1cUmOJ5+ZHzOuR2SVaB0nIsMJgeDRWTsum5K3LPnndUtVOW+Vt3BKZf3U9OfgekERj4gHrorUwwgcQ7FKwLkOBhNMQ+0oQxUR7Rz1z8Wp47tG5zHBh/QJHAFCIALH0CcJH2RXt3tn4dyLDquZN+z5TGfrCYys85dg2vOv+IQVDp1pQyU4SDprHFzBuw1ytQ4Uuije9bKlUCqVgFopSOgVW1NgLEemVLumvrKiw8j08MuMB5GOASPA25dYwJYGkYCtF2s6bpo39TxfU8KhnPerb22Cb344wNeUWdNjN9eAzUB2Q1kDVESCFNpwkGvCRWTx7aYqFQqQeyi0JdpJeTB80vJ3Oo3rEHYh2OaF+3wIgRDIQ4hEbJk/J5uvnQghb2OI8fZF/bJwWE1A15QJtEqIWiERoPTRIFNphTQhIN0atTroo+TRzsP4ZSvTCXkIaKn4PZgQCL+hC3wgOs54d9mLF/iIiUAZ6BbNnRa40X5IWPivNbDv8FE/Rgo/BAVQokBK0kIPAWVEC5CKJAtlY++EQvwDinmYMH9pR3JsIdyzSQiEcNi7NW85U57y8crXc/i4ncFFLnxv8KFc+Ss2vg8WK+2tK5afk2RSWLqFF6NUUUkgEelVSJWSApmU1wtfvPikXgm6bTFizvNpJGCSV9j/oIwQCGHxd2tHVzw/3bSyhI88EXwGVKK0t3MWveGeo9liAadIEzKZy/MBRFK/A4PlHDQmqGNbinIuUpQASxW8wZMoz8PfJ82JI1c1hV+ehEAI74PfLOAjYyUq7bvshVkBF9PxBhsqtjP/tdVQXlkXgEjb7WCziTOfgrXqJjhtVm9TJp8HEQJiTiKlUCiACtLgSZJhEq+HjBAIvPwBfNTOQCTixdmTfS6kwxQqtPOwdNXG38gDGudyucBksTAVgVU/FESJgilJCx0EZJQSqPAWopywRqUCiST4Xu2ktgV+yzH4Vhl+GPtsEV9VPLmIiUAxD6s372hyzhaaBofD4TMeQg9A1zjRdU7SQgcBdPsC3cIQW5PJZKCivGdx1ms1MLBPd8hIbw+tWyaB0+mCSznXIfPMBdj/ywnspk2qamLnErdBhEDg6RcY/eqmvKtHfkzm2jx0O2PM8KEBH2mgI4ttu76EQ0czPZqMyAMiEWJrdrMBbIYKsZlN7A0AAZT/AeWBEFtD5AGRiOba6OGPwl/uv8tjF5vdDh9+vgf++/1+LKbfpv/d+dsXTBJfVTMs0OPWCEIguMU3IOnT1+7OPLVnV/eAhDAcjJJNPTRkkM/HGui4Ys++g7B3/2FGmozoGENkwZQO2gJ0dQmj+ZFOwYEApY8CmUonrslIJKBtJngS7TRMGTUc2qQy+y7+9eQZWPv+J2AyC3f02P2h4afWzRjWQ1yOCB1rCYHA3NcvfHLwP/u3rxvKl5modkavjHTo1K41pKYkQWx0JGg0dUV5TCYzlJZXQm5eAZy/fA1OZGVDXmGxT6bRNhugXzhiai6HHSwVhWIymdgaIAJUeBzIKHHdZFDI5UApmi74e9/gfjB55N98jo0oulkK67bthPOXcwJE1Pfhd46e/uVrTwz6i+8jyQi+ECAEgi+kA9Cz+PNf3/p+69vPuJziix9oPG2xBlOaS28E4EEyVGwIqKISQSKTi8psT8GTU0YPh/vu6BfQXDZ9uBu++4nZLmNAitC5ulQG9437x5rFf/3TzEBlkfHcIkAIBLf4sib9ta9PTv3hs4/WmUoKRO8zlFTKITIyZKkoAJcIA0BZW4AhJkgdkwIgopsMKGkUSh7VsLVulQxTRw0H9JeNhggEIhJcNk1ckuuevz05/YVHer7DpR4imx0ERP9lxA4M4pCy8ofsnvu/++ZISfZJ72HWGE/J5rADTYsrJ4S1qgScNuHOgjF2Z/CZJpWBOjpJVPOiKAUoGuyYoCMLFO/AdrtwJQfWvr8T0NEG2y0uvSd95wMP959zT/pJtmUTedwgQAgEN7hyKvXxBWuq8k8fEV+IeANUjGYzpxixLZyurQCHxcC2WCIPQwSkcgqUkfEYWubZJK26Lk4JNUQcEIHgqqGgynXv74RfTmaxpiK5W//qna8+E8GaQCKIFwQIgeAFZvaVjFq0/vq1Ez+LM9cuAFhtNNjt4onpsJuqwWasZt+RRCJ2CMiUGqDCYrCzy5NBcrkMlArKfVTB5pGFNwB2/ncvoH8Cba173XFjx5JprQKVQ8bzjwAhEPxjzprGccs2Hb54+Mf+rAnkUZDT5QSzRTzpoUlZbx4Xh8Cq5JowUGjF82NYrVLCA3cO4OTIwpsr0C4E2o3w96pnhwF3H9k6f9IAb3rI53giQAgEnn5hbNWMVR+vvJh1fJappFB0vjRbLe4MeGJoTjsN1krfrqyKYV7Exj8ioNBFgVwtjhwQUqkEZk8YxemRhbc1guIhUFwEio9g2jRxia4OGb1Xr509Yg7TMaQffgiI7ksHPwiFt+jZd3b3z8nJ3Vd07rioLq6jfBAoL4QYGinrLQYvsWMjFR4DMkrDjjCOpQx/5D6YMOIxjrUwE8/0qmdC596WtLTUIW9OHXaEmWTSC1cECIHA1TN+2DXujW03Lh74llmaOT/kczFETMGU5rI80WXR5MJnwS4TBVCiQEoxtK/fXwNSqZRTU1HuluoaA1TW1EBVdS1UVtf9rao1QFV1zW//jv5/dEW7udZh8IN5W58bI9rYLU6BFqFwQiBE6LTmTJ61+etvsn7e95C1vEgUM7PSNNhFkl8BHWGgowzSghsBVUwySCTcfimzgeCd/XrB8zPG+y0KfdnXk4G6vzW3SMHvJKGeNPit5NZAZXQCZNwxZM/qiY88HKgsMh4fBAiBwMcXrFmyZOehaSeP//JWafYJ7FPpianAFl1TCg6ruK6fsraoQkSQRCIDVYw4ckC89vxM6N65w22eYXO3gC2Xx6b3svfs3W/moscHrmdLJpGDBwKEQODhB06sGPvGtpJLB76N5UQ4i0JNFgugFx/uzW6sApuJlPXG3U+B2CejlECFtwhEBC9j9TotPPbA3bcdKbC1W8DmBNoPfrD0vefGxLEpk8jCBwFCIPDxBSeWzNz49U9Zh/bdSWN8pCGWYEpylZOTJYqVUJlaB5QuCiubmjIGFc1CxbNwbRQ6shg4ZP9bkx/xXDccV+OJXYwRIASCMVTi7fjqF8dmHPvl4KqSs8ewfOOgvQeTCDJTkquc4n0GmFouliucGrUacH15x3XpY+/Tb9DsBY/1WcsUd9JPnAjgugbFiSbmVo9f+XH+hX1fJYHLiZ2lYgimRMcsFnQTg7SgRUAZEQdSBd63oeUyGSgpDG+JSKTQccijBVvmjGCnelfQrrLgmRghEMHjS0Yzefa97z49ffjAcGMh86QvjAQH2EkswZSW8gIIhrLqAboraIe7i2hJZVjPT0VRIJPhZaM2MQ26DRi8682xD/wda/CIcawiQAgEq3CKQ9jrXx0dkHn0+N68kwe1OFkshmBKUpUTpxXDsi1SKaij8f7xLJFIQKPCa4ckpecgY4++ve9//tG+h1n2CBGHOQKEQGDuIC7Nm7Lq42PZh/b1dpjxqDJJ2+xgs+OdmdJWWwF2UpWTy2UpmGypQgnKCLxvYCjkCqAUeIQyoYDT9IFDjm+YPaKPYE4jigVFgBAIQeEXXvncDV/MvHw2683ynAsKoa0RQ4Eth7kWaEOl0FAR/RwgIFfrQaGL5EAyeyJR4SwpBkmuotM62tp1yXh2xZTH3mJvdkSS2BAgBEJsHuPI3rHL3j1/+eiBji6BdwDMVis4nfgFedbD7qTNYK0u5cgLRKyQCCDygEgErg2lrFYrlYKaJ5EroF3fwRfemz+hk6CGEOVYIEAIBBZuwMOIWRt2/1/OxYtLyy6dESzE2253gNWGb7pol9MOlvJCPBxGrGAVASo8DmQUXvEFDSeoVFAglwsXPBnTviud1qHDi6unDPs3q8ATYaJFgBAI0bqOO8Mnvbn91MWjh7rZBcq6iHuBLVJUi7u1J6RkVXQSSDC+gaFVqwWBR64Jgw59B57e9Ozo7oIYQJRiiwAhENi6RljD5m3+cnTu1WvvFJ05yntdY9pGg83uEBaAZrSTolrYusZvw1DxLFREC9emkMuAUvC/MZjQta8ptU3rqcsnDt2OKzbELuEQIARCOOxFoXnqqo9+uHTy6BBLxU3e7MU9mJKuKQOU1pq04EFAqqBAGRGP7YT4Dp5URbWA9j377ntn9pP3YAsKMUxwBAiBENwF+Bsw/ZW1nSpo14EbmYdj+LLWbLWA04lngS2bsRrspmq+oCB6eEBAptIBpcezBoZUKgG1kr/YjJY9BpRFUZLB6xbOOM8D9ESFiBEgBELEzuPb9OkrdqzNvXplctX1S5xfRMe5wJbdYgRbbTnf8BN9HCKg0EaCXIPnDQy+CmdFtGpvT23TduO6uaNmcAg1ER1ECBACEUTO5Gsqk/69/ejl08f60FVlnKrENZjSZafBUlnM6dyJcH4RUIbHgpQSJkjR20y5Dp6kImKgXbc+xzb93+i+3mwhnxMEGiJACARZD34hMGPFe52rDdb/5Rw/GM9VbQgLTQOqkYFdcznBXJaPnVnEIP8RUEUlgQSz+hJoNqjmBap9wUVDN07Seg8qDtcp7107d+w5LnQQmcGNACEQwe1fzmc3Z/3u56/n5LxUnH2C9Z9vTocTzLSV8zn4o4AU1fIHNUzHSCSgjknB0jg1pQSpTMq6bfHpvcyt0tJeXjlt2OusCycCQwYBQiBCxtXcTvQfa3buvJp9Zlh13lVWM93gWmDLWn0TnJiSG249HXzSpXIKlJH43cDgonBWeEobR5v0rrvffubxx4PPk2RGfCNACATfiAe5vgn/2nLs6umTvemaClZmimuBLZuhEuzmWlbmSIQIi4BcrQOFDr8bGGwWzqLCoqBNt57H3/3neFL4StjlFlTaCYEIKnfiMZk7HhiV0HrwXQdyz2a2tdUGXngKx2BKu8kANiM7JAkPr4WuFQpdBMjVYdgBwEbwpEIfCaldely5duCnwT9/t6MIu0kSg0SNACEQonYf3sbPXP1Br2qj9fPcMydSAiESFtoKDgdeBbYctAXo6hK8HUCsY4QAjjUwZDIpqCj/C2e5iUPXXnnhWuVf35o18gQjIEgngoCPCBAC4SNgpLvvCCz+4H/35uQVbMs5dTTB7kcpbLvDAVYarwJbLocDLBUFvoNBRmCHgCo6ESRSzlOb+DRvJUWB3I9bIXJdJKR171uUlpI0ZvHIe//nk1LSmSDgIwKEQPgIGOnuPwKLP/750Zzr1zblZB6N95VImCxmcGGWmJIU1fJ/LWAzEsMbGBIJgEbl26UmN3Ho0bc4rVXrSYtH3PEVNvgSQ4IaAUIggtq9eE7OTSRyr230ZUeCttkAZafEqdHVN8FBbmLg5BKfbZFRSqDCW/g8jssBCrkcUPZJJu23HYfU1pMJcWCCGOnDJgKEQLCJJpHlEwLoaCM3P39LblZmCl1d2uxYp8sFZovFJ/lcdyY3MbhGmHv5crUeFLpI7hX5oEGtUoEUbUM006jwWEjN6JGXmpw8nhxV+AAu6coqAoRAsAonEeYPAvM3f9WluLJqd+65U+0sZYUeRZitVnA68QmmdFiMQJOaGP64HJsxlD4aZCotNvZIpVJQKz0HT6piEiG1c/fL8ZERw5ZNfPQsNoYTQ0ISAUIgQtLteE76oYceUra8b/TB3IvnetYW5Pwh/R5uwZQuuw0sleRmHJ6riZlVqsgEkMiZHRcwkxhYL0/Bk/qkNGdqh84nb3y/fdCePXvwTM8a2NTJaBEiQAiECJ0WCiZPWb796xtXL91XfePqbW933HJCmEtvhII7gnaO6tiWWM2tce6H8JZtbC3btP9+w7zRj2BlKDGGIAAAhECQZYA1ApNe27i2uLDo6fKci+59ZtpGg82OT4Eta9VNcNrID0KsF5EH46QKJSgj8AmgVMhlQCnqCmdFp3UwxicmvL/phcmktLYYF1eI2EwIRIg4WuzTfGL2yxOdlHJR4ZULyYbqKmymQxsqwUFSWmPjD18Mkan1QGEUQKkLj4DEth3zpbR1ySerXtrsy1xIX4KAEAgQAiEE6kSn3wigNNmt+vd/tyg/b0hZzkX/U/X5bcHtA0kgJUtACiAGlwDKmLQO1oTklH3XjxyZQNJNC7AQiEq/ESAEwm/oyEChERj7yvpJtQbzi/mXs1Ms1eWCrGWnwwbWChJIKfRa8Ee/MioBpDJhAihV4dGu5HbpeXqdeul7C6dt8sd+MoYgIDQCgrx0hZ400R9cCGTcf7+2xx3DtxQXFTxSfDGL9zt5JJBSnOtJiADK+A4ZxviEpK8zf941PmvvXqM4kSNWEwTqECAEgqyEoELg0cn/HKSNTXjrZn5+18r8q7wUOEBXOdGVTtLEgwC6uomucPLRIpPb2FskJ58xlhbN/Grjvw7yoZPoIAjwgQAhEHygTHQIgsCEVzdPNFmtzxbdyG1bmXdFxpURtKECHGYDV+KJXA4QkKl1QOmiOJBcJzIypa0joWXqFY1S+ea7CyaSgEjOkCaChUSAEAgh0Se6eUNg2vLtcytramcU3shJrb5x5Q9JqgIxxG4xgK22IhARZCzPCCj0USBX6VjVGt6yrTOxZVpuZJh+7fp5o1ewKpwIIwhgiAAhEBg6hZjELQK3yMS0ouvX0qryrga8M0EyUnLrLy6ks5WBMiKljSOhVeucyDD9ekIauPAUkYkzAoRA4OwdYhvnCLiPOez0M6UFBR1Lr12gwOVfrQ0SSMm5q1hV4HcApUQKsa070rFJSRc0cmoNOZ5g1S1EmMgQIARCZA4j5nKHwMRXVnZyyMPfLC29ObAk90q4tZr5sYSlohBcDrzKjXOHlLglS2RyUEUlMp6EMjwK4lLbVsfGtjgks1c/u3nhnPOMB5OOBIEgRoAQiCB2LplaYAhMX/nhgvKK8jHF13NaVxXkNHujw1ZbDnYLuZUXGOL8jJartKDQRzerLCIpzR7fKu1adFT0tnVznnqVH8uIFoKAuBAgBEJc/iLWCoTAHX8fF9um+4BVlRVlQyqKC2NrivNvi51AtzDQbQzS8EcA3b5AtzAatrD4ZEdUfGJpZFTMvqunDs/++dOtpfjPhFhIEBAWAUIghMWfaBcpAvM+/DHGXl3zckVlxf1lNwtTyq5foaqvZYl0NqFldnjrDIhp1ZaOaZGYFxUZtVceHvbS8qfuLgstFMhsCQKBI0AIROAYEgkEATcCSz/7ZXpBfs6I4oK8LiU3roZXXjsvJccawi4OdFwR2bqTM65lm+r4pJSzSclpH7/4t37rhLWKaCcIBAcChEAEhx/JLDBEYMuZ8pScc1nTbxYV3ldaWNC2tOC6vurGJSldQ446uHAXFRYFES3bO2OTWtXGJiZdaZGQ+H1a54x147tG53Ghj8gkCIQ6AoRAhPoKIPPnFYGtmZUR+XmXxhXm5jxcVlSUXlF4PaY8/yplKi3k1Q6xK9PEJkJ0chs6KrFVWUxCQnZiato3ySntt47rEYlPrXexg0zsJwh4QYAQCLJECAIYIDBvy8702pKqp81WSx+zwdi6tqY62lBeqjaUl8jM5aFJLtTRiaCLjnPoomPN+rDwcrVOe02tVB3Tx0W8v3z849kYuI2YQBAIaQQIgQhp95PJiwEBdBRy9fTxP9dUVfarqarpYKypTKytqogwVJSpLIYqmbW2RkIbKgFcLjFMB0AiAUoXCUp9mEuli3DoomIs+oioKm1YZCqtNpIAAADCSURBVGFYRNjFsIjIX9p06/1fcvQgDncSK0MXAUIgQtf3ZOZBhMDOc9VR57NO9zeZaruaLbVtTSZTstVkjjMbjRFWs0FnNRpUFkMNZbfRMpfTKbE7HBKnwyZxOhwoAVbdX7sNHA67OyGW+x97XWIsiVwOKPkS+keG/soVIJXJ0L+70F+pTOGSy2QuiVTqkisoh0oXRiu1OotSrTOotdoqpUZdotFo8tUq/RWNRn+mU0a3I493DieBIEG0/shUQhOB/wfBiQwOt/0GmQAAAABJRU5ErkJggg==;" vertex="1" parent="1">
          <mxGeometry x="43.460000000000036" y="275" width="56.54" height="60" as="geometry" />
        </mxCell>
        <mxCell id="rr55XMxGJXw-yliVTniT-60" value="&lt;b&gt;Romain&lt;/b&gt;" style="text;html=1;align=center;verticalAlign=middle;resizable=0;points=[];autosize=1;" vertex="1" parent="1">
          <mxGeometry x="40" y="335" width="60" height="20" as="geometry" />
        </mxCell>
      </root>
    </mxGraphModel>
  </diagram>
</mxfile>
